<svg xmlns="http://www.w3.org/2000/svg" xml:space="preserve" fill-rule="evenodd" stroke-linecap="round" stroke-linejoin="round" stroke-miterlimit="1.5" clip-rule="evenodd" viewBox="0 0 16000 9000">
  <g id="_16-9-Solo">
    <path id="Logo-Panel" fill="#18191b" fill-opacity=".6" d="M15958.3 7208.33a166.667 166.667 0 0 0-166.666-166.666h-4041.67a166.666 166.666 0 0 0-166.667 166.666v1583.33a166.668 166.668 0 0 0 166.667 166.666h4041.67a166.667 166.667 0 0 0 166.666-166.666V7208.33Z"/>
    <g id="Info-Panel">
      <path fill="#494b50" d="M625 6166.8h166.667v-42.215a166.249 166.249 0 0 1 166.25-166.25h200.416v-166.666h-200c-184.095 0-333.333 149.238-333.333 333.333v41.798Z"/>
      <path fill="#494b50" d="M591.667 6166.8c0 18.41 14.924 33.334 33.333 33.334h166.667c18.409 0 33.333-14.924 33.333-33.334v-42.215a132.917 132.917 0 0 1 132.917-132.916h200.416c18.41 0 33.334-14.924 33.334-33.334v-166.666c0-18.41-14.924-33.334-33.334-33.334h-200c-202.504 0-366.666 164.163-366.666 366.667v41.798Zm33.333 0h166.667v-42.215a166.249 166.249 0 0 1 166.25-166.25h200.416v-166.666h-200c-184.095 0-333.333 149.238-333.333 333.333v41.798Z"/>
      <path fill="none" stroke="#5daeff" stroke-width="41.67" d="M1150 5950H950c-92.047 0-166.667 74.619-166.667 166.667v41.798"/>
      <path fill="none" stroke="#ef5b5b" stroke-width="41.67" d="M1158.33 5875h-200c-138.071 0-250 111.929-250 250v41.798"/>
      <path fill="none" stroke="#a9ebdd" stroke-width="41.67" d="M1166.67 5800h-200c-184.095 0-333.334 149.238-333.334 333.333v41.799"/>
      <path fill="#18191b" d="M991.667 5591.67c0-23.012-18.655-41.667-41.667-41.667s-41.667 18.655-41.667 41.667v83.333c0 23.012 18.655 41.667 41.667 41.667s41.667-18.655 41.667-41.667v-83.333Z"/>
      <path fill="#f2f2f2" d="M3908.33 5541.8a83.332 83.332 0 0 0-83.333-83.333h-2791.67a83.333 83.333 0 0 0-83.333 83.333v458.334a83.333 83.333 0 0 0 83.333 83.333h2791.67a83.332 83.332 0 0 0 83.333-83.333V5541.8Z"/>
      <path id="Estimate-Container" fill="#d8fff7" d="M3825 5676.34c0-27.614-22.386-50-50-50H2478.04c-27.614 0-50 22.386-50 50v275c0 27.615 22.386 50 50 50H3775c27.614 0 50-22.385 50-50v-275Z"/>
      <text x="2461.37" y="5600.13" fill="#494b50" font-family="Karnivore" font-size="100">ESTIMATE</text>
      <text x="1071.84" y="6010.53" fill="#494b50" font-family="Karnivore" font-size="63.17" transform="matrix(1 0 0 .9894 0 49.025)">Main Volume</text>
      <g id="Volume-Knob">
        <g id="Knob">
          <circle cx="1283.33" cy="5791.8" r="104.167" fill="#f2f2f2"/>
          <path fill="#18191b" d="M1283.33 5662.63c-71.289 0-129.166 57.877-129.166 129.166 0 71.289 57.877 129.167 129.166 129.167 71.289 0 129.167-57.878 129.167-129.167s-57.878-129.166-129.167-129.166Zm0 25c57.491 0 104.167 46.675 104.167 104.166s-46.676 104.167-104.167 104.167-104.166-46.676-104.166-104.167 46.675-104.166 104.166-104.166Z"/>
          <path fill="none" stroke="#18191b" stroke-width="33.33" d="M1283.33 5687.63v104.166"/>
        </g>
        <clipPath id="_clip1">
          <path id="Ticks" d="M1401.18 5909.65a166.662 166.662 0 0 0 48.816-117.851c0-91.986-74.681-166.666-166.667-166.666s-166.666 74.68-166.666 166.666a166.666 166.666 0 0 0 48.815 117.851l58.926-58.925a83.334 83.334 0 0 1-24.408-58.926c0-45.993 37.34-83.333 83.333-83.333 45.993 0 83.334 37.34 83.334 83.333a83.334 83.334 0 0 1-24.408 58.926l58.925 58.925Z"/>
        </clipPath>
        <g clip-path="url(#_clip1)">
          <path fill="none" stroke="#18191b" stroke-width="8.33" d="M1283.33 5633.47v15.833m-48.927-8.084 4.892 15.059m-49.031 7.431 9.307 12.809m-44.335 22.219 12.809 9.307m-35.299 34.832 15.059 4.892m-22.808 44.035h15.833m-8.084 48.928 15.059-4.893m7.431 49.031 12.809-9.306m22.219 44.335 9.307-12.81m34.832 35.299 4.892-15.058m44.035 22.808v-15.834m48.928 8.084-4.893-15.058m49.031-7.431-9.306-12.81m44.335-22.219-12.81-9.306m35.299-34.832-15.058-4.893m22.808-44.035h-15.834m8.084-48.927-15.058 4.892m-7.431-49.031-12.81 9.307m-22.219-44.335-9.306 12.809m-34.832-35.299-4.893 15.059"/>
        </g>
      </g>
      <g id="Knob--S-">
        <g id="Knob1">
          <circle cx="1688.32" cy="5860.91" r="62.5" fill="#fff"/>
          <path fill="#18191b" d="M1688.32 5781.74c-43.693 0-79.166 35.473-79.166 79.167 0 43.693 35.473 79.166 79.166 79.166 43.694 0 79.167-35.473 79.167-79.166 0-43.694-35.473-79.167-79.167-79.167Zm0 16.667c34.495 0 62.5 28.005 62.5 62.5 0 34.494-28.005 62.5-62.5 62.5-34.494 0-62.5-28.006-62.5-62.5 0-34.495 28.006-62.5 62.5-62.5Z"/>
          <path fill="none" stroke="#18191b" stroke-width="16.67" d="M1688.32 5798.41v62.5"/>
        </g>
        <clipPath id="_clip2">
          <path id="Ticks1" d="M1797.22 5937.16a132.937 132.937 0 0 0 24.042-76.252c0-73.373-59.569-132.942-132.942-132.942-73.372 0-132.942 59.569-132.942 132.942 0 27.282 8.394 53.904 24.043 76.252l54.45-38.126a66.466 66.466 0 0 1-12.022-38.126c0-36.687 29.785-66.471 66.471-66.471 36.687 0 66.471 29.784 66.471 66.471a66.465 66.465 0 0 1-12.021 38.126l54.45 38.126Z"/>
        </clipPath>
        <g clip-path="url(#_clip2)">
          <path fill="none" stroke="#18191b" stroke-width="8.33" d="M1688.32 5756.74v10.417m-39.862-2.488 3.986 9.624m-37.781 12.957 7.366 7.365m-29.946 26.429 9.624 3.986m-17.553 35.877h10.416m-2.487 39.863 9.624-3.987m12.956 37.781 7.366-7.366m26.429 29.946 3.986-9.624m35.876 17.553v-10.416m39.863 2.487-3.986-9.624m37.78-12.956-7.365-7.366m29.946-26.428-9.624-3.987m17.553-35.876h-10.417m2.488-39.863-9.624 3.986m-12.957-37.78-7.365 7.365m-26.429-29.946-3.986 9.624"/>
        </g>
      </g>
      <g id="Knob--S-1">
        <g id="Knob2">
          <circle cx="1954.2" cy="5860.91" r="62.5" fill="#fff"/>
          <path fill="#18191b" d="M1954.2 5781.74c-43.693 0-79.166 35.473-79.166 79.167 0 43.693 35.473 79.166 79.166 79.166 43.694 0 79.167-35.473 79.167-79.166 0-43.694-35.473-79.167-79.167-79.167Zm0 16.667c34.495 0 62.5 28.005 62.5 62.5 0 34.494-28.005 62.5-62.5 62.5-34.494 0-62.5-28.006-62.5-62.5 0-34.495 28.006-62.5 62.5-62.5Z"/>
          <path fill="none" stroke="#18191b" stroke-width="16.67" d="M1954.2 5798.41v62.5"/>
        </g>
        <clipPath id="_clip3">
          <path id="Ticks2" d="M2063.11 5937.16a132.937 132.937 0 0 0 24.042-76.252c0-73.373-59.569-132.942-132.942-132.942-73.372 0-132.942 59.569-132.942 132.942 0 27.282 8.394 53.904 24.043 76.252l54.45-38.126a66.466 66.466 0 0 1-12.022-38.126c0-36.687 29.785-66.471 66.471-66.471 36.687 0 66.471 29.784 66.471 66.471a66.465 66.465 0 0 1-12.021 38.126l54.45 38.126Z"/>
        </clipPath>
        <g clip-path="url(#_clip3)">
          <path fill="none" stroke="#18191b" stroke-width="8.33" d="M1954.2 5756.74v10.417m-39.862-2.488 3.986 9.624m-37.781 12.957 7.366 7.365m-29.946 26.429 9.624 3.986m-17.553 35.877h10.416m-2.487 39.863 9.624-3.987m12.956 37.781 7.366-7.366m26.429 29.946 3.986-9.624m35.876 17.553v-10.416m39.863 2.487-3.986-9.624m37.78-12.956-7.365-7.366m29.946-26.428-9.624-3.987m17.553-35.876h-10.417m2.488-39.863-9.624 3.986m-12.957-37.78-7.365 7.365m-26.429-29.946-3.986 9.624"/>
        </g>
      </g>
      <g id="Knob--S-2">
        <g id="Knob3">
          <circle cx="2220.09" cy="5860.91" r="62.5" fill="#fff"/>
          <path fill="#18191b" d="M2220.09 5781.74c-43.693 0-79.166 35.473-79.166 79.167 0 43.693 35.473 79.166 79.166 79.166 43.694 0 79.167-35.473 79.167-79.166 0-43.694-35.473-79.167-79.167-79.167Zm0 16.667c34.495 0 62.5 28.005 62.5 62.5 0 34.494-28.005 62.5-62.5 62.5-34.494 0-62.5-28.006-62.5-62.5 0-34.495 28.006-62.5 62.5-62.5Z"/>
          <path fill="none" stroke="#18191b" stroke-width="16.67" d="M2220.09 5798.41v62.5"/>
        </g>
        <clipPath id="_clip4">
          <path id="Ticks3" d="M2328.99 5937.16a132.937 132.937 0 0 0 24.042-76.252c0-73.373-59.569-132.942-132.942-132.942-73.372 0-132.942 59.569-132.942 132.942 0 27.282 8.394 53.904 24.043 76.252l54.45-38.126a66.466 66.466 0 0 1-12.022-38.126c0-36.687 29.785-66.471 66.471-66.471 36.687 0 66.471 29.784 66.471 66.471a66.465 66.465 0 0 1-12.021 38.126l54.45 38.126Z"/>
        </clipPath>
        <g clip-path="url(#_clip4)">
          <path fill="none" stroke="#18191b" stroke-width="8.33" d="M2220.09 5756.74v10.417m-39.862-2.488 3.986 9.624m-37.78 12.957 7.365 7.365m-29.946 26.429 9.624 3.986m-17.553 35.877h10.416m-2.487 39.863 9.624-3.987m12.957 37.781 7.365-7.366m26.429 29.946 3.986-9.624m35.876 17.553v-10.416m39.863 2.487-3.986-9.624m37.78-12.956-7.365-7.366m29.946-26.428-9.624-3.987m17.553-35.876h-10.417m2.488-39.863-9.624 3.986m-12.957-37.78-7.365 7.365m-26.429-29.946-3.986 9.624"/>
        </g>
      </g>
      <path fill="#18191b" d="M375 6991.8a133.337 133.337 0 0 1-133.333 133.334H175A133.334 133.334 0 0 1 41.667 6991.8v-150A133.333 133.333 0 0 1 175 6708.467h66.667a133.337 133.337 0 0 1 94.281 39.052A133.337 133.337 0 0 1 375 6841.8v150Zm0 733.33a133.337 133.337 0 0 1-39.052 94.281 133.337 133.337 0 0 1-94.281 39.052H175A133.333 133.333 0 0 1 41.667 7725.13v-275A133.331 133.331 0 0 1 175 7316.796h66.667A133.334 133.334 0 0 1 375 7450.13v275Zm0 583.34a133.333 133.333 0 0 1-133.333 133.333H175A133.333 133.333 0 0 1 41.667 8308.47v-275A133.333 133.333 0 0 1 175 7900.137h66.667A133.333 133.333 0 0 1 375 8033.47v275Z"/>
      <path fill="#ffba4a" d="M5333.33 8858.47a99.999 99.999 0 0 1-100 100H225a100.003 100.003 0 0 1-100-100V6225.14c0-55.229 44.772-100 100-100h3750c55.228 0 100 44.771 100 100v649.868a166.667 166.667 0 0 0 166.667 166.667h991.666a99.999 99.999 0 0 1 100 100v1716.8Z"/>
      <path id="Info-Inset-Panel" fill="#d59b3e" d="M208.333 7158.47a33.332 33.332 0 0 1 33.334-33.333h4975A33.33 33.33 0 0 1 5250 7158.47V8591.8a33.337 33.337 0 0 1-33.333 33.334h-4975a33.337 33.337 0 0 1-33.334-33.334V7158.47Z"/>
      <g id="Category-Group">
        <path fill="#494b50" d="M5166.67 7950.13c0-18.41-14.924-33.334-33.334-33.334h-4025c-18.409 0-33.333 14.924-33.333 33.334v433.333c0 18.409 14.924 33.333 33.333 33.333h4025c18.41 0 33.334-14.924 33.334-33.333V7950.13Z"/>
        <path fill="#a9ebdd" d="M5125 7991.8c0-18.409-14.924-33.333-33.333-33.333h-3941.67c-18.409 0-33.333 14.924-33.333 33.333v350c0 18.41 14.924 33.334 33.333 33.334h3941.67c18.409 0 33.333-14.924 33.333-33.334v-350Z"/>
        <g id="Decorations">
          <text id="Label" x="328.1" y="8016.8" fill="#494b50" font-family="Karnivore" font-size="100">CATEGORY</text>
          <g id="Knob--L-">
            <g id="Knob4">
              <circle cx="783.333" cy="8257.28" r="104.167" fill="#f2f2f2"/>
              <path fill="#18191b" d="M783.333 8128.11c-71.289 0-129.166 57.877-129.166 129.166 0 71.29 57.877 129.167 129.166 129.167 71.289 0 129.167-57.877 129.167-129.167 0-71.289-57.878-129.166-129.167-129.166Zm0 25c57.491 0 104.167 46.675 104.167 104.166 0 57.492-46.676 104.167-104.167 104.167s-104.166-46.675-104.166-104.167c0-57.491 46.675-104.166 104.166-104.166Z"/>
              <path fill="none" stroke="#18191b" stroke-width="33.33" d="M783.333 8153.11v104.166"/>
            </g>
            <clipPath id="_clip5">
              <path id="Ticks4" d="M901.184 8375.13A166.665 166.665 0 0 0 950 8257.278c0-91.985-74.681-166.666-166.667-166.666s-166.666 74.681-166.666 166.666a166.668 166.668 0 0 0 48.815 117.852l58.926-58.926A83.334 83.334 0 0 1 700 8257.278c0-45.992 37.34-83.333 83.333-83.333 45.993 0 83.334 37.341 83.334 83.333a83.334 83.334 0 0 1-24.408 58.926l58.925 58.926Z"/>
            </clipPath>
            <g clip-path="url(#_clip5)">
              <path fill="none" stroke="#18191b" stroke-width="8.33" d="M783.333 8098.95v15.833m-48.927-8.083 4.892 15.058m-49.031 7.431 9.307 12.81m-44.335 22.218 12.809 9.307m-35.299 34.832 15.059 4.893M625 8257.283h15.833m-8.084 48.928 15.059-4.893m7.431 49.031 12.809-9.306m22.219 44.335 9.307-12.81m34.832 35.299 4.892-15.058m44.035 22.808v-15.834m48.928 8.084-4.893-15.058m49.031-7.431-9.306-12.81m44.335-22.219-12.81-9.306m35.299-34.832-15.058-4.893m22.808-44.035h-15.834m8.084-48.927-15.058 4.893m-7.431-49.032-12.81 9.307m-22.219-44.335-9.306 12.81m-34.832-35.299-4.893 15.058"/>
            </g>
          </g>
          <path d="M550 8215.61a33.332 33.332 0 0 0-33.333-33.334h-83.334A33.33 33.33 0 0 0 400 8215.61v83.333a33.332 33.332 0 0 0 33.333 33.333h83.334A33.332 33.332 0 0 0 550 8298.943v-83.333Z"/>
          <path fill="#b5000f" d="M550 8207.28a33.335 33.335 0 0 0-33.333-33.334h-83.334A33.334 33.334 0 0 0 400 8207.28v83.333a33.334 33.334 0 0 0 33.333 33.333h83.334A33.334 33.334 0 0 0 550 8290.613v-83.333Z"/>
        </g>
      </g>
      <g id="Game-Title-Group">
        <path fill="#494b50" d="M5166.67 7366.8c0-18.409-14.924-33.333-33.334-33.333h-4025c-18.409 0-33.333 14.924-33.333 33.333v433.334c0 18.409 14.924 33.333 33.333 33.333h4025c18.41 0 33.334-14.924 33.334-33.333V7366.8Z"/>
        <path fill="#a9ebdd" d="M5125 7408.47c0-18.41-14.924-33.333-33.333-33.333h-3941.67c-18.409 0-33.333 14.923-33.333 33.333v350c0 18.409 14.924 33.333 33.333 33.333h3941.67c18.409 0 33.333-14.924 33.333-33.333v-350Z"/>
        <g id="Decorations1">
          <text id="Label1" x="307.2" y="7433.47" fill="#494b50" font-family="Karnivore" font-size="100">GAME TITLE</text>
          <g id="Knob--L-1">
            <g id="Knob5">
              <circle cx="783.333" cy="7673.95" r="104.167" fill="#f2f2f2"/>
              <path fill="#18191b" d="M783.333 7544.78c-71.289 0-129.166 57.878-129.166 129.167s57.877 129.167 129.166 129.167c71.289 0 129.167-57.878 129.167-129.167s-57.878-129.167-129.167-129.167Zm0 25c57.491 0 104.167 46.676 104.167 104.167s-46.676 104.167-104.167 104.167-104.166-46.676-104.166-104.167 46.675-104.167 104.166-104.167Z"/>
              <path fill="none" stroke="#18191b" stroke-width="33.33" d="M783.333 7569.78v104.167"/>
            </g>
            <clipPath id="_clip6">
              <path id="Ticks5" d="M901.184 7791.8A166.662 166.662 0 0 0 950 7673.949c0-91.986-74.681-166.667-166.667-166.667s-166.666 74.681-166.666 166.667a166.666 166.666 0 0 0 48.815 117.851l58.926-58.925A83.334 83.334 0 0 1 700 7673.949c0-45.993 37.34-83.333 83.333-83.333 45.993 0 83.334 37.34 83.334 83.333a83.334 83.334 0 0 1-24.408 58.926l58.925 58.925Z"/>
            </clipPath>
            <g clip-path="url(#_clip6)">
              <path fill="none" stroke="#18191b" stroke-width="8.33" d="M783.333 7515.61v15.833m-48.927-8.084 4.892 15.059m-49.031 7.431 9.307 12.809m-44.335 22.219 12.809 9.307m-35.299 34.831 15.059 4.893M625 7673.943h15.833m-8.084 48.928 15.059-4.893m7.431 49.031 12.809-9.306m22.219 44.335 9.307-12.81m34.832 35.299 4.892-15.058m44.035 22.807v-15.833m48.928 8.084-4.893-15.058m49.031-7.431-9.306-12.81m44.335-22.219-12.81-9.306m35.299-34.832-15.058-4.893m22.808-44.035h-15.834m8.084-48.928-15.058 4.893m-7.431-49.031-12.81 9.307m-22.219-44.335-9.306 12.809m-34.832-35.299-4.893 15.059"/>
            </g>
          </g>
          <path d="M550 7632.28a33.335 33.335 0 0 0-33.333-33.334h-83.334A33.334 33.334 0 0 0 400 7632.28v83.333a33.334 33.334 0 0 0 33.333 33.333h83.334A33.334 33.334 0 0 0 550 7715.613v-83.333Z"/>
          <path fill="#b5000f" d="M550 7623.95a33.334 33.334 0 0 0-33.333-33.333h-83.334A33.334 33.334 0 0 0 400 7623.95v83.333a33.337 33.337 0 0 0 33.333 33.334h83.334A33.334 33.334 0 0 0 550 7707.283v-83.333Z"/>
        </g>
      </g>
      <g id="Title-Group" fill="#494b50" font-family="Karnivore" font-size="100">
        <text id="Year-Label" x="3531.2" y="7058.47">YEAR</text>
        <text id="Platform-Label" x="2543.02" y="7058.47">PLATFORM</text>
        <text id="Timer-Label" x="924.633" y="7058.47">MAIN CLOCK</text>
      </g>
      <path id="LCD" fill="#440722" d="M3991.67 6241.8c0-18.409-14.924-33.333-33.334-33.333H241.666c-18.41 0-33.334 14.924-33.334 33.333v683.334c0 18.409 14.924 33.333 33.334 33.333h3716.67c18.41 0 33.334-14.924 33.334-33.333V6241.8Z"/>
    </g>
    <g id="Camera-Panel">
      <path fill="#92caff" d="M4033.33 333.333a166.667 166.667 0 0 0-166.666-166.666H333.334a166.667 166.667 0 0 0-166.666 166.666v3025c0 92.048 74.619 166.667 166.666 166.667h458.334c92.047 0 166.666 74.619 166.666 166.667v125.06c0 92.048 74.62 166.667 166.667 166.667h2741.67c92.047 0 166.666-74.619 166.666-166.667V333.337Z"/>
      <path fill="#5daeff" d="M4116.67 208.333a166.668 166.668 0 0 0-166.667-166.666H208.333A166.667 166.667 0 0 0 41.667 208.333v3066.67a166.666 166.666 0 0 0 166.666 166.667h3533.33c92.047 0 166.666-74.62 166.666-166.667V2421.36a83.335 83.335 0 0 1 83.334-83.333h41.666a83.334 83.334 0 0 0 83.334-83.334V208.333Z"/>
      <path id="Name-Panel" fill="#18191b" d="M3950 3550.06a150.004 150.004 0 0 0-150-150H1125a83.333 83.333 0 0 0-83.333 83.334v266.666a149.996 149.996 0 0 0 150 150h2608.33a149.998 149.998 0 0 0 150-150v-200Z"/>
      <path id="Pronouns-Panel" fill="#ef5b5b" d="M3975 3133.27a150 150 0 0 0-150-150H2266.67a50.001 50.001 0 0 0-50 50v133.333a149.996 149.996 0 0 0 150 150H3925a50 50 0 0 0 50-50V3133.27Z"/>
      <g id="Decorations2">
        <path fill="#305780" fill-rule="nonzero" d="M3887.5 2165.38v66.221c0 13.117 15.857 19.68 25.13 10.407l137.231-137.231a14.704 14.704 0 0 0 4.306-10.407v-66.221c0-13.117-15.857-19.68-25.13-10.407l-137.221 137.231a14.712 14.712 0 0 0-4.316 10.407Zm0-152.928v66.222c0 13.116 15.857 19.679 25.13 10.406l137.231-137.231a14.702 14.702 0 0 0 4.306-10.407v-66.221c0-13.116-15.857-19.68-25.13-10.407l-137.221 137.231a14.714 14.714 0 0 0-4.316 10.407Zm0-152.928v66.222c0 13.116 15.857 19.679 25.13 10.407l137.231-137.232a14.702 14.702 0 0 0 4.306-10.407v-66.221c0-13.116-15.857-19.68-25.13-10.407l-137.221 137.232a14.71 14.71 0 0 0-4.316 10.406Zm0-152.928v66.221c0 13.116 15.857 19.68 25.13 10.407l137.231-137.232a14.7 14.7 0 0 0 4.306-10.406v-66.222c0-13.116-15.857-19.679-25.13-10.407l-137.221 137.232a14.712 14.712 0 0 0-4.316 10.407Zm0-152.928v66.221c0 13.116 15.857 19.68 25.13 10.407l137.231-137.231a14.704 14.704 0 0 0 4.306-10.407v-66.222c0-13.116-15.857-19.679-25.13-10.406l-137.221 137.231a14.712 14.712 0 0 0-4.316 10.407Zm0-152.929v66.221c0 13.117 15.857 19.68 25.13 10.407l137.231-137.231a14.704 14.704 0 0 0 4.306-10.407v-66.221c0-13.117-15.857-19.68-25.13-10.407l-137.221 137.231a14.714 14.714 0 0 0-4.316 10.407Zm0-152.929v66.222c0 13.116 15.857 19.679 25.13 10.406l137.231-137.231a14.702 14.702 0 0 0 4.306-10.407v-66.221c0-13.116-15.857-19.68-25.13-10.407l-137.221 137.231a14.714 14.714 0 0 0-4.316 10.407Z"/>
        <path fill="#305780" fill-rule="nonzero" d="M3887.5 1248.72v66.222c0 13.116 15.857 19.679 25.13 10.407l137.231-137.232a14.702 14.702 0 0 0 4.306-10.407v-66.221c0-13.116-15.857-19.68-25.13-10.407l-137.221 137.231a14.714 14.714 0 0 0-4.316 10.407Zm0-152.927v66.221c0 13.116 15.857 19.679 25.13 10.407l137.231-137.232a14.702 14.702 0 0 0 4.306-10.406v-66.222c0-13.116-15.857-19.679-25.13-10.407l-137.221 137.232a14.712 14.712 0 0 0-4.316 10.407Zm0-152.928v66.221c0 13.116 15.857 19.68 25.13 10.407l137.231-137.231a14.704 14.704 0 0 0 4.306-10.407v-66.222c0-13.116-15.857-19.679-25.13-10.407l-137.221 137.232a14.712 14.712 0 0 0-4.316 10.407Zm0-152.929v66.221c0 13.117 15.857 19.68 25.13 10.407l137.231-137.231a14.704 14.704 0 0 0 4.306-10.407v-66.222c0-13.116-15.857-19.679-25.13-10.406l-137.221 137.231a14.712 14.712 0 0 0-4.316 10.407Zm0-152.928v66.222c0 13.116 15.857 19.679 25.13 10.406l137.231-137.231a14.702 14.702 0 0 0 4.306-10.407v-66.221c0-13.116-15.857-19.68-25.13-10.407l-137.221 137.231a14.714 14.714 0 0 0-4.316 10.407Zm0-152.929v66.222c0 13.116 15.857 19.679 25.13 10.407l137.231-137.232a14.702 14.702 0 0 0 4.306-10.407v-66.221c0-13.116-15.857-19.68-25.13-10.407l-137.221 137.232a14.71 14.71 0 0 0-4.316 10.406Zm0-152.928v66.221c0 13.116 15.857 19.679 25.13 10.407l137.231-137.232a14.702 14.702 0 0 0 4.306-10.407v-66.221c0-13.116-15.857-19.679-25.13-10.407l-137.221 137.232a14.712 14.712 0 0 0-4.316 10.407Z"/>
        <text x="216.667" y="3412.5" font-family="Fusion" font-size="82.249">CAM 1</text>
      </g>
      <path id="Camera-Frame" fill="#f0f" d="M3825 208.333c0-46.023-37.31-83.333-83.333-83.333H208.337c-46.023 0-83.333 37.31-83.333 83.333v3025a83.334 83.334 0 0 0 83.333 83.334h1883.33c46.023 0 83.333-37.31 83.333-83.334V3024.94a83.334 83.334 0 0 1 83.333-83.334h1483.33a83.333 83.333 0 0 0 83.333-83.333V208.333Z"/>
      <path fill="#23282d" d="M3825 208.333c0-46.023-37.31-83.333-83.333-83.333H208.337c-46.023 0-83.333 37.31-83.333 83.333v3025a83.334 83.334 0 0 0 83.333 83.334h1883.33c46.023 0 83.333-37.31 83.333-83.334V3024.94a83.334 83.334 0 0 1 83.333-83.334h1483.33a83.333 83.333 0 0 0 83.333-83.333V208.333Zm-16.667 0v2649.94a66.663 66.663 0 0 1-66.666 66.667h-1483.33a99.997 99.997 0 0 0-100 100v208.393c0 36.819-29.847 66.667-66.666 66.667H208.341a66.667 66.667 0 0 1-66.666-66.667v-3025c0-36.819 29.847-66.666 66.666-66.666h3533.33c36.82 0 66.667 29.847 66.667 66.666Z"/>
    </g>
    <g id="Commentator-Group">
      <g id="Commentator-2">
        <path id="Bar-2" fill="#18191b" d="M2512.35 4583.33H1050c-55.228 0-100 44.772-100 100v133.334c0 55.228 44.772 100 100 100h1462.35V4583.33Z"/>
        <path id="Panel-2" fill="#5daeff" d="M3989.11 4747.03a100.005 100.005 0 0 0 33.416-74.57l.012-30.697a100.002 100.002 0 0 0-100-100.039h-2497.54a100.003 100.003 0 0 0-100 100v216.667a100 100 0 0 0 100 100h2289.14a100 100 0 0 0 66.584-25.391l208.384-185.97Z"/>
      </g>
      <g id="Commentator-1">
        <path id="Bar-1" fill="#18191b" d="M2512.35 4083.28H1050c-55.228 0-100 44.771-100 100v133.333c0 55.229 44.772 100 100 100h1462.35V4083.28Z"/>
        <path id="Panel-1" fill="#5daeff" d="M3989.11 4246.97a100.005 100.005 0 0 0 33.416-74.57l.012-30.696a100 100 0 0 0-100-100.039h-2497.54a99.999 99.999 0 0 0-100 100v216.666a100.003 100.003 0 0 0 100 100h2289.14c24.559 0 48.26-9.038 66.584-25.39l208.384-185.971Z"/>
      </g>
    </g>
    <path id="Screen" fill="#f0f" d="M15925 491.667a166.662 166.662 0 0 0-48.816-117.851A166.662 166.662 0 0 0 15758.333 325h-11400a166.664 166.664 0 0 0-166.666 166.667v6266.67a166.666 166.666 0 0 0 166.666 166.667h11400a166.662 166.662 0 0 0 117.851-48.816 166.662 166.662 0 0 0 48.816-117.851V491.667Z"/>
    <path fill="#f2f2f2" d="M15958.3 491.667a200.002 200.002 0 0 0-58.578-141.422 200.002 200.002 0 0 0-141.422-58.578h-11400a200 200 0 0 0-200 200v6266.67a200.003 200.003 0 0 0 200 200h11400a200.002 200.002 0 0 0 141.422-58.578 200.002 200.002 0 0 0 58.578-141.422V491.667Zm-33.333 0a166.662 166.662 0 0 0-48.816-117.851A166.662 166.662 0 0 0 15758.3 325h-11400a166.664 166.664 0 0 0-166.666 166.667v6266.67a166.666 166.666 0 0 0 166.666 166.667h11400a166.662 166.662 0 0 0 117.851-48.816 166.662 166.662 0 0 0 48.816-117.851V491.667Z"/>
  </g>
</svg>
