<svg xmlns="http://www.w3.org/2000/svg" xml:space="preserve" fill-rule="evenodd" stroke-linecap="round" stroke-linejoin="round" stroke-miterlimit="1.5" clip-rule="evenodd" viewBox="0 0 10667 6000">
  <g id="_1p-backgrounds">
    <path id="full-background" fill="#e2e2e4" d="M0 0H10666.7V6000H0z"/>
    <path id="lower-background" fill="#1a2336" d="M0 3416.67H10666.7V6000H0z"/>
    <g id="Glyphs">
      <g id="Top---bottom">
        <path fill="none" stroke="#e2e2e4" stroke-width="31.75" d="M1258.91,2742.35l16.437,39.682"/>
        <path fill="none" stroke="#e2e2e4" stroke-width="31.75" d="M1275.34,2901.08l-16.437,39.683"/>
        <path fill="none" stroke="#e2e2e4" stroke-width="31.75" d="M1324.66,2901.08l16.437,39.683"/>
        <path fill="none" stroke="#e2e2e4" stroke-width="31.75" d="M1324.66,2782.03l16.437,-39.682"/>
        <path id="Ring" fill="#e2e2e4" d="M1300,2674.89c91.986,-0 166.667,74.68 166.667,166.666c-0,91.986 -74.681,166.667 -166.667,166.667c-91.986,-0 -166.667,-74.681 -166.667,-166.667c0,-91.986 74.681,-166.666 166.667,-166.666Zm0,31.746c74.465,-0 134.921,60.455 134.921,134.92c-0,74.465 -60.456,134.921 -134.921,134.921c-74.465,-0 -134.921,-60.456 -134.921,-134.921c0,-74.465 60.456,-134.92 134.921,-134.92Z"/>
      </g>
      <g id="Screwhead">
        <path fill="none" stroke="#e2e2e4" stroke-width="31.75" d="M1650.57,2742.35l16.437,39.682"/>
        <path fill="none" stroke="#e2e2e4" stroke-width="31.75" d="M1632.14,2866.21l-39.683,16.437"/>
        <path fill="none" stroke="#e2e2e4" stroke-width="31.75" d="M1716.32,2901.08l16.437,39.683"/>
        <path fill="none" stroke="#e2e2e4" stroke-width="31.75" d="M1751.19,2816.9l39.683,-16.437"/>
        <path fill="none" stroke="#e2e2e4" stroke-width="31.75" d="M1650.57,2940.76l82.185,-198.413"/>
        <path id="Ring1" fill="#e2e2e4" d="M1691.67,2674.89c91.986,-0 166.666,74.68 166.666,166.666c0,91.986 -74.68,166.667 -166.666,166.667c-91.986,-0 -166.667,-74.681 -166.667,-166.667c0,-91.986 74.681,-166.666 166.667,-166.666Zm-0,31.746c74.464,-0 134.92,60.455 134.92,134.92c0,74.465 -60.456,134.921 -134.92,134.921c-74.465,-0 -134.921,-60.456 -134.921,-134.921c0,-74.465 60.456,-134.92 134.921,-134.92Z"/>
      </g>
      <g id="left---right">
        <path fill="none" stroke="#e2e2e4" stroke-width="31.75" d="M1984.13,2882.65l39.683,-16.437"/>
        <path fill="none" stroke="#e2e2e4" stroke-width="31.75" d="M2142.86,2866.21l39.683,16.437"/>
        <path fill="none" stroke="#e2e2e4" stroke-width="31.75" d="M2142.86,2816.9l39.683,-16.437"/>
        <path fill="none" stroke="#e2e2e4" stroke-width="31.75" d="M2023.81,2816.9l-39.683,-16.437"/>
        <path id="Ring2" fill="#e2e2e4" d="M1916.67,2841.56c-0,-91.986 74.68,-166.666 166.666,-166.666c91.986,-0 166.667,74.68 166.667,166.666c0,91.986 -74.681,166.667 -166.667,166.667c-91.986,-0 -166.666,-74.681 -166.666,-166.667Zm31.746,0c-0,-74.465 60.456,-134.92 134.92,-134.92c74.465,-0 134.921,60.455 134.921,134.92c-0,74.465 -60.456,134.921 -134.921,134.921c-74.464,-0 -134.92,-60.456 -134.92,-134.921Z"/>
      </g>
      <g id="Loading-7">
        <path fill="none" stroke="#e2e2e4" stroke-width="31.75" d="M2023.81,2425.24l-39.683,-16.437"/>
        <path fill="none" stroke="#e2e2e4" stroke-width="31.75" d="M2023.81,2474.55l-39.683,16.437"/>
        <path fill="none" stroke="#e2e2e4" stroke-width="31.75" d="M2058.68,2509.41l-16.437,39.683"/>
        <path fill="none" stroke="#e2e2e4" stroke-width="31.75" d="M2107.99,2509.41l16.437,39.683"/>
        <path fill="none" stroke="#e2e2e4" stroke-width="31.75" d="M2142.86,2474.55l39.683,16.437"/>
        <path fill="none" stroke="#e2e2e4" stroke-width="31.75" d="M2142.86,2425.24l39.683,-16.437"/>
        <path fill="none" stroke="#e2e2e4" stroke-width="31.75" d="M2107.99,2390.37l16.437,-39.683"/>
        <path id="Ring3" fill="#e2e2e4" d="M2083.33,2283.22c91.986,-0 166.667,74.681 166.667,166.667c0,91.985 -74.681,166.666 -166.667,166.666c-91.986,0 -166.666,-74.681 -166.666,-166.666c-0,-91.986 74.68,-166.667 166.666,-166.667Zm0,31.746c74.465,-0 134.921,60.456 134.921,134.921c-0,74.464 -60.456,134.92 -134.921,134.92c-74.464,0 -134.92,-60.456 -134.92,-134.92c-0,-74.465 60.456,-134.921 134.92,-134.921Z"/>
      </g>
      <g id="Aperture">
        <path fill="none" stroke="#e2e2e4" stroke-width="31.75" d="M1650.57,2350.68l-17.941,58.072"/>
        <path fill="none" stroke="#e2e2e4" stroke-width="31.75" d="M1620.84,2462.55l-28.377,-53.749"/>
        <path fill="none" stroke="#e2e2e4" stroke-width="31.75" d="M1650.53,2508.92l-58.072,-17.941"/>
        <path fill="none" stroke="#e2e2e4" stroke-width="31.75" d="M1704.32,2520.72l-53.749,28.377"/>
        <path fill="none" stroke="#e2e2e4" stroke-width="31.75" d="M1750.7,2491.03l-17.941,58.072"/>
        <path fill="none" stroke="#e2e2e4" stroke-width="31.75" d="M1762.5,2437.23l28.377,53.749"/>
        <path fill="none" stroke="#e2e2e4" stroke-width="31.75" d="M1732.8,2390.86l58.072,17.941"/>
        <path fill="none" stroke="#e2e2e4" stroke-width="31.75" d="M1679.01,2379.06l53.749,-28.377"/>
        <path id="Ring4" fill="#e2e2e4" d="M1691.67,2283.22c91.986,-0 166.666,74.681 166.666,166.667c0,91.985 -74.68,166.666 -166.666,166.666c-91.986,0 -166.667,-74.681 -166.667,-166.666c0,-91.986 74.681,-166.667 166.667,-166.667Zm-0,31.746c74.464,-0 134.92,60.456 134.92,134.921c0,74.464 -60.456,134.92 -134.92,134.92c-74.465,0 -134.921,-60.456 -134.921,-134.92c0,-74.465 60.456,-134.921 134.921,-134.921Z"/>
      </g>
    </g>
  </g>
  <g id="header-race">
    <g id="header_left">
      <path fill="#ea7d30" d="M2941.67,50l-2691.67,-0l0,233.333l2587.5,0l104.167,-104.166l-0,-129.167Z"/>
      <g id="Carets" fill="#e2e2e4" fill-rule="nonzero">
        <path d="M2603.92,95.033c-14.6,0 -21.913,17.654 -11.588,27.979l32.063,32.067c6.404,6.4 6.404,16.775 -0,23.175l-32.063,32.067c-10.325,10.325 -3.012,27.979 11.588,27.979c4.346,-0 8.517,-1.725 11.587,-4.8l55.246,-55.246c6.4,-6.4 6.4,-16.775 0,-23.175l-55.246,-55.246c-3.07,-3.075 -7.241,-4.8 -11.587,-4.8"/>
        <path d="M2693.9,95.033c-14.6,0 -21.913,17.654 -11.588,27.979l32.063,32.067c6.404,6.4 6.404,16.775 -0,23.175l-32.063,32.067c-10.325,10.325 -3.012,27.979 11.588,27.979c4.345,-0 8.516,-1.725 11.587,-4.8l55.246,-55.246c6.4,-6.4 6.4,-16.775 -0,-23.175l-55.246,-55.246c-3.071,-3.075 -7.242,-4.8 -11.587,-4.8"/>
      </g>
      <g id="Carets1" fill="#e2e2e4" fill-rule="nonzero">
        <path d="M316.421,95.033c-14.6,0 -21.913,17.654 -11.588,27.979l32.063,32.067c6.404,6.4 6.404,16.775 -0,23.175l-32.063,32.067c-10.325,10.325 -3.012,27.979 11.588,27.979c4.346,-0 8.517,-1.725 11.587,-4.8l55.246,-55.246c6.4,-6.4 6.4,-16.775 0,-23.175l-55.246,-55.246c-3.07,-3.075 -7.241,-4.8 -11.587,-4.8"/>
        <path d="M406.403,95.033c-14.6,0 -21.913,17.654 -11.588,27.979l32.063,32.067c6.404,6.4 6.404,16.775 -0,23.175l-32.063,32.067c-10.325,10.325 -3.012,27.979 11.588,27.979c4.345,-0 8.516,-1.725 11.587,-4.8l55.246,-55.246c6.4,-6.4 6.4,-16.775 -0,-23.175l-55.246,-55.246c-3.071,-3.075 -7.242,-4.8 -11.587,-4.8"/>
      </g>
      <g id="JP-Text">
        <text x="1727.08" y="161.25" fill="#e2e2e4" font-family="'DelaGothicOne-Regular', 'Dela Gothic One'" font-size="125">スピードラン</text>
        <path fill="none" d="M1716.67 175H2487.503V283.333H1716.67z"/>
        <clipPath id="_clip1">
          <path d="M1716.67 175H2487.503V283.333H1716.67z"/>
        </clipPath>
        <g clip-path="url(#_clip1)">
          <g id="Hatching" fill="#e2e2e4">
            <path d="M1749.02,129.659l-7.216,-4.166l-116.667,202.072l7.217,4.167l116.666,-202.073Z"/>
            <path d="M1765.68,129.659l-7.217,-4.166l-116.666,202.072l7.216,4.167l116.667,-202.073Z"/>
            <path d="M1782.35,129.659l-7.217,-4.166l-116.667,202.072l7.217,4.167l116.667,-202.073Z"/>
            <path d="M1799.02,129.659l-7.216,-4.166l-116.667,202.072l7.217,4.167l116.666,-202.073Z"/>
            <path d="M1815.68,129.659l-7.217,-4.166l-116.666,202.072l7.216,4.167l116.667,-202.073Z"/>
            <path d="M1832.35,129.659l-7.217,-4.166l-116.667,202.072l7.217,4.167l116.667,-202.073Z"/>
            <path d="M1849.02,129.659l-7.216,-4.166l-116.667,202.072l7.217,4.167l116.666,-202.073Z"/>
            <path d="M1865.68,129.659l-7.217,-4.166l-116.666,202.072l7.216,4.167l116.667,-202.073Z"/>
            <path d="M1882.35,129.659l-7.217,-4.166l-116.667,202.072l7.217,4.167l116.667,-202.073Z"/>
            <path d="M1899.02,129.659l-7.216,-4.166l-116.667,202.072l7.217,4.167l116.666,-202.073Z"/>
            <path d="M1915.68,129.659l-7.217,-4.166l-116.666,202.072l7.216,4.167l116.667,-202.073Z"/>
            <path d="M1932.35,129.659l-7.217,-4.166l-116.667,202.072l7.217,4.167l116.667,-202.073Z"/>
            <path d="M1949.02,129.659l-7.216,-4.166l-116.667,202.072l7.217,4.167l116.666,-202.073Z"/>
            <path d="M1965.68,129.659l-7.217,-4.166l-116.666,202.072l7.216,4.167l116.667,-202.073Z"/>
            <path d="M1982.35,129.659l-7.217,-4.166l-116.667,202.072l7.217,4.167l116.667,-202.073Z"/>
            <path d="M1999.02,129.659l-7.216,-4.166l-116.667,202.072l7.217,4.167l116.666,-202.073Z"/>
            <path d="M2015.68,129.659l-7.217,-4.166l-116.666,202.072l7.216,4.167l116.667,-202.073Z"/>
            <path d="M2032.35,129.659l-7.217,-4.166l-116.667,202.072l7.217,4.167l116.667,-202.073Z"/>
            <path d="M2049.01,129.659l-7.216,-4.166l-116.667,202.072l7.217,4.167l116.666,-202.073Z"/>
            <path d="M2065.68,129.659l-7.217,-4.166l-116.666,202.072l7.216,4.167l116.667,-202.073Z"/>
            <path d="M2082.35,129.659l-7.217,-4.166l-116.667,202.072l7.217,4.167l116.667,-202.073Z"/>
            <path d="M2099.01,129.659l-7.216,-4.166l-116.667,202.072l7.217,4.167l116.666,-202.073Z"/>
            <path d="M2115.68,129.659l-7.217,-4.166l-116.666,202.072l7.216,4.167l116.667,-202.073Z"/>
            <path d="M2132.35,129.659l-7.217,-4.166l-116.667,202.072l7.217,4.167l116.667,-202.073Z"/>
            <path d="M2149.01,129.659l-7.216,-4.166l-116.667,202.072l7.217,4.167l116.666,-202.073Z"/>
            <path d="M2165.68,129.659l-7.217,-4.166l-116.666,202.072l7.216,4.167l116.667,-202.073Z"/>
            <path d="M2182.35,129.659l-7.217,-4.166l-116.667,202.072l7.217,4.167l116.667,-202.073Z"/>
            <path d="M2199.01,129.659l-7.216,-4.166l-116.667,202.072l7.217,4.167l116.666,-202.073Z"/>
            <path d="M2215.68,129.659l-7.217,-4.166l-116.666,202.072l7.216,4.167l116.667,-202.073Z"/>
            <path d="M2232.35,129.659l-7.217,-4.166l-116.667,202.072l7.217,4.167l116.667,-202.073Z"/>
            <path d="M2249.01,129.659l-7.216,-4.166l-116.667,202.072l7.217,4.167l116.666,-202.073Z"/>
            <path d="M2265.68,129.659l-7.217,-4.166l-116.666,202.072l7.216,4.167l116.667,-202.073Z"/>
            <path d="M2282.35,129.659l-7.217,-4.166l-116.667,202.072l7.217,4.167l116.667,-202.073Z"/>
            <path d="M2299.01,129.659l-7.216,-4.166l-116.667,202.072l7.217,4.167l116.666,-202.073Z"/>
            <path d="M2315.68,129.659l-7.217,-4.166l-116.666,202.072l7.216,4.167l116.667,-202.073Z"/>
            <path d="M2332.35,129.659l-7.217,-4.166l-116.667,202.072l7.217,4.167l116.667,-202.073Z"/>
            <path d="M2349.01,129.659l-7.216,-4.166l-116.667,202.072l7.217,4.167l116.666,-202.073Z"/>
            <path d="M2365.68,129.659l-7.217,-4.166l-116.666,202.072l7.216,4.167l116.667,-202.073Z"/>
            <path d="M2382.35,129.659l-7.217,-4.166l-116.667,202.072l7.217,4.167l116.667,-202.073Z"/>
            <path d="M2399.01,129.659l-7.216,-4.166l-116.667,202.072l7.217,4.167l116.666,-202.073Z"/>
            <path d="M2415.68,129.659l-7.217,-4.166l-116.666,202.072l7.216,4.167l116.667,-202.073Z"/>
            <path d="M2432.35,129.659l-7.217,-4.166l-116.667,202.072l7.217,4.167l116.667,-202.073Z"/>
            <path d="M2449.01,129.659l-7.216,-4.166l-116.667,202.072l7.217,4.167l116.666,-202.073Z"/>
            <path d="M2465.68,129.659l-7.217,-4.166l-116.666,202.072l7.216,4.167l116.667,-202.073Z"/>
            <path d="M2482.35,129.659l-7.217,-4.166l-116.667,202.072l7.217,4.167l116.667,-202.073Z"/>
            <path d="M2499.01,129.659l-7.216,-4.166l-116.667,202.072l7.217,4.167l116.666,-202.073Z"/>
            <path d="M2515.68,129.659l-7.217,-4.166l-116.666,202.072l7.216,4.167l116.667,-202.073Z"/>
            <path d="M2532.35,129.659l-7.217,-4.166l-116.667,202.072l7.217,4.167l116.667,-202.073Z"/>
            <path d="M2549.01,129.659l-7.216,-4.166l-116.667,202.072l7.217,4.167l116.666,-202.073Z"/>
            <path d="M2565.68,129.659l-7.217,-4.166l-116.666,202.072l7.216,4.167l116.667,-202.073Z"/>
            <path d="M2582.35,129.659l-7.217,-4.166l-116.667,202.072l7.217,4.167l116.667,-202.073Z"/>
          </g>
        </g>
      </g>
      <text x="600.383" y="283.183" fill="#e2e2e4" font-family="Fusion" font-size="287.5">LCNS</text>
    </g>
    <g id="header_right">
      <path fill="#ea7d30" d="M2966.67 50H10425V179.167H2966.67z"/>
      <g id="Barcode" fill="#e2e2e4">
        <path d="M7848.71 50H7873.71V179.167H7848.71z"/>
        <path d="M7891.67 50H7916.67V179.167H7891.67z"/>
        <path d="M7983.33 50H8029.163V179.167H7983.33z"/>
        <path d="M8545.83 50H8591.663V179.167H8545.83z"/>
        <path d="M8612.5 50H8658.333V179.167H8612.5z"/>
        <path d="M8858.35 50H8904.183V179.167H8858.35z"/>
        <path d="M8945.82 50H8991.653V179.167H8945.82z"/>
        <path d="M9329.17 50.001H9375.003V179.168H9329.17z"/>
        <path d="M9395.83 50H9441.663V179.167H9395.83z"/>
        <path d="M9729.17 50.001H9775.003V179.168H9729.17z"/>
        <path d="M8095.83 50H8183.33V179.167H8095.83z"/>
        <path d="M8295.83 50H8383.33V179.167H8295.83z"/>
        <path d="M8704.17 50H8770.837V179.167H8704.17z"/>
        <path d="M9058.33 50H9124.997V179.167H9058.33z"/>
        <path d="M9237.47 50.001H9304.137V179.168H9237.47z"/>
        <path d="M9845.85 50.001H9933.35V179.168H9845.85z"/>
        <path d="M8050 50H8075V179.167H8050z"/>
        <path d="M8204.17 50H8229.17V179.167H8204.17z"/>
        <path d="M8250 50H8275V179.167H8250z"/>
        <path d="M8408.33 50H8433.33V179.167H8408.33z"/>
        <path d="M8454.17 50H8479.17V179.167H8454.17z"/>
        <path d="M8500 50H8525V179.167H8500z"/>
        <path d="M8791.67 50H8816.67V179.167H8791.67z"/>
        <path d="M9170.83 50H9195.83V179.167H9170.83z"/>
        <path d="M9483.32 50H9508.32V179.167H9483.32z"/>
        <path d="M9529.15 50.001H9554.15V179.168H9529.15z"/>
        <path d="M9595.83 50H9620.83V179.167H9595.83z"/>
        <path d="M9641.67 50H9666.67V179.167H9641.67z"/>
        <path d="M9795.83 50H9820.83V179.167H9795.83z"/>
      </g>
    </g>
  </g>
  <g id="_2p-Race-Shared">
    <g id="decorations">
      <path fill="none" stroke="#e2e2e4" stroke-linejoin="miter" stroke-miterlimit="3" stroke-width="16.67" d="M6906.37,3397.74c0,0 -399.459,399.459 -523.982,523.983c-23.442,23.442 -36.612,55.236 -36.612,88.388c0,83.957 0,248.84 0,332.797c0,33.152 13.17,64.946 36.612,88.389c83.995,83.995 289.764,289.764 373.759,373.759c23.442,23.442 55.237,36.612 88.389,36.612c156.037,-0 624.882,-0 851.272,-0c33.157,-0 64.954,13.172 88.397,36.619c23.443,23.447 36.61,55.247 36.604,88.403c-0.009,44.19 -0.017,91.482 -0.024,126.205c-0.006,33.16 13.164,64.963 36.612,88.411c107.958,107.958 424.137,424.137 532.084,532.083c23.442,23.442 55.236,36.612 88.388,36.612c335.584,0 2188.8,0 2188.8,0"/>
      <g id="Trademark">
        <path id="Ring5" d="M544.648,4682.05c482.925,0 875,392.075 875,875c-0,482.926 -392.075,875 -875,875c-482.926,0 -875,-392.074 -875,-875c-0,-482.925 392.074,-875 875,-875Zm-0,166.667c390.939,-0 708.333,317.393 708.333,708.333c-0,390.94 -317.394,708.334 -708.333,708.334c-390.94,-0 -708.334,-317.394 -708.334,-708.334c0,-390.94 317.394,-708.333 708.334,-708.333Z"/>
        <text x="19.771" y="5693.74" font-family="OpineHeavy" font-size="768.769">T</text>
        <text x="353.032" y="5973.87" font-family="OpineHeavy" font-size="768.769">M</text>
      </g>
      <g>
        <path id="Down-left-arrow" fill="#546893" d="M10547.9,5940.09l-122.931,0l-0,36.232l184.783,0l-0,-184.782l-36.232,-0l-0,122.93l-117.61,-117.609l-25.62,25.619l117.61,117.61Z"/>
        <path id="Down-left-arrow1" fill="#e2e2e4" d="M10208.3,5791.56l0,184.783l36.232,0l0,-122.931l117.61,117.61l25.62,-25.62l-117.61,-117.61c-0,0 122.931,0 122.931,0l-0,-36.232l-184.783,0Z"/>
        <path id="Down-left-arrow2" fill="#e2e2e4" d="M9991.68,5791.54l-0,184.782l184.782,0l0,-36.232l-122.931,0l117.61,-117.61l-25.62,-25.619l-117.61,117.609c0,0 0,-122.93 0,-122.93l-36.231,-0Z"/>
      </g>
      <g id="wires-left">
        <path fill="#e2e2e4" d="M2097.12,5336.46c4.878,4.878 4.878,12.799 -0,17.678c-4.879,4.878 -12.8,4.878 -17.678,-0c-4.878,-4.879 -4.878,-12.8 0,-17.678c4.878,-4.878 12.799,-4.878 17.678,-0Z"/>
        <path fill="none" stroke="#e2e2e4" stroke-linecap="butt" stroke-linejoin="miter" stroke-miterlimit="3" stroke-width="8.33" d="M2249.05,5995.98l-565.712,-565.711l0,-95.412l184.741,-0l55.611,-55.612l98.435,-0.116l66.163,66.163"/>
        <path fill="#e2e2e4" d="M2151.88,5327.17c4.879,4.878 4.879,12.799 0,17.677c-4.878,4.878 -12.799,4.878 -17.677,0c-4.878,-4.878 -4.878,-12.799 -0,-17.677c4.878,-4.879 12.799,-4.879 17.677,-0Z"/>
        <path fill="none" stroke="#e2e2e4" stroke-linecap="butt" stroke-linejoin="miter" stroke-miterlimit="3" stroke-width="8.33" d="M2265.71,5995.98l-565.711,-565.711l0,-120.412l168.074,-0l55.611,-55.612l137.593,0l81.76,81.76"/>
        <path fill="#e2e2e4" d="M2217.5,5263.52c4.878,4.878 4.878,12.799 0,17.678c-4.878,4.878 -12.799,4.878 -17.677,-0c-4.879,-4.879 -4.879,-12.8 -0,-17.678c4.878,-4.878 12.799,-4.878 17.677,-0Z"/>
        <path fill="none" stroke="#e2e2e4" stroke-linecap="butt" stroke-linejoin="miter" stroke-miterlimit="3" stroke-width="8.33" d="M2282.38,5995.98l-565.711,-565.711l-0,-145.412l151.407,-0l55.611,-55.612l241.877,0l43.103,43.104"/>
        <path fill="#e2e2e4" d="M2223.53,5216.01c4.879,4.879 4.879,12.8 0,17.678c-4.878,4.878 -12.799,4.878 -17.677,0c-4.879,-4.878 -4.879,-12.799 -0,-17.678c4.878,-4.878 12.799,-4.878 17.677,0Z"/>
        <path fill="none" stroke="#e2e2e4" stroke-linecap="butt" stroke-linejoin="miter" stroke-miterlimit="3" stroke-width="8.33" d="M2299.05,5995.98l-565.712,-565.711l0,-170.412l134.741,-0l55.611,-55.612l270.404,0l20.603,20.603"/>
        <path fill="#e2e2e4" d="M2225.64,5183.04c4.878,4.878 4.878,12.799 -0,17.677c-4.879,4.879 -12.8,4.879 -17.678,0c-4.878,-4.878 -4.878,-12.799 0,-17.677c4.878,-4.879 12.799,-4.879 17.678,-0Z"/>
        <path fill="none" stroke="#e2e2e4" stroke-linecap="butt" stroke-linejoin="miter" stroke-miterlimit="3" stroke-width="8.33" d="M2315.71,5995.98l-565.711,-565.711l0,-195.412l118.074,-0l55.611,-55.612l280.482,0l12.632,12.633"/>
      </g>
      <path fill="none" stroke="#e2e2e4" stroke-linecap="square" stroke-miterlimit="3" stroke-width="7.09" d="M7331.38,5817.77l-182.233,182.233"/>
      <path fill="none" stroke="#e2e2e4" stroke-linecap="square" stroke-miterlimit="3" stroke-width="7.09" d="M3930.4,3697.07l527.934,527.934l0,220.833l-583.145,583.146"/>
      <path fill="none" stroke="#e2e2e4" stroke-linecap="square" stroke-miterlimit="3" stroke-width="7.09" d="M5432.42,5832.71l-167.288,167.289"/>
      <path fill="none" stroke="#e2e2e4" stroke-linecap="square" stroke-miterlimit="3" stroke-width="7.09" d="M6762.5,4887.5l-1330.08,-1324.29"/>
      <path fill="none" stroke="#e2e2e4" stroke-linecap="square" stroke-miterlimit="3" stroke-width="7.09" d="M10009.8,3398.79l-1505.54,1505.54l0,79.435l461.346,461.346"/>
      <path fill="none" stroke="#e2e2e4" stroke-linecap="square" stroke-miterlimit="3" stroke-width="7.09" d="M2184.72,5482.97l571.732,571.732"/>
    </g>
    <g id="panels">
      <path fill="#737b89" d="M4437.38,5491.67l-396.375,-0l-145.167,145.166l0,71.5l520.834,0l-0,1.818l81.391,81.391l210.4,-0l-0.125,0.125l50,50l416.667,-0l50,-50l-0.125,-0.125l0.125,-0l-433.393,-433.393l-220.714,-0l-133.518,133.518Z"/>
      <g fill="#737b89">
        <path d="M8116.67,4904.17l-92.714,-0l-157.286,157.286l-0,74.047l202,202l48,0l-0,-433.333Z"/>
        <path d="M8579.26,4662.5l-225.089,0l-241.667,241.667l0,258.333l466.756,-466.756l0,-33.244Z"/>
      </g>
      <g fill="none" stroke-linecap="square" stroke-linejoin="miter">
        <path stroke="#737b89" stroke-miterlimit="3" stroke-width="50" d="M1917.03,6000l-1020.83,-1020.83l-896.199,-0"/>
        <path stroke="#1a2336" stroke-miterlimit="2" stroke-width="100" d="M2025.37,6000l-945.833,-945.833l-1079.53,-0"/>
        <path stroke="#737b89" stroke-miterlimit="3" stroke-width="50" d="M2025.37,6000l-945.833,-945.833l-1079.53,-0"/>
        <path stroke="#1a2336" stroke-miterlimit="2" stroke-width="100" d="M2204.53,6075l-945.833,-945.833l-1258.7,-0"/>
        <path stroke="#737b89" stroke-miterlimit="3" stroke-width="50" d="M2204.53,6075l-945.833,-945.833l-1258.7,-0"/>
      </g>
      <g fill="#737b89">
        <path d="M4804.17,4095.83l-308.218,0l0,358.334l308.218,-308.218l-0,-50.116Z"/>
        <path d="M4804.17,4095.76l-229.167,-229.166l-125,-0l0,254.166l354.167,0l-0,-25Z"/>
        <path d="M4675.47,4070.91l-452.16,-452.16l-327.473,-0l602.881,602.88l176.752,0l-0,-150.72Z"/>
      </g>
      <g fill="#e2e2e4">
        <path d="M7316.67,5825l-2066.67,0l-16.667,16.667l2083.33,-0l-0,-16.667Z"/>
        <path d="M7608.33,5774.83l-25,-25l-316.666,0l-91.667,91.667l0,0.167l383.333,-0l50,-50l0,-16.834Z"/>
      </g>
      <path fill="none" stroke="#e2e2e4" stroke-linecap="butt" stroke-miterlimit="3" stroke-width="8.33" d="M8463.11,5695.83l1582.73,0c13.807,0 25,-11.193 25,-25c0,-21.4 0,-51.137 0,-66.652c0,-6.63 -2.634,-12.989 -7.322,-17.677c-25.196,-25.197 -108.151,-108.152 -133.348,-133.348c-4.688,-4.689 -11.047,-7.323 -17.678,-7.323c-33.238,0 -136.996,0 -170.234,0c-6.63,0 -12.989,-2.634 -17.678,-7.322c-9.473,-9.473 -25.882,-25.882 -35.355,-35.355c-4.688,-4.689 -11.047,-7.323 -17.678,-7.323c-63.46,0 -399.162,0 -462.622,0c-6.631,0 -12.99,2.634 -17.678,7.323c-9.473,9.473 -25.882,25.882 -35.355,35.355c-4.689,4.688 -11.048,7.322 -17.678,7.322c-51.115,0 -274.49,0 -285.067,0c-0.375,-0.001 -0.703,-0.254 -0.801,-0.617c-0.097,-0.363 0.06,-0.746 0.385,-0.936c0.028,-0.24 0.028,-0.454 0.028,-0.454c-0,-0 -110.833,-110.833 -140.67,-140.67c-4.689,-4.689 -11.048,-7.323 -17.678,-7.323c-65.823,0 -426.277,0 -524.985,0c-6.631,0 -12.99,2.634 -17.678,7.323c-4.688,4.688 -7.322,11.047 -7.322,17.677c-0,18.496 -0,42.741 -0,56.312c-0,6.63 2.634,12.989 7.322,17.677c41.982,41.982 251.706,251.707 293.689,293.689c4.688,4.688 11.047,7.322 17.677,7.322Z"/>
      <g fill="#737b89">
        <path d="M7766.67,4958.3c-0,-32.176 -26.123,-58.298 -58.298,-58.298l-908.369,0l-0,66.667l158.333,158.333l808.334,0l-0,-166.702Z"/>
        <path d="M8000,5387.5l-233.333,-233.333l-554.167,-0l233.333,233.333l554.167,0Z"/>
        <path d="M8062.39,5450l-66.667,-66.667l-475,0l116.667,116.667l425,0l0,-50Z"/>
        <path d="M8641.67,6079.33l-583.498,-583.498l-287.336,0l791.667,791.667l79.167,0l-0,-208.169Z"/>
        <path d="M7766.67,5108.14l-600,0l-0,0.197l50,50l550,0l-0,-50.197Z"/>
      </g>
      <g>
        <path fill="none" d="M8391.67,4908.33l-241.667,241.667l0,100l25,25l537.5,-0l104.167,104.167l37.5,-0l-0,-12.5l-105.632,-105.632l-36.035,-36.035l-420.833,-0l-14.584,-14.583l185.417,-185.417l0,-125l116.667,-116.667l-0,-62.5l-187.5,187.5l-0,0Zm-129.167,316.667l0,-0l0,-0l-0,-0Z"/>
        <clipPath id="_clip2">
          <path d="M8391.67,4908.33l-241.667,241.667l0,100l25,25l537.5,-0l104.167,104.167l37.5,-0l-0,-12.5l-105.632,-105.632l-36.035,-36.035l-420.833,-0l-14.584,-14.583l185.417,-185.417l0,-125l116.667,-116.667l-0,-62.5l-187.5,187.5l-0,0Zm-129.167,316.667l0,-0l0,-0l-0,-0Z"/>
        </clipPath>
        <g clip-path="url(#_clip2)">
          <g id="Hatching1" fill="#e2e2e4">
            <path d="M8585.06,4726.73l-5.892,-5.893l-498.851,498.851l5.893,5.892l498.85,-498.85Z"/>
            <path d="M8596.84,4738.51l-5.892,-5.893l-498.851,498.851l5.893,5.892l498.85,-498.85Z"/>
            <path d="M8608.63,4750.3l-5.892,-5.892l-498.85,498.85l5.892,5.892l498.85,-498.85Z"/>
            <path d="M8620.42,4762.08l-5.893,-5.892l-498.85,498.85l5.892,5.893l498.851,-498.851Z"/>
            <path d="M8632.2,4773.87l-5.893,-5.892l-498.85,498.85l5.892,5.893l498.851,-498.851Z"/>
            <path d="M8643.99,4785.65l-5.893,-5.892l-498.85,498.85l5.892,5.893l498.851,-498.851Z"/>
            <path d="M8655.77,4797.44l-5.893,-5.893l-498.85,498.85l5.893,5.893l498.85,-498.85Z"/>
            <path d="M8667.56,4809.22l-5.893,-5.893l-498.85,498.851l5.893,5.892l498.85,-498.85Z"/>
            <path d="M8679.34,4821.01l-5.892,-5.893l-498.851,498.851l5.893,5.892l498.85,-498.85Z"/>
            <path d="M8691.12,4832.79l-5.892,-5.893l-498.851,498.851l5.893,5.892l498.85,-498.85Z"/>
            <path d="M8702.91,4844.58l-5.892,-5.893l-498.851,498.851l5.893,5.892l498.85,-498.85Z"/>
            <path d="M8714.69,4856.36l-5.892,-5.892l-498.85,498.85l5.892,5.893l498.85,-498.851Z"/>
            <path d="M8726.48,4868.15l-5.893,-5.892l-498.85,498.85l5.892,5.893l498.851,-498.851Z"/>
            <path d="M8738.27,4879.93l-5.893,-5.892l-498.85,498.85l5.892,5.893l498.851,-498.851Z"/>
            <path d="M8750.05,4891.72l-5.893,-5.892l-498.85,498.85l5.892,5.893l498.851,-498.851Z"/>
            <path d="M8761.84,4903.5l-5.893,-5.893l-498.85,498.85l5.893,5.893l498.85,-498.85Z"/>
            <path d="M8773.62,4915.29l-5.893,-5.893l-498.85,498.851l5.893,5.892l498.85,-498.85Z"/>
            <path d="M8785.41,4927.07l-5.892,-5.893l-498.851,498.851l5.893,5.892l498.85,-498.85Z"/>
            <path d="M8797.19,4938.86l-5.892,-5.893l-498.851,498.851l5.893,5.892l498.85,-498.85Z"/>
            <path d="M8808.98,4950.64l-5.892,-5.893l-498.851,498.851l5.893,5.892l498.85,-498.85Z"/>
            <path d="M8820.76,4962.43l-5.892,-5.892l-498.85,498.85l5.892,5.893l498.85,-498.851Z"/>
            <path d="M8832.55,4974.21l-5.893,-5.892l-498.85,498.85l5.892,5.893l498.851,-498.851Z"/>
            <path d="M8844.33,4986l-5.893,-5.892l-498.85,498.85l5.892,5.893l498.851,-498.851Z"/>
            <path d="M8856.12,4997.78l-5.893,-5.892l-498.85,498.85l5.892,5.893l498.851,-498.851Z"/>
            <path d="M8867.9,5009.57l-5.893,-5.893l-498.85,498.85l5.893,5.893l498.85,-498.85Z"/>
            <path d="M8879.69,5021.35l-5.893,-5.893l-498.85,498.851l5.893,5.892l498.85,-498.85Z"/>
            <path d="M8891.47,5033.14l-5.892,-5.893l-498.851,498.851l5.893,5.892l498.85,-498.85Z"/>
            <path d="M8903.26,5044.92l-5.892,-5.893l-498.851,498.851l5.893,5.892l498.85,-498.85Z"/>
            <path d="M8915.04,5056.71l-5.892,-5.893l-498.851,498.851l5.893,5.892l498.85,-498.85Z"/>
            <path d="M8926.83,5068.49l-5.893,-5.892l-498.85,498.85l5.892,5.893l498.851,-498.851Z"/>
            <path d="M8938.61,5080.28l-5.893,-5.892l-498.85,498.85l5.892,5.893l498.851,-498.851Z"/>
            <path d="M8950.4,5092.06l-5.893,-5.892l-498.85,498.85l5.892,5.893l498.851,-498.851Z"/>
            <path d="M8962.18,5103.85l-5.893,-5.893l-498.85,498.85l5.892,5.893l498.851,-498.85Z"/>
            <path d="M8973.97,5115.64l-5.893,-5.893l-498.85,498.85l5.893,5.893l498.85,-498.85Z"/>
            <path d="M8985.75,5127.42l-5.892,-5.893l-498.851,498.851l5.893,5.892l498.85,-498.85Z"/>
            <path d="M8997.54,5139.2l-5.892,-5.893l-498.851,498.851l5.893,5.892l498.85,-498.85Z"/>
            <path d="M9009.32,5150.99l-5.892,-5.893l-498.851,498.851l5.893,5.892l498.85,-498.85Z"/>
            <path d="M9021.11,5162.78l-5.892,-5.892l-498.851,498.85l5.893,5.892l498.85,-498.85Z"/>
            <path d="M9032.89,5174.56l-5.893,-5.892l-498.85,498.85l5.892,5.893l498.851,-498.851Z"/>
            <path d="M9044.68,5186.35l-5.893,-5.892l-498.85,498.85l5.892,5.893l498.851,-498.851Z"/>
          </g>
        </g>
      </g>
    </g>
    <g id="Registration-marks" fill="#546893">
      <g id="Registration-mark">
        <path d="M175,304.167c0,-4.6 -3.734,-8.334 -8.333,-8.334l-45.834,0c-4.599,0 -8.333,3.734 -8.333,8.334c0,4.599 3.734,8.333 8.333,8.333l45.834,-0c4.599,-0 8.333,-3.734 8.333,-8.333Z"/>
        <path d="M279.167,304.167c-0,-4.6 -3.734,-8.334 -8.334,-8.334l-45.833,0c-4.599,0 -8.333,3.734 -8.333,8.334c-0,4.599 3.734,8.333 8.333,8.333l45.833,-0c4.6,-0 8.334,-3.734 8.334,-8.333Z"/>
        <path d="M204.167,229.167c-0,-4.6 -3.734,-8.334 -8.334,-8.334c-4.599,0 -8.333,3.734 -8.333,8.334l0,45.833c0,4.599 3.734,8.333 8.333,8.333c4.6,0 8.334,-3.734 8.334,-8.333l-0,-45.833Z"/>
        <path d="M204.167,333.333c-0,-4.599 -3.734,-8.333 -8.334,-8.333c-4.599,0 -8.333,3.734 -8.333,8.333l0,45.834c0,4.599 3.734,8.333 8.333,8.333c4.6,-0 8.334,-3.734 8.334,-8.333l-0,-45.834Z"/>
      </g>
      <g id="Registration-mark1">
        <path d="M175,4129.17c0,-4.6 -3.734,-8.334 -8.333,-8.334l-45.834,0c-4.599,0 -8.333,3.734 -8.333,8.334c0,4.599 3.734,8.333 8.333,8.333l45.834,-0c4.599,-0 8.333,-3.734 8.333,-8.333Z"/>
        <path d="M279.167,4129.17c-0,-4.6 -3.734,-8.334 -8.334,-8.334l-45.833,0c-4.599,0 -8.333,3.734 -8.333,8.334c-0,4.599 3.734,8.333 8.333,8.333l45.833,-0c4.6,-0 8.334,-3.734 8.334,-8.333Z"/>
        <path d="M204.167,4054.17c-0,-4.6 -3.734,-8.334 -8.334,-8.334c-4.599,0 -8.333,3.734 -8.333,8.334l0,45.833c0,4.599 3.734,8.333 8.333,8.333c4.6,0 8.334,-3.734 8.334,-8.333l-0,-45.833Z"/>
        <path d="M204.167,4158.33c-0,-4.599 -3.734,-8.333 -8.334,-8.333c-4.599,-0 -8.333,3.734 -8.333,8.333l0,45.834c0,4.599 3.734,8.333 8.333,8.333c4.6,-0 8.334,-3.734 8.334,-8.333l-0,-45.834Z"/>
      </g>
      <g id="Registration-mark2">
        <path d="M5312.5,304.167c-0,-4.6 -3.734,-8.334 -8.333,-8.334l-45.834,0c-4.599,0 -8.333,3.734 -8.333,8.334c-0,4.599 3.734,8.333 8.333,8.333l45.834,-0c4.599,-0 8.333,-3.734 8.333,-8.333Z"/>
        <path d="M5416.67,304.167c-0,-4.6 -3.734,-8.334 -8.334,-8.334l-45.833,0c-4.599,0 -8.333,3.734 -8.333,8.334c-0,4.599 3.734,8.333 8.333,8.333l45.833,-0c4.6,-0 8.334,-3.734 8.334,-8.333Z"/>
        <path d="M5341.67,229.167c-0,-4.6 -3.734,-8.334 -8.334,-8.334c-4.599,0 -8.333,3.734 -8.333,8.334l-0,45.833c-0,4.599 3.734,8.333 8.333,8.333c4.6,0 8.334,-3.734 8.334,-8.333l-0,-45.833Z"/>
        <path d="M5341.67,333.333c-0,-4.599 -3.734,-8.333 -8.334,-8.333c-4.599,0 -8.333,3.734 -8.333,8.333l-0,45.834c-0,4.599 3.734,8.333 8.333,8.333c4.6,-0 8.334,-3.734 8.334,-8.333l-0,-45.834Z"/>
      </g>
      <g id="Registration-mark3">
        <path d="M10450,304.167c0,-4.6 -3.734,-8.334 -8.333,-8.334l-45.834,0c-4.599,0 -8.333,3.734 -8.333,8.334c0,4.599 3.734,8.333 8.333,8.333l45.834,-0c4.599,-0 8.333,-3.734 8.333,-8.333Z"/>
        <path d="M10554.2,304.167c-0,-4.6 -3.734,-8.334 -8.334,-8.334l-45.833,0c-4.599,0 -8.333,3.734 -8.333,8.334c-0,4.599 3.734,8.333 8.333,8.333l45.833,-0c4.6,-0 8.334,-3.734 8.334,-8.333Z"/>
        <path d="M10479.2,229.167c-0,-4.6 -3.734,-8.334 -8.334,-8.334c-4.599,0 -8.333,3.734 -8.333,8.334l0,45.833c0,4.599 3.734,8.333 8.333,8.333c4.6,0 8.334,-3.734 8.334,-8.333l-0,-45.833Z"/>
        <path d="M10479.2,333.333c-0,-4.599 -3.734,-8.333 -8.334,-8.333c-4.599,0 -8.333,3.734 -8.333,8.333l0,45.834c0,4.599 3.734,8.333 8.333,8.333c4.6,-0 8.334,-3.734 8.334,-8.333l-0,-45.834Z"/>
      </g>
      <g id="Registration-mark4">
        <path d="M10450,4129.17c0,-4.6 -3.734,-8.334 -8.333,-8.334l-45.834,0c-4.599,0 -8.333,3.734 -8.333,8.334c0,4.599 3.734,8.333 8.333,8.333l45.834,-0c4.599,-0 8.333,-3.734 8.333,-8.333Z"/>
        <path d="M10554.2,4129.17c-0,-4.6 -3.734,-8.334 -8.334,-8.334l-45.833,0c-4.599,0 -8.333,3.734 -8.333,8.334c-0,4.599 3.734,8.333 8.333,8.333l45.833,-0c4.6,-0 8.334,-3.734 8.334,-8.333Z"/>
        <path d="M10479.2,4054.17c-0,-4.6 -3.734,-8.334 -8.334,-8.334c-4.599,0 -8.333,3.734 -8.333,8.334l0,45.833c0,4.599 3.734,8.333 8.333,8.333c4.6,0 8.334,-3.734 8.334,-8.333l-0,-45.833Z"/>
        <path d="M10479.2,4158.33c-0,-4.599 -3.734,-8.333 -8.334,-8.333c-4.599,-0 -8.333,3.734 -8.333,8.333l0,45.834c0,4.599 3.734,8.333 8.333,8.333c4.6,-0 8.334,-3.734 8.334,-8.333l-0,-45.834Z"/>
      </g>
      <g id="Registration-mark5">
        <path d="M5312.5,4129.17c-0,-4.6 -3.734,-8.334 -8.333,-8.334l-45.834,0c-4.599,0 -8.333,3.734 -8.333,8.334c-0,4.599 3.734,8.333 8.333,8.333l45.834,-0c4.599,-0 8.333,-3.734 8.333,-8.333Z"/>
        <path d="M5416.67,4129.17c-0,-4.6 -3.734,-8.334 -8.334,-8.334l-45.833,0c-4.599,0 -8.333,3.734 -8.333,8.334c-0,4.599 3.734,8.333 8.333,8.333l45.833,-0c4.6,-0 8.334,-3.734 8.334,-8.333Z"/>
        <path d="M5341.67,4054.17c-0,-4.6 -3.734,-8.334 -8.334,-8.334c-4.599,0 -8.333,3.734 -8.333,8.334l-0,45.833c-0,4.599 3.734,8.333 8.333,8.333c4.6,0 8.334,-3.734 8.334,-8.333l-0,-45.833Z"/>
        <path d="M5341.67,4158.33c-0,-4.599 -3.734,-8.333 -8.334,-8.333c-4.599,-0 -8.333,3.734 -8.333,8.333l-0,45.834c-0,4.599 3.734,8.333 8.333,8.333c4.6,-0 8.334,-3.734 8.334,-8.333l-0,-45.834Z"/>
      </g>
    </g>
    <g id="race-info-panel">
      <g id="body" fill="#e2e2e4">
        <path d="M5575,4433.21l641.667,0l1041.67,1041.67l0,241.667l-75,75l-1608.33,-0l0,-1358.33Z"/>
        <path d="M6933.33,5158.21l191.667,0l525,525l0,33.334l-716.667,-0l0,-558.334Z"/>
        <path d="M7591.67,5624.88l150,150l-0,16.667l-75,-0l-75,-75l-0,-91.667Z"/>
        <path d="M7633.39 5749.88H7666.669V5791.547H7633.39z"/>
        <path d="M4425,4541.67l308.333,-308.334l641.939,0l199.728,199.728l0,1358.48l-200,-0l-950,-950l0,-299.875Z"/>
        <path d="M4734.58,5150.31l641.283,-0l-0,641.232l-124.617,-0l-516.666,-516.667l-0,-124.565Z"/>
        <path d="M5550 4433.33H5608.333V5787.5H5550z"/>
      </g>
      <g id="text" font-family="'OCRAExtended', 'OCR A Extended', monospace" font-size="100">
        <text x="5460.56" y="4655.83">game name</text>
        <text x="6332.31" y="5139.1">category</text>
        <text x="6332.31" y="5497.7">estimate</text>
      </g>
      <g id="icons">
        <g id="Game-controller">
          <path d="M6196.52,4552.03l-18.699,-18.7l-37.399,0l-18.699,18.7l-0,50.597l18.699,18.7l37.399,-0l18.699,-18.7l-0,-50.597Z"/>
          <path d="M6095.32,4552.03l-18.699,-18.7l-37.399,0l-18.699,18.7l-0,50.597l18.699,18.7l37.399,-0l18.699,-18.7l-0,-50.597Z"/>
          <path d="M6064.78 4550.93H6152.776V4603.728H6064.78z"/>
          <path d="M6081.54,4600.04l-60.103,-16.105l-16.105,60.103l11,19.052l30.051,8.052l19.052,-11l16.105,-60.102Z"/>
          <path d="M6211.33,4644.03l-16.104,-60.103l-60.103,16.105l16.105,60.102l19.051,11l30.052,-8.052l10.999,-19.052Z"/>
        </g>
        <g id="Folder">
          <path d="M6483.33,5202.5l-166.666,-0l6.666,76.667l153.334,-0l6.666,-76.667Z"/>
          <path fill="none" stroke="#737b89" stroke-linecap="butt" stroke-linejoin="miter" stroke-miterlimit="3" stroke-width="8.33" d="M6316.67,5199.17l166.666,-0"/>
          <path d="M6323.33,5195.83l73.334,0l-7.334,-16.666l-58.666,-0l-7.334,16.666Z"/>
        </g>
        <g id="Loading-6" fill="none" stroke="#000" stroke-width="21.33">
          <path d="M6357.07,5569.35l-28.617,-3.768"/>
          <path d="M6365.65,5601.36l-22.899,17.571"/>
          <path d="M6394.35,5617.93l-3.768,28.617"/>
          <path d="M6426.36,5609.35l17.571,22.899"/>
          <path d="M6442.93,5580.65l28.617,3.768"/>
          <path d="M6434.35,5548.64l22.899,-17.571"/>
        </g>
      </g>
      <g id="details">
        <path fill="none" stroke="#1a2336" stroke-linecap="butt" stroke-linejoin="miter" stroke-miterlimit="3" stroke-width="8.33" d="M6445.08,4750.18l-58.509,-58.508l-1498.3,-0l-306.568,306.568"/>
        <g id="Hatching2">
          <clipPath id="_clip3">
            <path d="M5392.28,5779.02l-639.459,-639.458l-5.376,-0l-0,121.982l517.475,517.476l127.36,-0Z"/>
          </clipPath>
          <g clip-path="url(#_clip3)">
            <path d="M4750.62 5073.54H4758.953V5779.021H4750.62z"/>
            <path d="M4767.28 5073.54H4775.613V5779.021H4767.28z"/>
            <path d="M4783.95 5073.54H4792.283V5779.021H4783.95z"/>
            <path d="M4800.62 5073.54H4808.953V5779.021H4800.62z"/>
            <path d="M4817.28 5073.54H4825.613V5779.021H4817.28z"/>
            <path d="M4833.95 5073.54H4842.283V5779.021H4833.95z"/>
            <path d="M4850.62 5073.54H4858.953V5779.021H4850.62z"/>
            <path d="M4867.28 5073.54H4875.613V5779.021H4867.28z"/>
            <path d="M4883.95 5073.54H4892.283V5779.021H4883.95z"/>
            <path d="M4900.62 5073.54H4908.953V5779.021H4900.62z"/>
            <path d="M4917.28 5073.54H4925.613V5779.021H4917.28z"/>
            <path d="M4933.95 5073.54H4942.283V5779.021H4933.95z"/>
            <path d="M4950.62 5073.54H4958.953V5779.021H4950.62z"/>
            <path d="M4967.28 5073.54H4975.613V5779.021H4967.28z"/>
            <path d="M4983.95 5073.54H4992.283V5779.021H4983.95z"/>
            <path d="M5000.62 5073.54H5008.953V5779.021H5000.62z"/>
            <path d="M5017.28 5073.54H5025.613V5779.021H5017.28z"/>
            <path d="M5033.95 5073.54H5042.283V5779.021H5033.95z"/>
            <path d="M5050.62 5073.54H5058.953V5779.021H5050.62z"/>
            <path d="M5067.28 5073.54H5075.613V5779.021H5067.28z"/>
            <path d="M5083.95 5073.54H5092.283V5779.021H5083.95z"/>
            <path d="M5100.62 5073.54H5108.953V5779.021H5100.62z"/>
            <path d="M5117.28 5073.54H5125.613V5779.021H5117.28z"/>
            <path d="M5133.95 5073.54H5142.283V5779.021H5133.95z"/>
            <path d="M5150.62 5073.54H5158.953V5779.021H5150.62z"/>
            <path d="M5167.28 5073.54H5175.613V5779.021H5167.28z"/>
            <path d="M5183.95 5073.54H5192.283V5779.021H5183.95z"/>
            <path d="M5200.62 5073.54H5208.953V5779.021H5200.62z"/>
            <path d="M5217.28 5073.54H5225.613V5779.021H5217.28z"/>
            <path d="M5233.95 5073.54H5242.283V5779.021H5233.95z"/>
            <path d="M5250.62 5073.54H5258.953V5779.021H5250.62z"/>
            <path d="M5267.28 5073.54H5275.613V5779.021H5267.28z"/>
            <path d="M5283.95 5073.54H5292.283V5779.021H5283.95z"/>
            <path d="M5300.62 5073.54H5308.953V5779.021H5300.62z"/>
            <path d="M5317.28 5073.54H5325.613V5779.021H5317.28z"/>
            <path d="M5333.95 5073.54H5342.283V5779.021H5333.95z"/>
            <path d="M5350.62 5073.54H5358.953V5779.021H5350.62z"/>
            <path d="M5367.28 5073.54H5375.613V5779.021H5367.28z"/>
            <path d="M5383.95 5073.54H5392.283V5779.021H5383.95z"/>
          </g>
        </g>
        <path d="M4758.33 4283.33H4783.33V4333.33H4758.33z"/>
        <path d="M5225 4283.33H5250V4333.33H5225z"/>
        <path d="M5300 4283.33H5375V4333.33H5300z"/>
      </g>
    </g>
    <g id="timer-panel">
      <path fill="none" d="M4417.5,5399.81l-610.973,0l-104.166,104.167l-1345.83,-0l0,50l50,50l1495.83,-0l133.333,-133.333c-0,-0 400.216,-0 400.216,-0l112.454,-112.313l0,-89.074l-130.864,130.553Z"/>
      <clipPath id="_clip4">
        <path d="M4417.5,5399.81l-610.973,0l-104.166,104.167l-1345.83,-0l0,50l50,50l1495.83,-0l133.333,-133.333c-0,-0 400.216,-0 400.216,-0l112.454,-112.313l0,-89.074l-130.864,130.553Z"/>
      </clipPath>
      <g clip-path="url(#_clip4)">
        <g id="Hatching3" fill="#737b89">
          <path d="M2442.86,5431.73l-5.893,-5.893l-136.452,136.452l5.893,5.893l136.452,-136.452Z"/>
          <path d="M2454.65,5443.51l-5.893,-5.893l-136.452,136.452l5.893,5.893l136.452,-136.452Z"/>
          <path d="M2466.43,5455.3l-5.893,-5.893l-136.452,136.452l5.893,5.893l136.452,-136.452Z"/>
          <path d="M2478.22,5467.08l-5.892,-5.892l-136.452,136.452l5.892,5.892l136.452,-136.452Z"/>
          <path d="M2646.16,5322.71l-5.893,-5.892l-294.627,294.628l5.892,5.892l294.628,-294.628Z"/>
          <path d="M2657.94,5334.5l-5.892,-5.893l-294.628,294.628l5.892,5.892l294.628,-294.627Z"/>
          <path d="M2669.72,5346.28l-5.892,-5.893l-294.628,294.628l5.892,5.892l294.628,-294.627Z"/>
          <path d="M2681.51,5358.07l-5.892,-5.893l-294.628,294.628l5.893,5.893l294.627,-294.628Z"/>
          <path d="M2693.3,5369.86l-5.892,-5.893l-294.628,294.628l5.893,5.893l294.627,-294.628Z"/>
          <path d="M2705.08,5381.64l-5.893,-5.893l-294.628,294.628l5.893,5.893l294.628,-294.628Z"/>
          <path d="M2716.87,5393.43l-5.893,-5.892l-294.628,294.627l5.893,5.893l294.628,-294.628Z"/>
          <path d="M2728.65,5405.21l-5.893,-5.892l-294.628,294.628l5.893,5.892l294.628,-294.628Z"/>
          <path d="M2740.44,5416.99l-5.893,-5.892l-294.627,294.628l5.892,5.892l294.628,-294.628Z"/>
          <path d="M2752.22,5428.78l-5.893,-5.892l-294.627,294.628l5.892,5.892l294.628,-294.628Z"/>
          <path d="M2867.13,5337.45l-5.893,-5.893l-294.628,294.628l5.893,5.893l294.628,-294.628Z"/>
          <path d="M2878.91,5349.23l-5.893,-5.893l-294.627,294.628l5.892,5.893l294.628,-294.628Z"/>
          <path d="M2890.7,5361.02l-5.892,-5.892l-294.628,294.627l5.892,5.893l294.628,-294.628Z"/>
          <path d="M2902.48,5372.8l-5.892,-5.892l-294.628,294.627l5.892,5.893l294.628,-294.628Z"/>
          <path d="M2914.27,5384.59l-5.892,-5.892l-294.628,294.628l5.893,5.892l294.627,-294.628Z"/>
          <path d="M2926.05,5396.37l-5.892,-5.892l-294.628,294.628l5.893,5.892l294.627,-294.628Z"/>
          <path d="M2937.84,5408.16l-5.893,-5.893l-294.628,294.628l5.893,5.892l294.628,-294.627Z"/>
          <path d="M2949.62,5419.94l-5.893,-5.893l-294.628,294.628l5.893,5.892l294.628,-294.627Z"/>
          <path d="M2961.41,5431.73l-5.893,-5.893l-294.628,294.628l5.893,5.893l294.628,-294.628Z"/>
          <path d="M2973.19,5443.51l-5.893,-5.893l-294.627,294.628l5.892,5.893l294.628,-294.628Z"/>
          <path d="M2984.98,5455.3l-5.893,-5.893l-294.627,294.628l5.892,5.893l294.628,-294.628Z"/>
          <path d="M2996.76,5467.08l-5.892,-5.892l-294.628,294.627l5.892,5.893l294.628,-294.628Z"/>
          <path d="M3008.55,5478.87l-5.892,-5.892l-294.628,294.627l5.892,5.893l294.628,-294.628Z"/>
          <path d="M3132.25,5378.74l-5.892,-5.892l-294.628,294.628l5.892,5.892l294.628,-294.628Z"/>
          <path d="M3144.03,5390.52l-5.892,-5.892l-294.628,294.628l5.893,5.892l294.627,-294.628Z"/>
          <path d="M3155.82,5402.31l-5.893,-5.893l-294.628,294.628l5.893,5.892l294.628,-294.627Z"/>
          <path d="M3167.6,5414.09l-5.893,-5.893l-294.628,294.628l5.893,5.893l294.628,-294.628Z"/>
          <path d="M3179.39,5425.88l-5.893,-5.893l-294.628,294.628l5.893,5.893l294.628,-294.628Z"/>
          <path d="M3191.17,5437.66l-5.893,-5.893l-294.628,294.628l5.893,5.893l294.628,-294.628Z"/>
          <path d="M3306.08,5346.33l-5.893,-5.892l-294.628,294.628l5.893,5.892l294.628,-294.628Z"/>
          <path d="M3317.86,5358.11l-5.893,-5.892l-294.628,294.628l5.893,5.892l294.628,-294.628Z"/>
          <path d="M3329.65,5369.9l-5.893,-5.893l-294.627,294.628l5.892,5.892l294.628,-294.627Z"/>
          <path d="M3341.43,5381.69l-5.892,-5.893l-294.628,294.628l5.892,5.892l294.628,-294.627Z"/>
          <path d="M3353.22,5393.47l-5.892,-5.893l-294.628,294.628l5.892,5.893l294.628,-294.628Z"/>
          <path d="M3365,5405.26l-5.892,-5.893l-294.628,294.628l5.892,5.893l294.628,-294.628Z"/>
          <path d="M3376.79,5417.04l-5.892,-5.893l-294.628,294.628l5.893,5.893l294.627,-294.628Z"/>
          <path d="M3388.57,5428.82l-5.893,-5.892l-294.628,294.627l5.893,5.893l294.628,-294.628Z"/>
          <path d="M3520.32,5320.65l-5.893,-5.893l-294.627,294.628l5.892,5.893l294.628,-294.628Z"/>
          <path d="M3532.11,5332.43l-5.892,-5.893l-294.628,294.628l5.892,5.893l294.628,-294.628Z"/>
          <path d="M3543.89,5344.22l-5.892,-5.892l-294.628,294.627l5.892,5.893l294.628,-294.628Z"/>
          <path d="M3555.68,5356l-5.892,-5.892l-294.628,294.627l5.892,5.893l294.628,-294.628Z"/>
          <path d="M3567.46,5367.79l-5.892,-5.892l-294.628,294.628l5.893,5.892l294.627,-294.628Z"/>
          <path d="M3579.25,5379.57l-5.893,-5.892l-294.628,294.628l5.893,5.892l294.628,-294.628Z"/>
          <path d="M3591.03,5391.36l-5.893,-5.893l-294.628,294.628l5.893,5.892l294.628,-294.627Z"/>
          <path d="M3602.82,5403.14l-5.893,-5.893l-294.628,294.628l5.893,5.892l294.628,-294.627Z"/>
          <path d="M3614.6,5414.93l-5.893,-5.893l-294.628,294.628l5.893,5.893l294.628,-294.628Z"/>
          <path d="M3626.39,5426.71l-5.893,-5.893l-294.627,294.628l5.892,5.893l294.628,-294.628Z"/>
          <path d="M3638.17,5438.5l-5.892,-5.893l-294.628,294.628l5.892,5.893l294.628,-294.628Z"/>
          <path d="M3649.96,5450.28l-5.892,-5.892l-294.628,294.627l5.892,5.893l294.628,-294.628Z"/>
          <path d="M3661.74,5462.07l-5.892,-5.892l-294.628,294.627l5.893,5.893l294.627,-294.628Z"/>
          <path d="M3673.53,5473.85l-5.892,-5.892l-294.628,294.628l5.893,5.892l294.627,-294.628Z"/>
          <path d="M3685.31,5485.64l-5.893,-5.892l-294.628,294.628l5.893,5.892l294.628,-294.628Z"/>
          <path d="M3697.1,5497.42l-5.893,-5.893l-294.628,294.628l5.893,5.892l294.628,-294.627Z"/>
          <path d="M4105.84,5112.25l-5.893,-5.893l-500.078,500.078l5.893,5.892l500.078,-500.077Z"/>
          <path d="M4117.63,5124.04l-5.893,-5.893l-500.077,500.078l5.892,5.892l500.078,-500.077Z"/>
          <path d="M4129.41,5135.82l-5.892,-5.893l-500.078,500.078l5.892,5.893l500.078,-500.078Z"/>
          <path d="M4141.2,5147.61l-5.892,-5.893l-500.078,500.078l5.892,5.893l500.078,-500.078Z"/>
          <path d="M4152.98,5159.39l-5.892,-5.893l-500.078,500.078l5.892,5.893l500.078,-500.078Z"/>
          <path d="M4164.77,5171.18l-5.892,-5.892l-500.078,500.077l5.893,5.893l500.077,-500.078Z"/>
          <path d="M4176.55,5182.96l-5.893,-5.892l-500.078,500.078l5.893,5.892l500.078,-500.078Z"/>
          <path d="M4188.34,5194.75l-5.893,-5.892l-500.078,500.078l5.893,5.892l500.078,-500.078Z"/>
          <path d="M4200.12,5206.53l-5.893,-5.892l-500.078,500.078l5.893,5.892l500.078,-500.078Z"/>
          <path d="M4211.91,5218.32l-5.893,-5.893l-415.159,415.159l5.893,5.893l415.159,-415.159Z"/>
          <path d="M4223.69,5230.1l-5.893,-5.893l-415.159,415.159l5.893,5.893l415.159,-415.159Z"/>
          <path d="M4235.48,5241.89l-5.892,-5.893l-415.16,415.16l5.893,5.892l415.159,-415.159Z"/>
          <path d="M4247.26,5253.67l-5.892,-5.893l-415.16,415.16l5.893,5.892l415.159,-415.159Z"/>
          <path d="M4259.05,5265.46l-5.892,-5.893l-364.594,364.595l5.892,5.892l364.594,-364.594Z"/>
          <path d="M4270.83,5277.24l-5.892,-5.892l-364.594,364.594l5.892,5.892l364.594,-364.594Z"/>
          <path d="M4282.62,5289.03l-5.893,-5.892l-364.594,364.594l5.893,5.892l364.594,-364.594Z"/>
          <path d="M4294.4,5300.81l-5.893,-5.892l-364.594,364.594l5.893,5.892l364.594,-364.594Z"/>
          <path d="M4306.19,5312.6l-5.893,-5.892l-221.015,221.015l5.892,5.893l221.016,-221.016Z"/>
          <path d="M4317.97,5324.38l-5.893,-5.893l-221.015,221.015l5.892,5.893l221.016,-221.015Z"/>
          <path d="M4329.76,5336.17l-5.893,-5.893l-221.015,221.016l5.893,5.892l221.015,-221.015Z"/>
          <path d="M4341.54,5347.95l-5.892,-5.893l-221.016,221.016l5.893,5.892l221.015,-221.015Z"/>
          <path d="M4353.33,5359.74l-5.892,-5.893l-221.016,221.016l5.893,5.892l221.015,-221.015Z"/>
          <path d="M4364.32,5370.73l-5.893,-5.893l-221.015,221.015l5.892,5.893l221.016,-221.015Z"/>
          <path d="M4376.11,5382.52l-5.893,-5.893l-221.015,221.016l5.893,5.892l221.015,-221.015Z"/>
          <path d="M4477.73,5304.47l-5.892,-5.893l-260.72,260.719l5.893,5.893l260.719,-260.719Z"/>
          <path d="M4489.51,5316.25l-5.892,-5.893l-260.719,260.719l5.892,5.893l260.719,-260.719Z"/>
          <path d="M4555.04,5274.3l-5.893,-5.893l-314.462,314.463l5.892,5.892l314.463,-314.462Z"/>
          <path d="M4557.99,5294.92l-5.893,-5.893l-305.623,305.624l5.892,5.892l305.624,-305.623Z"/>
          <path d="M4569.77,5306.7l-5.893,-5.893l-305.623,305.624l5.892,5.892l305.624,-305.623Z"/>
          <path d="M4581.56,5318.49l-5.892,-5.893l-305.624,305.624l5.893,5.892l305.623,-305.623Z"/>
        </g>
      </g>
      <g id="body1" fill="#e2e2e4">
        <path d="M3839.76,5345.65l-2050,-0l-0,91.666l50,50l1858.33,0l141.667,-141.666Z"/>
        <path d="M4548.09,5070.65l-2216.67,-0l-116.666,116.666l-0,195.834l2208.33,-0l125,-125l0,-187.5Z"/>
        <path d="M2298.09,5345.65l-83.333,-83.334l-83.334,83.334l83.334,83.333l83.333,-83.333Z"/>
        <path d="M4548.09,5070.65l-41.667,-41.667l-1270.83,-0l-41.667,41.667l41.667,41.666l1270.83,0l41.667,-41.666Z"/>
      </g>
      <path fill="#1a2336" d="M3885.69 5091.6H3910.69V5141.6H3885.69z"/>
      <path fill="#1a2336" d="M4352.36 5091.6H4377.36V5141.6H4352.36z"/>
      <path fill="#1a2336" d="M4427.36 5091.6H4502.36V5141.6H4427.36z"/>
      <text x="4134.36" y="5138.27" fill="#1a2336" font-family="'OCRAExtended', 'OCR A Extended', monospace" font-size="66.667">timer</text>
    </g>
  </g>
  <g id="_3-way-Race">
    <path fill="none" stroke="#e2e2e4" stroke-linecap="square" stroke-miterlimit="3" stroke-width="7.09" d="M3544.47,5115.64c-0,-0 -332.561,-332.561 -464.521,-464.522l-0,-106.066c215.723,-215.723 1015.89,-1015.89 1015.89,-1015.89"/>
    <path fill="none" stroke="#000" stroke-linecap="square" stroke-linejoin="miter" stroke-miterlimit="3" stroke-width="16.67" d="M10666.7,904.366l-59.272,-0c-26.522,-0 -51.957,10.535 -70.711,29.289c-279.072,279.072 -2458.35,2458.35 -2458.35,2458.35"/>
    <path fill="none" stroke="#000" stroke-linecap="square" stroke-linejoin="miter" stroke-miterlimit="3" stroke-width="16.67" d="M8518.55,1019.43c-0,0 300.961,-300.961 371.45,-371.45c9.377,-9.377 22.095,-14.645 35.355,-14.645c206.745,0 1891.72,0 1891.72,0m-10817.1,2283.33l0.003,-0c48.293,-0 87.442,-39.149 87.442,-87.442c-0,-293.05 -0,-1230.55 -0,-1381.87c-0,-13.261 5.268,-25.978 14.645,-35.355c109.48,-109.481 798.785,-798.786 908.265,-908.266c9.377,-9.377 22.095,-14.645 35.356,-14.645c384.934,0 6011.14,0 6396.08,0c13.261,0 25.979,5.268 35.356,14.645c23.446,23.447 69.863,69.863 100.31,100.31c18.753,18.754 44.189,29.289 70.71,29.289c81.575,0 262.173,0 343.747,0c26.522,0 51.957,10.536 70.711,29.29c48.432,48.432 139.92,139.92 139.92,139.92"/>
    <path d="M3390,3416.67l-591.667,-591.667l-290,-0l591.667,591.667l290,-0Z"/>
    <path stroke="#e2e2e4" stroke-linecap="butt" stroke-miterlimit="3" stroke-width="16.67" d="M2190.83,495.803c-18.754,18.754 -44.189,29.289 -70.711,29.289l-313.532,0c-26.522,0 -51.957,10.536 -70.711,29.29c-33.026,33.026 -84.897,84.897 -106.226,106.226c-6.18,6.179 -9.651,14.56 -9.651,23.299c-0,0.001 -0,0.001 -0,0.002c0,31.95 25.9,57.85 57.85,57.85c135.655,-0 462.868,-0 462.983,-0c0,-0 0,1.817 0,1.817c0,0 28.772,28.771 52.102,52.102c18.754,18.753 44.189,29.289 70.711,29.289c61.27,0 168.903,0 168.979,0c-0.012,-0.007 -0.024,-0.014 -0.036,-0.022c-0.078,0.136 -0.078,0.136 -0.078,0.136c-0.001,0.026 0.009,0.051 0.027,0.069c0.762,0.742 10.199,10.18 20.673,20.653c18.753,18.754 44.189,29.289 70.71,29.289c79.804,0 254.02,0 333.824,0c26.522,0 51.957,-10.535 70.711,-29.289c10.918,-10.918 20.711,-20.711 20.711,-20.711c-0,0 -0.028,-0.028 -0.058,-0.057c-0.018,-0.004 -0.03,-0.02 -0.028,-0.038c0.002,-0.018 0.017,-0.031 0.035,-0.031c0.02,0.001 0.039,0.001 0.047,0.001c0.001,0.001 0.002,0.001 0.003,0.001c-0.102,-0.104 -306.748,-306.75 -404.103,-404.104c-18.753,-18.754 -44.189,-29.29 -70.71,-29.29c-39.43,0 -98.443,0 -137.872,0c-26.522,0 -51.957,10.536 -70.711,29.29c-22.244,22.243 -52.695,52.695 -74.939,74.939Z"/>
    <path id="p3-screen" fill="magenta" d="M7058.33 766.667H10475V3329.167H7058.33z"/>
    <path fill="#e2e2e4" d="M10491.7,3345.83l-0,-2595.83l-3450,0l-0,2595.83l3450,0Zm-16.667,-2579.17l-3416.67,-0l0,2562.5l3416.67,-0l0,-2562.5Z"/>
    <path id="p2-screen" fill="magenta" d="M3625 1041.67H7041.67V3604.17H3625z"/>
    <path fill="#e2e2e4" d="M7058.33,3620.83l0,-2595.83l-3450,0l0,2595.83l3450,0Zm-16.666,-2579.17l-3416.67,-0l-0,2562.5l3416.67,-0l-0,-2562.5Z"/>
    <path id="p1-screen" fill="magenta" d="M191.667 766.667H3608.337V3329.167H191.667z"/>
    <path fill="#e2e2e4" d="M3625,3345.83l0,-2595.83l-3450,0l0,2595.83l3450,0Zm-16.667,-2579.17l-3416.67,-0l-0,2562.5l3416.67,-0l0,-2562.5Z"/>
    <g id="player-3-group">
      <g>
        <path fill="#ff0303" d="M7587.34,3691.67c0,-13.798 11.202,-25 25,-25l50,-0c13.798,-0 25,11.202 25,25l0,50c0,13.798 -11.202,25 -25,25l-50,-0c-13.798,-0 -25,-11.202 -25,-25l0,-50Z"/>
        <path d="M7704,3691.67c-0,-13.798 11.202,-25 25,-25l50,-0c13.798,-0 25,11.202 25,25l-0,50c-0,13.798 -11.202,25 -25,25l-50,-0c-13.798,-0 -25,-11.202 -25,-25l-0,-50Z"/>
        <path fill="#e2e2e4" d="M7704,3691.67c-0,-13.798 11.202,-25 25,-25l50,-0c13.798,-0 25,11.202 25,25l-0,50c-0,13.798 -11.202,25 -25,25l-50,-0c-13.798,-0 -25,-11.202 -25,-25l-0,-50Zm16.667,-0c-0,-4.6 3.734,-8.334 8.333,-8.334l50,0c4.599,0 8.333,3.734 8.333,8.334c0,-0 0,50 0,50c0,4.599 -3.734,8.333 -8.333,8.333c-0,0 -50,0 -50,0c-4.599,0 -8.333,-3.734 -8.333,-8.333l-0,-50Z"/>
        <path fill="#e2e2e4" d="M7820.67,3691.67c-0,-13.798 11.202,-25 25,-25l50,-0c13.797,-0 25,11.202 25,25l-0,50c-0,13.798 -11.203,25 -25,25l-50,-0c-13.798,-0 -25,-11.202 -25,-25l-0,-50Z"/>
        <path fill="#e2e2e4" d="M7937.34,3691.67c0,-13.798 11.202,-25 25,-25l50,-0c13.798,-0 25,11.202 25,25l0,50c0,13.798 -11.202,25 -25,25l-50,-0c-13.798,-0 -25,-11.202 -25,-25l0,-50Z"/>
        <path fill="#e2e2e4" d="M7704,3808.33c-0,-13.798 11.202,-25 25,-25l50,0c13.798,0 25,11.202 25,25l-0,50c-0,13.798 -11.202,25 -25,25l-50,0c-13.798,0 -25,-11.202 -25,-25l-0,-50Z"/>
        <text x="7704" y="3626.25" fill="#e2e2e4" font-family="'OCRAExtended', 'OCR A Extended', monospace" font-size="75">Player 3</text>
      </g>
      <path id="Down-left-arrow3" fill="#e2e2e4" d="M7566.49,3670.83l-212.5,0l-0,41.667l141.37,-0l-135.251,135.251l29.463,29.463l135.251,-135.251l0,141.37l41.667,0l-0,-212.5Z"/>
      <g id="done-timer-bg-p3" fill="#ea7d30">
        <path d="M9533.33,3766.67l-121.902,-0l-150,150l121.902,-0l150,-150Z"/>
        <path d="M9483.33,3766.67l-1133.33,-0l-0,158.333l108.333,108.333l758.334,0l266.666,-266.666Z"/>
      </g>
      <g id="name-panel-p3">
        <path fill="#ea7d30" d="M10241.7,3766.67l-720.834,-0l-150,150l720.834,-0l150,-150Z"/>
        <path fill="#ff0303" d="M7291.67,3416.67l50,-0l100,100l-50,-0l-100,-100Z"/>
        <path fill="#546893" d="M8116.67,3416.67l2000,-0l125,125l-0,208.333l-1891.67,0l-233.333,-233.333l-0,-100Z"/>
        <path fill="#546893" d="M7616.67,3416.67l504.166,-0l0,100l-404.166,-0l-100,-100Z"/>
        <path fill="#737b89" d="M7366.67,3416.67l100,-0l100,100l-100,-0l-100,-100Z"/>
        <path fill="#546893" d="M7491.67,3416.67l100,-0l100,100l-100,-0l-100,-100Z"/>
      </g>
    </g>
    <g id="player-2-group">
      <g>
        <path fill="#ff0303" d="M5825,958.333c0,-13.798 -11.202,-25 -25,-25l-50,0c-13.798,0 -25,11.202 -25,25l0,50c0,13.798 11.202,25 25,25l50,0c13.798,0 25,-11.202 25,-25l0,-50Z"/>
        <path fill="#737b89" d="M5708.33,958.333c0,-13.798 -11.202,-25 -25,-25l-50,0c-13.798,0 -25,11.202 -25,25l0,50c0,13.798 11.202,25 25,25l50,0c13.798,0 25,-11.202 25,-25l0,-50Z"/>
        <path fill="#1a2336" d="M6058.33,958.333c0,-13.798 -11.202,-25 -25,-25l-50,0c-13.798,0 -25,11.202 -25,25l0,50c0,13.798 11.202,25 25,25l50,0c13.798,0 25,-11.202 25,-25l0,-50Z"/>
        <text x="6212.6" y="608.927" fill="#1a2336" font-family="'OCRAExtended', 'OCR A Extended', monospace" font-size="75">Player 2</text>
      </g>
      <path id="Down-left-arrow4" fill="#1a2336" d="M6829.17,729.149l212.5,0l-0,-41.666l-141.371,-0l135.252,-135.252l-29.463,-29.462l-135.252,135.251l0,-141.371l-41.666,0l-0,212.5Z"/>
      <g id="done-timer-bg-p2" fill="#ea7d30">
        <path d="M5858.33,766.667l71.598,-0l150,150l-71.598,-0l-150,-150Z"/>
        <path d="M5908.33,766.667l1133.33,-0l-0,158.333l-108.334,108.333l-758.333,0l-266.667,-266.666Z"/>
      </g>
      <g id="name-panel-p2">
        <path fill="#ea7d30" d="M5150,766.667l720.833,-0l150,150l-720.833,-0l-150,-150Z"/>
        <path fill="#ff0303" d="M6575,633.333l-46.041,0l-195.834,195.834l46.042,-0l195.833,-195.834Z"/>
        <path fill="#546893" d="M5750,633.333l-2000,0l-125,125l0,208.334l1891.67,-0l233.333,-233.334l0,-100Z"/>
        <path fill="#546893" d="M6289.58,633.333l-610.12,0l0,100l510.12,0l100,-100Z"/>
        <path fill="#546893" d="M6404.17,729.167l-754.167,-0l-0,100l654.167,-0l100,-100Z"/>
        <path fill="#1a2336" d="M6500,633.333l-100,0l-100,100l100,0l100,-100Z"/>
        <path fill="#546893" d="M6500,633.333l-251.663,0l-127.623,127.624l251.662,-0l127.624,-127.624Z"/>
      </g>
    </g>
    <g id="player-1-group">
      <g>
        <path fill="#ff0303" d="M2904.33,3691.67c0,-13.798 -11.202,-25 -25,-25l-50,-0c-13.797,-0 -25,11.202 -25,25l0,50c0,13.798 11.203,25 25,25l50,-0c13.798,-0 25,-11.202 25,-25l0,-50Z"/>
        <path d="M2904.33,3575c0,-13.798 -11.202,-25 -25,-25l-50,0c-13.797,0 -25,11.202 -25,25l0,50c0,13.798 11.203,25 25,25l50,0c13.798,0 25,-11.202 25,-25l0,-50Z"/>
        <path fill="#e2e2e4" d="M2904.33,3575c0,-13.798 -11.202,-25 -25,-25l-50,0c-13.797,0 -25,11.202 -25,25l0,50c0,13.798 11.203,25 25,25l50,0c13.798,0 25,-11.202 25,-25l0,-50Zm-16.666,-0l-0,50c-0,4.599 -3.734,8.333 -8.334,8.333l-50,0c-4.599,0 -8.333,-3.734 -8.333,-8.333l0,-50c0,-4.599 3.734,-8.333 8.333,-8.333c0,-0 50,-0 50,-0c4.6,-0 8.334,3.734 8.334,8.333Z"/>
        <path fill="#e2e2e4" d="M3137.66,3691.67c-0,-13.798 -11.202,-25 -25,-25l-50,-0c-13.798,-0 -25,11.202 -25,25l-0,50c-0,13.798 11.202,25 25,25l50,-0c13.798,-0 25,-11.202 25,-25l-0,-50Z"/>
        <path fill="#e2e2e4" d="M3021,3575c0,-13.798 -11.202,-25 -25,-25l-50,0c-13.798,0 -25,11.202 -25,25l0,50c0,13.798 11.202,25 25,25l50,0c13.798,0 25,-11.202 25,-25l0,-50Z"/>
        <text x="2425.26" y="3626.25" fill="#e2e2e4" font-family="'OCRAExtended', 'OCR A Extended', monospace" font-size="75">Player 1</text>
      </g>
      <path id="Down-left-arrow5" fill="#e2e2e4" d="M2150,3766.67l0,212.5l41.667,-0l-0,-141.371l135.251,135.252l29.463,-29.463l-135.252,-135.252c0,0 141.371,0 141.371,0l-0,-41.666l-212.5,-0Z"/>
      <g id="done-timer-bg-p1" fill="#ea7d30">
        <path d="M958.333,3766.67l71.598,-0l150,150l-71.598,-0l-150,-150Z"/>
        <path d="M1008.33,3766.67l1133.33,-0l-0,158.333l-108.334,108.333l-758.333,0l-266.667,-266.666Z"/>
      </g>
      <g id="name-panel-p1">
        <path fill="#ea7d30" d="M250,3766.67l720.833,-0l150,150l-720.833,-0l-150,-150Z"/>
        <path fill="#ff0303" d="M3200,3416.67l-50,-0l-100,100l50,-0l100,-100Z"/>
        <path fill="#546893" d="M2375,3416.67l-2000,-0l-125,125l0,208.333l1891.67,0l233.333,-233.333l0,-100Z"/>
        <path fill="#546893" d="M2875,3416.67l-504.167,-0l0,100l404.167,-0l100,-100Z"/>
        <path fill="#546893" d="M3125,3416.67l-100,-0l-100,100l100,-0l100,-100Z"/>
        <path fill="#e2e2e4" d="M3000,3416.67l-100,-0l-100,100l100,-0l100,-100Z"/>
      </g>
    </g>
  </g>
</svg>
