<svg xmlns="http://www.w3.org/2000/svg" xml:space="preserve" fill-rule="evenodd" stroke-linecap="round" stroke-linejoin="round" stroke-miterlimit="1.5" clip-rule="evenodd" viewBox="0 0 10667 6000">
  <g id="_1p-backgrounds">
    <path id="full-background" fill="#e2e2e4" d="M0 0H10666.7V6000H0z"/>
    <path id="lower-background" fill="#1a2336" d="M0 3416.67H10666.7V6000H0z"/>
    <g id="Glyphs">
      <g id="Top---bottom">
        <path fill="none" stroke="#e2e2e4" stroke-width="31.75" d="M1258.91,2742.35l16.437,39.682"/>
        <path fill="none" stroke="#e2e2e4" stroke-width="31.75" d="M1275.34,2901.08l-16.437,39.683"/>
        <path fill="none" stroke="#e2e2e4" stroke-width="31.75" d="M1324.66,2901.08l16.437,39.683"/>
        <path fill="none" stroke="#e2e2e4" stroke-width="31.75" d="M1324.66,2782.03l16.437,-39.682"/>
        <path id="Ring" fill="#e2e2e4" d="M1300,2674.89c91.986,-0 166.667,74.68 166.667,166.666c-0,91.986 -74.681,166.667 -166.667,166.667c-91.986,-0 -166.667,-74.681 -166.667,-166.667c0,-91.986 74.681,-166.666 166.667,-166.666Zm0,31.746c74.465,-0 134.921,60.455 134.921,134.92c-0,74.465 -60.456,134.921 -134.921,134.921c-74.465,-0 -134.921,-60.456 -134.921,-134.921c0,-74.465 60.456,-134.92 134.921,-134.92Z"/>
      </g>
      <g id="Screwhead">
        <path fill="none" stroke="#e2e2e4" stroke-width="31.75" d="M1650.57,2742.35l16.437,39.682"/>
        <path fill="none" stroke="#e2e2e4" stroke-width="31.75" d="M1632.14,2866.21l-39.683,16.437"/>
        <path fill="none" stroke="#e2e2e4" stroke-width="31.75" d="M1716.32,2901.08l16.437,39.683"/>
        <path fill="none" stroke="#e2e2e4" stroke-width="31.75" d="M1751.19,2816.9l39.683,-16.437"/>
        <path fill="none" stroke="#e2e2e4" stroke-width="31.75" d="M1650.57,2940.76l82.185,-198.413"/>
        <path id="Ring1" fill="#e2e2e4" d="M1691.67,2674.89c91.986,-0 166.666,74.68 166.666,166.666c0,91.986 -74.68,166.667 -166.666,166.667c-91.986,-0 -166.667,-74.681 -166.667,-166.667c0,-91.986 74.681,-166.666 166.667,-166.666Zm-0,31.746c74.464,-0 134.92,60.455 134.92,134.92c0,74.465 -60.456,134.921 -134.92,134.921c-74.465,-0 -134.921,-60.456 -134.921,-134.921c0,-74.465 60.456,-134.92 134.921,-134.92Z"/>
      </g>
      <g id="left---right">
        <path fill="none" stroke="#e2e2e4" stroke-width="31.75" d="M1984.13,2882.65l39.683,-16.437"/>
        <path fill="none" stroke="#e2e2e4" stroke-width="31.75" d="M2142.86,2866.21l39.683,16.437"/>
        <path fill="none" stroke="#e2e2e4" stroke-width="31.75" d="M2142.86,2816.9l39.683,-16.437"/>
        <path fill="none" stroke="#e2e2e4" stroke-width="31.75" d="M2023.81,2816.9l-39.683,-16.437"/>
        <path id="Ring2" fill="#e2e2e4" d="M1916.67,2841.56c-0,-91.986 74.68,-166.666 166.666,-166.666c91.986,-0 166.667,74.68 166.667,166.666c0,91.986 -74.681,166.667 -166.667,166.667c-91.986,-0 -166.666,-74.681 -166.666,-166.667Zm31.746,0c-0,-74.465 60.456,-134.92 134.92,-134.92c74.465,-0 134.921,60.455 134.921,134.92c-0,74.465 -60.456,134.921 -134.921,134.921c-74.464,-0 -134.92,-60.456 -134.92,-134.921Z"/>
      </g>
      <g id="Loading-7">
        <path fill="none" stroke="#e2e2e4" stroke-width="31.75" d="M2023.81,2425.24l-39.683,-16.437"/>
        <path fill="none" stroke="#e2e2e4" stroke-width="31.75" d="M2023.81,2474.55l-39.683,16.437"/>
        <path fill="none" stroke="#e2e2e4" stroke-width="31.75" d="M2058.68,2509.41l-16.437,39.683"/>
        <path fill="none" stroke="#e2e2e4" stroke-width="31.75" d="M2107.99,2509.41l16.437,39.683"/>
        <path fill="none" stroke="#e2e2e4" stroke-width="31.75" d="M2142.86,2474.55l39.683,16.437"/>
        <path fill="none" stroke="#e2e2e4" stroke-width="31.75" d="M2142.86,2425.24l39.683,-16.437"/>
        <path fill="none" stroke="#e2e2e4" stroke-width="31.75" d="M2107.99,2390.37l16.437,-39.683"/>
        <path id="Ring3" fill="#e2e2e4" d="M2083.33,2283.22c91.986,-0 166.667,74.681 166.667,166.667c0,91.985 -74.681,166.666 -166.667,166.666c-91.986,0 -166.666,-74.681 -166.666,-166.666c-0,-91.986 74.68,-166.667 166.666,-166.667Zm0,31.746c74.465,-0 134.921,60.456 134.921,134.921c-0,74.464 -60.456,134.92 -134.921,134.92c-74.464,0 -134.92,-60.456 -134.92,-134.92c-0,-74.465 60.456,-134.921 134.92,-134.921Z"/>
      </g>
      <g id="Aperture">
        <path fill="none" stroke="#e2e2e4" stroke-width="31.75" d="M1650.57,2350.68l-17.941,58.072"/>
        <path fill="none" stroke="#e2e2e4" stroke-width="31.75" d="M1620.84,2462.55l-28.377,-53.749"/>
        <path fill="none" stroke="#e2e2e4" stroke-width="31.75" d="M1650.53,2508.92l-58.072,-17.941"/>
        <path fill="none" stroke="#e2e2e4" stroke-width="31.75" d="M1704.32,2520.72l-53.749,28.377"/>
        <path fill="none" stroke="#e2e2e4" stroke-width="31.75" d="M1750.7,2491.03l-17.941,58.072"/>
        <path fill="none" stroke="#e2e2e4" stroke-width="31.75" d="M1762.5,2437.23l28.377,53.749"/>
        <path fill="none" stroke="#e2e2e4" stroke-width="31.75" d="M1732.8,2390.86l58.072,17.941"/>
        <path fill="none" stroke="#e2e2e4" stroke-width="31.75" d="M1679.01,2379.06l53.749,-28.377"/>
        <path id="Ring4" fill="#e2e2e4" d="M1691.67,2283.22c91.986,-0 166.666,74.681 166.666,166.667c0,91.985 -74.68,166.666 -166.666,166.666c-91.986,0 -166.667,-74.681 -166.667,-166.666c0,-91.986 74.681,-166.667 166.667,-166.667Zm-0,31.746c74.464,-0 134.92,60.456 134.92,134.921c0,74.464 -60.456,134.92 -134.92,134.92c-74.465,0 -134.921,-60.456 -134.921,-134.92c0,-74.465 60.456,-134.921 134.921,-134.921Z"/>
      </g>
    </g>
  </g>
  <g id="header-solo">
    <g id="header_left">
      <path fill="#ea7d30" d="M2791.67,50l-2691.67,-0l0,233.333l2587.5,0l104.167,-104.166l-0,-129.167Z"/>
      <g id="Carets" fill="#e2e2e4" fill-rule="nonzero">
        <path d="M2453.92,95.033c-14.6,0 -21.913,17.654 -11.588,27.979l32.063,32.067c6.404,6.4 6.404,16.775 -0,23.175l-32.063,32.067c-10.325,10.325 -3.012,27.979 11.588,27.979c4.346,-0 8.517,-1.725 11.587,-4.8l55.246,-55.246c6.4,-6.4 6.4,-16.775 0,-23.175l-55.246,-55.246c-3.07,-3.075 -7.241,-4.8 -11.587,-4.8"/>
        <path d="M2543.9,95.033c-14.6,0 -21.913,17.654 -11.588,27.979l32.063,32.067c6.404,6.4 6.404,16.775 -0,23.175l-32.063,32.067c-10.325,10.325 -3.012,27.979 11.588,27.979c4.345,-0 8.516,-1.725 11.587,-4.8l55.246,-55.246c6.4,-6.4 6.4,-16.775 -0,-23.175l-55.246,-55.246c-3.071,-3.075 -7.242,-4.8 -11.587,-4.8"/>
      </g>
      <g id="Carets1" fill="#e2e2e4" fill-rule="nonzero">
        <path d="M166.421,95.033c-14.6,0 -21.913,17.654 -11.588,27.979l32.063,32.067c6.404,6.4 6.404,16.775 -0,23.175l-32.063,32.067c-10.325,10.325 -3.012,27.979 11.588,27.979c4.346,-0 8.517,-1.725 11.587,-4.8l55.246,-55.246c6.4,-6.4 6.4,-16.775 0,-23.175l-55.246,-55.246c-3.07,-3.075 -7.241,-4.8 -11.587,-4.8"/>
        <path d="M256.403,95.033c-14.6,0 -21.913,17.654 -11.588,27.979l32.063,32.067c6.404,6.4 6.404,16.775 -0,23.175l-32.063,32.067c-10.325,10.325 -3.012,27.979 11.588,27.979c4.345,-0 8.516,-1.725 11.587,-4.8l55.246,-55.246c6.4,-6.4 6.4,-16.775 -0,-23.175l-55.246,-55.246c-3.071,-3.075 -7.242,-4.8 -11.587,-4.8"/>
      </g>
      <g id="JP-Text">
        <text x="1577.08" y="161.25" fill="#e2e2e4" font-family="'DelaGothicOne-Regular', 'Dela Gothic One'" font-size="125">スピードラン</text>
        <path fill="none" d="M1566.67 175H2337.503V283.333H1566.67z"/>
        <clipPath id="_clip1">
          <path d="M1566.67 175H2337.503V283.333H1566.67z"/>
        </clipPath>
        <g clip-path="url(#_clip1)">
          <g id="Hatching" fill="#e2e2e4">
            <path d="M1599.02,129.659l-7.216,-4.166l-116.667,202.072l7.217,4.167l116.666,-202.073Z"/>
            <path d="M1615.68,129.659l-7.217,-4.166l-116.666,202.072l7.216,4.167l116.667,-202.073Z"/>
            <path d="M1632.35,129.659l-7.217,-4.166l-116.667,202.072l7.217,4.167l116.667,-202.073Z"/>
            <path d="M1649.02,129.659l-7.216,-4.166l-116.667,202.072l7.217,4.167l116.666,-202.073Z"/>
            <path d="M1665.68,129.659l-7.217,-4.166l-116.666,202.072l7.216,4.167l116.667,-202.073Z"/>
            <path d="M1682.35,129.659l-7.217,-4.166l-116.667,202.072l7.217,4.167l116.667,-202.073Z"/>
            <path d="M1699.02,129.659l-7.216,-4.166l-116.667,202.072l7.217,4.167l116.666,-202.073Z"/>
            <path d="M1715.68,129.659l-7.217,-4.166l-116.666,202.072l7.216,4.167l116.667,-202.073Z"/>
            <path d="M1732.35,129.659l-7.217,-4.166l-116.667,202.072l7.217,4.167l116.667,-202.073Z"/>
            <path d="M1749.02,129.659l-7.216,-4.166l-116.667,202.072l7.217,4.167l116.666,-202.073Z"/>
            <path d="M1765.68,129.659l-7.217,-4.166l-116.666,202.072l7.216,4.167l116.667,-202.073Z"/>
            <path d="M1782.35,129.659l-7.217,-4.166l-116.667,202.072l7.217,4.167l116.667,-202.073Z"/>
            <path d="M1799.02,129.659l-7.216,-4.166l-116.667,202.072l7.217,4.167l116.666,-202.073Z"/>
            <path d="M1815.68,129.659l-7.217,-4.166l-116.666,202.072l7.216,4.167l116.667,-202.073Z"/>
            <path d="M1832.35,129.659l-7.217,-4.166l-116.667,202.072l7.217,4.167l116.667,-202.073Z"/>
            <path d="M1849.02,129.659l-7.216,-4.166l-116.667,202.072l7.217,4.167l116.666,-202.073Z"/>
            <path d="M1865.68,129.659l-7.217,-4.166l-116.666,202.072l7.216,4.167l116.667,-202.073Z"/>
            <path d="M1882.35,129.659l-7.217,-4.166l-116.667,202.072l7.217,4.167l116.667,-202.073Z"/>
            <path d="M1899.02,129.659l-7.216,-4.166l-116.667,202.072l7.217,4.167l116.666,-202.073Z"/>
            <path d="M1915.68,129.659l-7.217,-4.166l-116.666,202.072l7.216,4.167l116.667,-202.073Z"/>
            <path d="M1932.35,129.659l-7.217,-4.166l-116.667,202.072l7.217,4.167l116.667,-202.073Z"/>
            <path d="M1949.02,129.659l-7.216,-4.166l-116.667,202.072l7.217,4.167l116.666,-202.073Z"/>
            <path d="M1965.68,129.659l-7.217,-4.166l-116.666,202.072l7.216,4.167l116.667,-202.073Z"/>
            <path d="M1982.35,129.659l-7.217,-4.166l-116.667,202.072l7.217,4.167l116.667,-202.073Z"/>
            <path d="M1999.02,129.659l-7.216,-4.166l-116.667,202.072l7.217,4.167l116.666,-202.073Z"/>
            <path d="M2015.68,129.659l-7.217,-4.166l-116.666,202.072l7.216,4.167l116.667,-202.073Z"/>
            <path d="M2032.35,129.659l-7.217,-4.166l-116.667,202.072l7.217,4.167l116.667,-202.073Z"/>
            <path d="M2049.01,129.659l-7.216,-4.166l-116.667,202.072l7.217,4.167l116.666,-202.073Z"/>
            <path d="M2065.68,129.659l-7.217,-4.166l-116.666,202.072l7.216,4.167l116.667,-202.073Z"/>
            <path d="M2082.35,129.659l-7.217,-4.166l-116.667,202.072l7.217,4.167l116.667,-202.073Z"/>
            <path d="M2099.01,129.659l-7.216,-4.166l-116.667,202.072l7.217,4.167l116.666,-202.073Z"/>
            <path d="M2115.68,129.659l-7.217,-4.166l-116.666,202.072l7.216,4.167l116.667,-202.073Z"/>
            <path d="M2132.35,129.659l-7.217,-4.166l-116.667,202.072l7.217,4.167l116.667,-202.073Z"/>
            <path d="M2149.01,129.659l-7.216,-4.166l-116.667,202.072l7.217,4.167l116.666,-202.073Z"/>
            <path d="M2165.68,129.659l-7.217,-4.166l-116.666,202.072l7.216,4.167l116.667,-202.073Z"/>
            <path d="M2182.35,129.659l-7.217,-4.166l-116.667,202.072l7.217,4.167l116.667,-202.073Z"/>
            <path d="M2199.01,129.659l-7.216,-4.166l-116.667,202.072l7.217,4.167l116.666,-202.073Z"/>
            <path d="M2215.68,129.659l-7.217,-4.166l-116.666,202.072l7.216,4.167l116.667,-202.073Z"/>
            <path d="M2232.35,129.659l-7.217,-4.166l-116.667,202.072l7.217,4.167l116.667,-202.073Z"/>
            <path d="M2249.01,129.659l-7.216,-4.166l-116.667,202.072l7.217,4.167l116.666,-202.073Z"/>
            <path d="M2265.68,129.659l-7.217,-4.166l-116.666,202.072l7.216,4.167l116.667,-202.073Z"/>
            <path d="M2282.35,129.659l-7.217,-4.166l-116.667,202.072l7.217,4.167l116.667,-202.073Z"/>
            <path d="M2299.01,129.659l-7.216,-4.166l-116.667,202.072l7.217,4.167l116.666,-202.073Z"/>
            <path d="M2315.68,129.659l-7.217,-4.166l-116.666,202.072l7.216,4.167l116.667,-202.073Z"/>
            <path d="M2332.35,129.659l-7.217,-4.166l-116.667,202.072l7.217,4.167l116.667,-202.073Z"/>
            <path d="M2349.01,129.659l-7.216,-4.166l-116.667,202.072l7.217,4.167l116.666,-202.073Z"/>
            <path d="M2365.68,129.659l-7.217,-4.166l-116.666,202.072l7.216,4.167l116.667,-202.073Z"/>
            <path d="M2382.35,129.659l-7.217,-4.166l-116.667,202.072l7.217,4.167l116.667,-202.073Z"/>
            <path d="M2399.01,129.659l-7.216,-4.166l-116.667,202.072l7.217,4.167l116.666,-202.073Z"/>
            <path d="M2415.68,129.659l-7.217,-4.166l-116.666,202.072l7.216,4.167l116.667,-202.073Z"/>
            <path d="M2432.35,129.659l-7.217,-4.166l-116.667,202.072l7.217,4.167l116.667,-202.073Z"/>
          </g>
        </g>
      </g>
      <text x="450.383" y="283.183" fill="#e2e2e4" font-family="Fusion" font-size="287.5">LCNS</text>
    </g>
    <g id="header_right">
      <path fill="#ea7d30" d="M2812.5 50H10266.67V179.167H2812.5z"/>
      <g id="Barcode" fill="#e2e2e4">
        <path d="M7694.58 50H7719.58V179.167H7694.58z"/>
        <path d="M7737.54 50H7762.54V179.167H7737.54z"/>
        <path d="M7829.21 50H7875.043V179.167H7829.21z"/>
        <path d="M8391.71 50H8437.543V179.167H8391.71z"/>
        <path d="M8458.37 50H8504.203V179.167H8458.37z"/>
        <path d="M8704.22 50H8750.053V179.167H8704.22z"/>
        <path d="M8791.69 50H8837.523V179.167H8791.69z"/>
        <path d="M9175.04 50.001H9220.873V179.168H9175.04z"/>
        <path d="M9241.71 50H9287.543V179.167H9241.71z"/>
        <path d="M9575.04 50.001H9620.873V179.168H9575.04z"/>
        <path d="M7941.71 50H8029.21V179.167H7941.71z"/>
        <path d="M8141.71 50H8229.21V179.167H8141.71z"/>
        <path d="M8550.04 50H8616.707V179.167H8550.04z"/>
        <path d="M8904.21 50H8970.877V179.167H8904.21z"/>
        <path d="M9083.35 50.001H9150.017V179.168H9083.35z"/>
        <path d="M9691.72 50.001H9779.22V179.168H9691.72z"/>
        <path d="M7895.87 50H7920.87V179.167H7895.87z"/>
        <path d="M8050.04 50H8075.04V179.167H8050.04z"/>
        <path d="M8095.87 50H8120.87V179.167H8095.87z"/>
        <path d="M8254.21 50H8279.21V179.167H8254.21z"/>
        <path d="M8300.04 50H8325.04V179.167H8300.04z"/>
        <path d="M8345.87 50H8370.87V179.167H8345.87z"/>
        <path d="M8637.54 50H8662.54V179.167H8637.54z"/>
        <path d="M9016.71 50H9041.71V179.167H9016.71z"/>
        <path d="M9329.19 50H9354.19V179.167H9329.19z"/>
        <path d="M9375.03 50.001H9400.03V179.168H9375.03z"/>
        <path d="M9441.71 50H9466.71V179.167H9441.71z"/>
        <path d="M9487.54 50H9512.54V179.167H9487.54z"/>
        <path d="M9641.71 50H9666.71V179.167H9641.71z"/>
      </g>
    </g>
  </g>
  <g id="_16:9-Solo">
    <path fill="#fff" stroke="#000" stroke-linecap="butt" stroke-miterlimit="2" stroke-width="6.25" d="M7236.27,5661c35.63,48.842 85.233,86.908 142.929,108.331l-380.768,-0l-0,-108.331l237.839,-0Zm2679.19,108.331l-2320,-0c57.696,-21.424 107.3,-59.489 142.93,-108.331l2177.07,-0l-0,108.331Z"/>
    <path fill="#5daeff" stroke="#000" stroke-linecap="butt" stroke-miterlimit="2" stroke-width="6.25" d="M7280.88,5684.37c54.404,54.405 128.193,84.969 205.133,84.969c160.112,-0 290.102,-129.991 290.102,-290.102c0,-160.112 -129.99,-290.103 -290.102,-290.103c-76.94,0 -150.729,30.564 -205.133,84.969l56.993,56.994c39.289,-39.289 92.577,-61.361 148.14,-61.361c115.627,-0 209.501,93.874 209.501,209.501c-0,115.626 -93.874,209.5 -209.501,209.5c-55.563,0 -108.851,-22.072 -148.14,-61.361l-56.993,56.994Z"/>
    <g fill="#fff" stroke="#000" stroke-linecap="butt" stroke-miterlimit="1.414" stroke-width="1.27" font-family="'AgencyFB-Bold', 'Agency FB', sans-serif" font-size="135" font-stretch="condensed" font-weight="700">
      <text x="64.433" y="149.134" transform="matrix(4.91518 0 0 4.90766 6651.27 4908.93)">L</text>
      <text x="114.136" y="149.134" transform="matrix(4.91518 0 0 4.90766 6651.27 4908.93)">i</text>
      <text x="143.944" y="149.134" transform="matrix(4.91518 0 0 4.90766 6651.27 4908.93)">censeathon</text>
    </g>
    <path fill="none" stroke="#e2e2e4" stroke-linecap="butt" stroke-linejoin="miter" stroke-miterlimit="2" stroke-width="16.67" d="M3700,6058.33c0,-126.48 102.686,-229.166 229.167,-229.166l6408.33,-0c126.481,-0 229.167,-102.686 229.167,-229.167l-0,-5088.61c-0,-126.48 -102.686,-229.166 -229.167,-229.166"/>
    <g id="Red-Box">
      <path fill="#ff0303" d="M2533.33 5508.33H3929.16V5716.663H2533.33z"/>
      <path fill="#e2e2e4" d="M3945.83,5733.33l0,-241.666l-1429.17,-0l-0,241.666l1429.17,0Zm-16.666,-225l-1395.83,0l0,208.334l1395.83,-0l-0,-208.334Z"/>
      <g>
        <text x="2784.95" y="5859.44" fill="#e2e2e4" font-family="'DelaGothicOne-Regular', 'Dela Gothic One'" font-size="140.25" transform="matrix(1 0 0 .96687 0 .092)">ライセンスゲーム</text>
      </g>
      <g>
        <g>
          <g>
            <path fill="none" stroke="#e2e2e4" stroke-linecap="butt" stroke-miterlimit="2" stroke-width=".98" d="M667.246,1337.72c-0.755,0.544 -1.246,1.432 -1.246,2.434l0,6.983c0,0.814 0.33,1.592 0.915,2.157c-0.182,0.207 -0.337,0.441 -0.459,0.698c-0.484,1.026 -0.35,2.237 0.348,3.13c0.769,0.984 1.472,2.092 2.112,3.322c0.664,1.275 1.203,2.47 1.611,3.588c0.484,1.324 1.825,2.133 3.222,1.943c5.29,-0.719 9.66,-1.655 13.113,-2.79c3.71,-1.219 6.754,-2.839 9.156,-4.819c2.446,-2.016 4.487,-4.589 6.1,-7.735c0.52,-1.014 0.421,-2.235 -0.256,-3.151l-2.691,-3.644c0.073,-0.259 0.112,-0.532 0.112,-0.814l-0,-5.076c-0,-1.657 -1.343,-3 -3,-3l-26.037,0c-1.657,0 -3,1.343 -3,3l0,3.774Z" transform="translate(0 -.02) scale(4.16667)"/>
          </g>
        </g>
        <g>
          <g>
            <path fill="none" stroke="#e2e2e4" stroke-linecap="butt" stroke-miterlimit="2" stroke-width=".98" d="M736.196,1339.1c0.583,-0.74 0.784,-1.711 0.543,-2.622c-0.241,-0.911 -0.896,-1.656 -1.768,-2.011l-8.488,-3.46c-1.261,-0.513 -2.709,-0.114 -3.528,0.973c-1.666,2.21 -4.028,3.834 -7.041,4.932c-1.554,0.553 -3.539,0.917 -5.948,1.127c-2.636,0.23 -5.675,0.333 -9.118,0.312c-1.015,-0.006 -1.965,0.502 -2.523,1.35c-0.559,0.847 -0.651,1.92 -0.244,2.851c0.487,1.116 0.835,2.185 1.032,3.212c0.222,1.159 0.417,2.531 0.586,4.117c0.171,1.602 1.576,2.782 3.183,2.675c3.312,-0.221 6.231,-0.492 8.758,-0.812c-0,0 -0,6.612 -0,6.612c-0,1.657 1.343,3 3,3l9.33,0c1.656,0 3,-1.343 3,-3l-0,-11.086c1.603,-0.9 3.027,-1.879 4.274,-2.932c1.63,-1.377 3.284,-3.119 4.952,-5.238Z" transform="translate(0 -.02) scale(4.16667)"/>
          </g>
        </g>
        <g>
          <g>
            <path fill="none" stroke="#e2e2e4" stroke-linecap="butt" stroke-miterlimit="2" stroke-width=".98" d="M766.895,1348.46c1.209,-1.565 2.228,-3.318 3.051,-5.262c0.291,-0.686 0.316,-1.455 0.071,-2.159l-2.392,-6.854c-0.456,-1.308 -1.75,-2.134 -3.129,-1.996l-13.306,1.323c-0.21,-1.451 -1.459,-2.567 -2.969,-2.567l-8.252,0c-1.657,0 -3,1.343 -3,3l-0,0.971c-0,-0 -3.125,0.312 -3.125,0.312c-1.587,0.158 -2.772,1.529 -2.699,3.122l0.37,8.114c0.039,0.845 0.432,1.634 1.083,2.174c0.651,0.539 1.499,0.779 2.337,0.66l2.034,-0.289c-0,-0 -0,2.685 -0,2.685c-0,2.703 0.741,4.756 1.985,6.233c1.219,1.447 3.033,2.54 5.536,3.11c1.917,0.436 4.495,0.673 7.739,0.673c1.567,0 3.41,-0.049 5.53,-0.149c2.073,-0.097 4.303,-0.211 6.691,-0.34c1.591,-0.087 2.837,-1.402 2.837,-2.996c0,-1.521 0.031,-2.801 0.096,-3.84c0.057,-0.929 0.214,-1.918 0.463,-2.967c0.226,-0.95 -0.025,-1.951 -0.673,-2.682c-0.087,-0.099 -0.18,-0.191 -0.278,-0.276Z" transform="translate(0 -.02) scale(4.16667)"/>
          </g>
        </g>
        <g>
          <g>
            <path fill="none" stroke="#e2e2e4" stroke-linecap="butt" stroke-miterlimit="2" stroke-width=".98" d="M788.798,1336.8c-2.239,-0.887 -4.457,-1.682 -6.654,-2.385c-2.265,-0.725 -4.838,-1.471 -7.72,-2.24c-1.293,-0.345 -2.659,0.209 -3.346,1.357c-0.455,0.76 -1.176,1.708 -2.145,2.856c-1.011,1.199 -2,2.245 -2.971,3.137c-0.835,0.767 -1.165,1.94 -0.855,3.031c0.311,1.09 1.21,1.912 2.324,2.125c2.95,0.562 5.25,1.069 6.899,1.527c0.82,0.228 1.768,0.518 2.845,0.87c-2.406,0.369 -5.321,0.547 -8.745,0.547c-1.138,-0 -2.177,0.643 -2.685,1.662c-0.507,1.018 -0.395,2.236 0.29,3.144c0.769,1.019 1.359,2.011 1.752,2.986c0.449,1.113 0.901,2.482 1.361,4.107c0.392,1.387 1.716,2.299 3.152,2.171c4.816,-0.428 8.855,-1.102 12.12,-2.004c3.463,-0.956 6.486,-2.33 9.078,-4.1c2.978,-2.02 5.319,-4.474 7.03,-7.34c1.67,-2.795 2.844,-6.421 3.446,-10.902c0.207,-1.541 -0.796,-2.984 -2.312,-3.326c-1.878,-0.424 -3.463,-0.801 -4.755,-1.129c-1.242,-0.316 -2.501,-0.688 -3.775,-1.117c-0.856,-0.287 -1.795,-0.174 -2.558,0.308c-0.763,0.482 -1.268,1.281 -1.376,2.177c-0.108,0.895 -0.241,1.741 -0.4,2.538Z" transform="translate(0 -.02) scale(4.16667)"/>
          </g>
        </g>
        <g>
          <g>
            <path fill="none" stroke="#e2e2e4" stroke-linecap="butt" stroke-miterlimit="2" stroke-width=".98" d="M836.539,1352.67c0.533,-0.876 0.582,-1.963 0.13,-2.882c-0.452,-0.92 -1.342,-1.546 -2.361,-1.659c-0.729,-0.081 -1.463,-0.194 -2.201,-0.338c1.166,-1.276 2.261,-2.621 3.287,-4.036c0.643,-0.886 0.752,-2.051 0.285,-3.041l-3.199,-6.789c-0.498,-1.055 -1.562,-1.727 -2.729,-1.721l-25.599,0.129c-1.651,0.009 -2.985,1.35 -2.985,3l0,6.984c0,1.657 1.343,3 3,3l9.083,-0c-0.064,0.028 -0.129,0.057 -0.195,0.086c-3.096,1.351 -6.848,2.259 -11.248,2.759c-1.125,0.128 -2.083,0.879 -2.475,1.943c-0.392,1.063 -0.152,2.256 0.621,3.084c1.271,1.363 2.321,2.581 3.147,3.659c0.83,1.082 1.649,2.247 2.458,3.493c0.707,1.089 2.034,1.6 3.289,1.266c3.981,-1.061 7.671,-2.508 11.07,-4.338c3.294,1.703 6.24,3.129 8.836,4.279c0.744,0.329 1.59,0.343 2.343,0.037c0.754,-0.306 1.352,-0.905 1.655,-1.66c0.826,-2.054 2.094,-4.47 3.788,-7.255Z" transform="translate(0 -.02) scale(4.16667)"/>
          </g>
        </g>
        <g>
          <g>
            <path fill="none" stroke="#e2e2e4" stroke-linecap="butt" stroke-miterlimit="2" stroke-width=".98" d="M861.594,1327.92c-0.14,0.014 -0.28,0.038 -0.42,0.073l-2.728,0.679c-0.918,0.228 -1.674,0.876 -2.041,1.748c-0.367,0.872 -0.301,1.866 0.178,2.682l0.08,0.137l-2.033,-0c-0.076,-0.55 -0.304,-1.073 -0.667,-1.508c-0.57,-0.684 -1.414,-1.079 -2.304,-1.079l-9.464,0c-1.556,0 -2.853,1.189 -2.989,2.739c-0.201,2.302 -0.764,4.262 -1.752,5.861c-0.955,1.544 -2.361,2.797 -4.182,3.798c-0.871,0.479 -1.448,1.357 -1.541,2.346c-0.094,0.988 0.307,1.96 1.072,2.593c0.33,0.274 0.649,0.548 0.954,0.823c-0.253,0.234 -0.468,0.514 -0.631,0.831c-0.536,1.044 -0.414,2.304 0.312,3.226c0.644,0.818 1.219,1.738 1.731,2.756c0.567,1.129 1.183,2.602 1.855,4.416c0.456,1.231 1.658,2.022 2.969,1.954c3.852,-0.201 7.025,-0.499 9.519,-0.889c2.662,-0.416 4.882,-0.98 6.665,-1.669c1.901,-0.735 3.603,-1.701 5.11,-2.891c1.902,-1.473 3.505,-3.286 4.8,-5.443c0.864,-1.438 1.572,-2.974 2.122,-4.61c1.493,-0.173 2.652,-1.441 2.652,-2.98c-0,-1.971 0.215,-4.234 0.634,-6.789c0.142,-0.869 -0.104,-1.756 -0.674,-2.427c-0.105,-0.124 -0.219,-0.238 -0.341,-0.342c-0.018,-0.218 -0.06,-0.436 -0.127,-0.648c-0.556,-1.781 -1.339,-3.434 -2.346,-4.96c-0.701,-1.062 -1.994,-1.566 -3.229,-1.259l-2.728,0.679c-0.157,0.039 -0.309,0.09 -0.456,0.153Zm-11.259,18.593l-0.255,-0l-0.118,0.185l0.373,-0.185Z" transform="translate(0 -.02) scale(4.16667)"/>
          </g>
        </g>
        <g>
          <g>
            <path fill="none" stroke="#e2e2e4" stroke-linecap="butt" stroke-miterlimit="2" stroke-width=".98" d="M900.33,1353.37c1.657,-0 3,-1.343 3,-3l0,-7.565c0,-1.657 -1.343,-3 -3,-3l-29.202,-0c-1.657,-0 -3,1.343 -3,3l-0,7.565c-0,1.657 1.343,3 3,3l29.202,-0Z" transform="translate(0 -.02) scale(4.16667)"/>
          </g>
        </g>
        <g>
          <g>
            <path fill="none" stroke="#e2e2e4" stroke-linecap="butt" stroke-miterlimit="2" stroke-width=".98" d="M925.087,1360.03c0.287,0.55 0.74,1.004 1.303,1.29c0.773,0.392 1.677,0.431 2.48,0.107c1.495,-0.603 2.848,-1.113 4.061,-1.529c1.172,-0.402 2.429,-0.763 3.769,-1.084c0.795,-0.191 1.478,-0.698 1.89,-1.404c0.413,-0.706 0.519,-1.549 0.295,-2.336c-0.823,-2.89 -1.846,-5.724 -3.07,-8.502c-1.204,-2.734 -2.719,-5.713 -4.549,-8.936c-0.695,-1.225 -2.149,-1.801 -3.495,-1.385l-5.096,1.576c0.199,-0.545 0.413,-1.122 0.641,-1.732c0.319,-0.853 0.233,-1.806 -0.234,-2.589c-0.467,-0.783 -1.265,-1.311 -2.168,-1.435l-9.196,-1.261c-1.526,-0.209 -2.962,0.772 -3.323,2.269c-1.167,4.834 -2.68,9.726 -4.536,14.677c-0,-0 -1.205,-0 -1.205,-0c-0.97,-0 -1.881,0.47 -2.444,1.261c-0.563,0.791 -0.708,1.806 -0.39,2.723c0.3,0.863 0.52,1.754 0.661,2.671c0.162,1.062 0.33,2.383 0.503,3.964c0,0 0.066,0.663 0.066,0.663c0.156,1.571 1.504,2.753 3.082,2.702c4.071,-0.131 8.018,-0.355 11.839,-0.672c3.004,-0.248 6.042,-0.594 9.116,-1.038Zm-5.35,-13.851l-0.372,1.043c0.297,-0.026 0.589,-0.053 0.878,-0.08c-0.165,-0.319 -0.334,-0.64 -0.506,-0.963Z" transform="translate(0 -.02) scale(4.16667)"/>
          </g>
        </g>
      </g>
      <g id="Aperture1" fill="none" stroke="#e2e2e4" stroke-width="22.67">
        <path d="M2608.33,5541.67l-12.81,41.463"/>
        <path d="M2587.09,5621.54l-20.261,-38.377"/>
        <path d="M2608.3,5654.65l-41.464,-12.81"/>
        <path d="M2646.7,5663.07l-38.376,20.261"/>
        <path d="M2679.82,5641.87l-12.81,41.463"/>
        <path d="M2688.24,5603.46l20.261,38.377"/>
        <path d="M2667.04,5570.35l41.463,12.81"/>
        <path d="M2628.63,5561.93l38.377,-20.261"/>
      </g>
      <g id="Aperture2" fill="none" stroke="#e2e2e4" stroke-width="4.17">
        <path d="M2591.52,5536.47l-12.81,41.464c-2.867,9.282 2.332,19.131 11.614,21.998c9.282,2.868 19.132,-2.332 21.999,-11.614l12.81,-41.463c2.868,-9.282 -2.332,-19.131 -11.614,-21.999c-9.282,-2.867 -19.131,2.332 -21.999,11.614Z"/>
        <path d="M2602.65,5613.32l-20.261,-38.377c-4.536,-8.591 -15.177,-11.878 -23.768,-7.343c-8.591,4.536 -11.879,15.177 -7.343,23.768l20.261,38.377c4.536,8.591 15.177,11.879 23.768,7.343c8.591,-4.535 11.879,-15.177 7.343,-23.768Z"/>
        <path d="M2613.49,5637.84l-41.463,-12.809c-9.282,-2.868 -19.132,2.332 -21.999,11.614c-2.868,9.282 2.332,19.131 11.614,21.999l41.463,12.809c9.282,2.868 19.131,-2.332 21.999,-11.614c2.868,-9.282 -2.332,-19.131 -11.614,-21.999Z"/>
        <path d="M2638.49,5647.52l-38.377,20.261c-8.591,4.535 -11.879,15.177 -7.343,23.768c4.536,8.591 15.177,11.878 23.768,7.343l38.377,-20.261c8.591,-4.536 11.879,-15.177 7.343,-23.768c-4.536,-8.591 -15.177,-11.879 -23.768,-7.343Z"/>
        <path d="M2663.01,5636.68l-12.81,41.463c-2.867,9.282 2.333,19.131 11.615,21.999c9.282,2.867 19.131,-2.332 21.998,-11.614l12.81,-41.464c2.868,-9.282 -2.332,-19.131 -11.614,-21.998c-9.282,-2.868 -19.131,2.332 -21.999,11.614Z"/>
        <path d="M2672.68,5611.68l20.261,38.377c4.536,8.591 15.177,11.878 23.769,7.343c8.591,-4.536 11.878,-15.177 7.343,-23.768c-0,-0 -20.262,-38.377 -20.262,-38.377c-4.535,-8.591 -15.176,-11.879 -23.768,-7.343c-8.591,4.535 -11.878,15.177 -7.343,23.768Z"/>
        <path d="M2661.84,5587.16l41.464,12.809c9.282,2.868 19.131,-2.332 21.999,-11.614c2.867,-9.282 -2.333,-19.131 -11.615,-21.999l-41.463,-12.809c-9.282,-2.868 -19.131,2.332 -21.999,11.614c-2.867,9.282 2.333,19.131 11.614,21.999Z"/>
        <path d="M2636.84,5577.48l38.377,-20.261c8.591,-4.535 11.879,-15.177 7.343,-23.768c-4.535,-8.591 -15.177,-11.878 -23.768,-7.343l-38.377,20.261c-8.591,4.536 -11.878,15.177 -7.343,23.768c4.536,8.591 15.177,11.879 23.768,7.343Z"/>
      </g>
    </g>
    <path id="Lower-Curve" fill="#ea7d30" d="M10425,4770.83c-0,172.589 -139.911,312.5 -312.5,312.5c-908.919,0 -3487.5,0 -3487.5,0l0,264.326c0,80.059 -61.607,144.008 -141.667,144.008l-3950,-0l0,-533.334l-175,0c-115.059,0 -208.333,-93.274 -208.333,-208.333c0,-411.159 0,-1287.5 0,-1287.5l-2150,-0l0,-66.667l10425,0c0,0 0,887.189 0,1375Z"/>
    <path fill="#e2e2e4" d="M10441.7,4770.83l-0,-1391.67l-10458.3,-0l0,100l2150,-0c0,-0 0,1270.83 0,1270.83c0,124.264 100.736,225 225,225c0,-0 158.334,-0 158.334,-0c-0,0 -0,533.333 -0,533.333l3966.67,0c89.401,0 158.334,-71.274 158.334,-160.674c-0,-0 -0,-247.659 -0,-247.659c-0,-0 3470.83,-0 3470.83,-0c181.794,-0 329.167,-147.373 329.167,-329.167Zm-16.667,0c-0,172.589 -139.911,312.5 -312.5,312.5c-908.919,0 -3487.5,0 -3487.5,0l0,264.326c0,80.059 -61.607,144.008 -141.667,144.008l-3950,-0l0,-533.334l-175,0c-115.059,0 -208.333,-93.274 -208.333,-208.333c0,-411.159 0,-1287.5 0,-1287.5l-2150,0l0,-66.667l10425,0c0,0 0,887.189 0,1375Z"/>
    <g id="decals">
      <path fill="none" stroke="#e2e2e4" stroke-linecap="butt" stroke-linejoin="miter" stroke-miterlimit="2" stroke-width="8.33" d="M4420.83,5583.33l0,-166.666l2045.83,-0l-0,-75l166.666,-0"/>
      <path fill="none" stroke="#e2e2e4" stroke-linecap="square" stroke-linejoin="miter" stroke-miterlimit="2" stroke-width="8.33" d="M4420.83,5583.33l0,-83.333l304.167,-0l-0,-150"/>
      <path fill="none" stroke="#e2e2e4" stroke-linecap="square" stroke-linejoin="miter" stroke-miterlimit="2" stroke-width="8.33" d="M5029.17,5583.33l-0,-83.333l304.166,-0l0,83.333"/>
      <path fill="none" stroke="#e2e2e4" stroke-linecap="butt" stroke-linejoin="miter" stroke-miterlimit="2" stroke-width="3.37" d="M4929.98,5416.67l0,83.333l403.356,0l0,-83.333l0,83.333l304.167,0l-0,-83.333l-0,83.333l304.167,0l-0,-83.333l-0,83.333l304.166,0l0,-83.333"/>
      <path fill="none" stroke="#e2e2e4" stroke-linecap="square" stroke-linejoin="miter" stroke-miterlimit="2" stroke-width="8.33" d="M5333.33,5583.33l0,-83.333l304.167,-0l-0,83.333"/>
      <path fill="none" stroke="#e2e2e4" stroke-linecap="square" stroke-linejoin="miter" stroke-miterlimit="2" stroke-width="8.33" d="M5637.5,5583.33l-0,-83.333l304.167,-0l-0,83.333"/>
      <path fill="none" stroke="#e2e2e4" stroke-linecap="square" stroke-linejoin="miter" stroke-miterlimit="2" stroke-width="8.33" d="M5941.67,5583.33l-0,-83.333l304.166,-0l0,83.333"/>
      <path fill="none" stroke="#e2e2e4" stroke-linejoin="miter" stroke-miterlimit="2" stroke-width="16.67" d="M2525,5508.33l0,266.667c0,6.63 2.634,12.989 7.322,17.678c4.689,4.688 11.048,7.322 17.678,7.322c21.814,-0 50,-0 50,-0"/>
      <g id="Loading-2">
        <path fill="none" stroke="#e2e2e4" stroke-width="17.86" d="M5518.9,5629.88l22.321,-9.246"/>
        <path fill="none" stroke="#e2e2e4" stroke-width="17.86" d="M5499.28,5610.27l9.246,-22.322"/>
        <path id="Ring5" fill="#e2e2e4" d="M5485.42,5550c51.742,0 93.75,42.008 93.75,93.75c-0,51.742 -42.008,93.75 -93.75,93.75c-51.742,0 -93.75,-42.008 -93.75,-93.75c-0,-51.742 42.008,-93.75 93.75,-93.75Zm-0,17.857c41.886,0 75.893,34.007 75.893,75.893c-0,41.886 -34.007,75.893 -75.893,75.893c-41.887,-0 -75.893,-34.007 -75.893,-75.893c-0,-41.886 34.006,-75.893 75.893,-75.893Z"/>
      </g>
      <g id="Loading-3">
        <path fill="none" stroke="#e2e2e4" stroke-width="17.86" d="M5823.07,5657.62l22.322,9.246"/>
        <path fill="none" stroke="#e2e2e4" stroke-width="17.86" d="M5823.07,5629.88l22.322,-9.246"/>
        <path fill="none" stroke="#e2e2e4" stroke-width="17.86" d="M5803.45,5610.27l9.246,-22.322"/>
        <path id="Ring6" fill="#e2e2e4" d="M5789.58,5550c51.742,0 93.75,42.008 93.75,93.75c0,51.742 -42.008,93.75 -93.75,93.75c-51.742,0 -93.75,-42.008 -93.75,-93.75c0,-51.742 42.008,-93.75 93.75,-93.75Zm0,17.857c41.887,0 75.893,34.007 75.893,75.893c0,41.886 -34.006,75.893 -75.893,75.893c-41.886,-0 -75.893,-34.007 -75.893,-75.893c0,-41.886 34.007,-75.893 75.893,-75.893Z"/>
      </g>
      <g id="Loading-4">
        <path fill="none" stroke="#e2e2e4" stroke-width="17.86" d="M6107.62,5677.23l9.246,22.322"/>
        <path fill="none" stroke="#e2e2e4" stroke-width="17.86" d="M6127.23,5657.62l22.322,9.246"/>
        <path fill="none" stroke="#e2e2e4" stroke-width="17.86" d="M6127.23,5629.88l22.322,-9.246"/>
        <path fill="none" stroke="#e2e2e4" stroke-width="17.86" d="M6107.62,5610.27l9.246,-22.322"/>
        <path id="Ring7" fill="#e2e2e4" d="M6093.75,5550c51.742,0 93.75,42.008 93.75,93.75c-0,51.742 -42.008,93.75 -93.75,93.75c-51.742,0 -93.75,-42.008 -93.75,-93.75c-0,-51.742 42.008,-93.75 93.75,-93.75Zm-0,17.857c41.886,0 75.893,34.007 75.893,75.893c-0,41.886 -34.007,75.893 -75.893,75.893c-41.886,-0 -75.893,-34.007 -75.893,-75.893c0,-41.886 34.007,-75.893 75.893,-75.893Z"/>
      </g>
      <g>
        <text x="18261.5" y="12993.4" fill="#1a2336" font-family="'OCRAExtended', 'OCR A Extended', monospace" font-size="75" transform="rotate(-90 10104.185 12717.115)">GAME VIEW</text>
      </g>
      <path fill="#ff0303" stroke="#e2e2e4" stroke-linecap="square" stroke-linejoin="miter" stroke-miterlimit="2" stroke-width="16.67" d="M6535 5091.67H6633.333V5190.003H6535z"/>
      <path fill="#ff0303" stroke="#e2e2e4" stroke-linecap="square" stroke-linejoin="miter" stroke-miterlimit="2" stroke-width="16.67" d="M2525 4900H2591.667V4966.667H2525z"/>
      <path fill="none" stroke="#e2e2e4" stroke-miterlimit="2" stroke-width="16.67" d="M2479.17,5141.67l-0,-0c-0,18.409 -14.924,33.333 -33.334,33.333c-23.202,0 -50,0 -50,0m0,-150l50,0c18.41,0 33.334,14.924 33.334,33.333c-0,0 -0,0 -0,0m-375,0l-0,0c-0,-18.409 14.923,-33.333 33.333,-33.333c23.203,0 50,0 50,0m0,150l-50,0c-18.41,-0 -33.333,-14.924 -33.333,-33.333c-0,-0 -0,-0 -0,-0"/>
      <path fill="none" stroke="#e2e2e4" stroke-miterlimit="2" stroke-width="16.67" d="M2479.17,5341.67l-0,-0c-0,18.409 -14.924,33.333 -33.334,33.333c-23.202,0 -50,0 -50,0m0,-150l50,0c18.41,0 33.334,14.924 33.334,33.333c-0,0 -0,0 -0,0m-375,0l-0,0c-0,-18.409 14.923,-33.333 33.333,-33.333c23.203,0 50,0 50,0m0,150l-50,-0c-18.41,-0 -33.333,-14.924 -33.333,-33.333c-0,-0 -0,-0 -0,-0"/>
      <path fill="none" stroke="#e2e2e4" stroke-miterlimit="2" stroke-width="16.67" d="M2479.17,5741.67l-0,-0c-0,18.409 -14.924,33.333 -33.334,33.333c-23.202,0 -50,0 -50,0m0,-150l50,0c18.41,0 33.334,14.924 33.334,33.333c-0,0 -0,0 -0,0m-375,0l-0,0c-0,-18.409 14.923,-33.333 33.333,-33.333c23.203,0 50,0 50,0m0,150l-50,0c-18.41,-0 -33.333,-14.924 -33.333,-33.333c-0,-0 -0,-0 -0,-0"/>
    </g>
    <path id="Screen" fill="magenta" d="M10266.7,333.333l-8000,0l-0,4354.17c-0,80.488 65.345,145.833 145.833,145.833l7708.33,0c80.488,0 145.834,-65.345 145.834,-145.833l-0,-4354.17Z"/>
    <path fill="#e2e2e4" d="M10283.3,4687.5l0,-4370.83l-8033.33,-0l0,4370.83c0,89.686 72.814,162.5 162.5,162.5l7708.33,-0c89.687,-0 162.5,-72.814 162.5,-162.5Zm-16.666,-4354.17l-8000,0l-0,4354.17c-0,80.488 65.345,145.833 145.833,145.833l7708.33,0c80.488,0 145.834,-65.345 145.834,-145.833l-0,-4354.17Z"/>
    <g id="Camera-Group">
      <path id="camera" fill="none" d="M187.5 4445.83H2054.17V5845.83H187.5z"/>
      <clipPath id="_clip2">
        <path d="M187.5 4445.83H2054.17V5845.83H187.5z"/>
      </clipPath>
      <g clip-path="url(#_clip2)">
        <path id="Rectangle" fill="magenta" d="M187.5 4445.83H2054.17V5845.83H187.5z"/>
      </g>
      <path fill="#e2e2e4" d="M2070.83,5862.5l0,-1433.33l-1900,-0l0,1433.33l1900,0Zm-16.666,-1416.67l-1866.67,0l0,1400l1866.67,0l-0,-1400Z"/>
      <path id="Caret" fill="#e2e2e4" fill-rule="nonzero" d="M70.833,4479.17l0,-66.667l33.332,0l33.335,33.335l-33.335,33.332l-33.332,-0Z"/>
      <path id="Caret1" fill="#e2e2e4" fill-rule="nonzero" d="M2170.83,5812.5l0,66.667l-33.331,-0l-33.335,-33.336l33.335,-33.331l33.331,0Z"/>
      <path id="Caret2" fill="#e2e2e4" fill-rule="nonzero" d="M2087.5,5962.5l-66.667,0l0,-33.331l33.336,-33.336l33.331,33.336l0,33.331Z"/>
      <path id="Caret3" fill="#e2e2e4" fill-rule="nonzero" d="M154.167,4327.78l66.666,-0l0,33.331l-33.335,33.335l-33.331,-33.335l-0,-33.331Z"/>
      <g>
        <text x="-6564.02" y="13626.5" fill="#e2e2e4" font-family="'OCRAExtended', 'OCR A Extended', monospace" font-size="75" transform="rotate(-90 -7462.87 6043.73)">PLAYER CAMERA</text>
      </g>
      <g id="Subtitle-block" fill="none" fill-rule="nonzero" stroke="#e2e2e4" stroke-linecap="butt" stroke-linejoin="miter" stroke-miterlimit="10" stroke-width="8.33">
        <path d="M111.193,5166.67l34.64,-0l0,-625l-34.64,-0"/>
        <path d="M80.474,4541.67l-34.641,-0l0,625l34.641,-0"/>
      </g>
      <path fill="#e2e2e4" fill-rule="nonzero" d="M80.937,5288.43l-0,-8.803l34.127,-0l-57.144,-57.147l6.226,-6.227l57.145,57.144l-0,-34.127l8.805,0l0,49.16l-49.159,-0Zm60.26,11.104l0,-90.731l-90.728,-0l0,90.731l90.728,-0Zm-99.53,8.802l-0,-108.333l108.333,0l0,108.333l-108.333,0Z"/>
    </g>
    <g id="Right-panel">
      <g id="Struts" fill="none" stroke="#000" stroke-linecap="square" stroke-width="8.33">
        <path stroke-linejoin="miter" d="M10508.3,1550l41.667,0"/>
        <path d="M10508.3,1320.83l41.667,0"/>
        <path d="M10508.3,1091.67l41.667,-0"/>
        <path d="M10508.3,862.5l41.667,0"/>
        <path d="M10550,700l-0,2500"/>
      </g>
      <g id="Symbols">
        <g id="Trademark" font-family="OpineHeavy" font-size="97.621">
          <text x="10357" y="995.135">T</text>
          <text x="10399.3" y="1030.71">M</text>
        </g>
        <g id="Squigly-arrow" fill="none" stroke="#000" stroke-width="21.16">
          <path stroke-linejoin="miter" stroke-miterlimit="10" d="M10399.6,1171.22l-42.107,8.329l23.884,35.665"/>
          <path d="M10357.5,1179.55c-0,0 68.572,28.404 106.972,44.31c5.646,2.339 12.088,1.704 17.17,-1.691c5.081,-3.396 8.133,-9.104 8.133,-15.216c-0,-0.005 -0,-0.01 -0,-0.015c-0,-6.112 -3.052,-11.82 -8.133,-15.216c-5.082,-3.395 -11.524,-4.03 -17.17,-1.691c-4.423,1.832 -9.043,3.746 -13.518,5.599c-17.491,7.245 -31.387,21.142 -38.632,38.633c-7.543,18.209 -16.08,38.82 -16.08,38.82"/>
        </g>
        <g id="Aperture3" fill="none" stroke="#000" stroke-linejoin="miter" stroke-miterlimit="3" stroke-width="21.03">
          <path d="M10395.7,1369.69l-11.886,38.473"/>
          <path d="M10376,1443.8l-18.8,-35.609"/>
          <path d="M10395.7,1474.53l-38.473,-11.885"/>
          <path d="M10431.3,1482.34l-35.609,18.8"/>
          <path d="M10462,1462.67l-11.885,38.473"/>
          <path d="M10469.8,1427.03l18.8,35.609"/>
          <path d="M10450.2,1396.31l38.473,11.886"/>
          <path d="M10414.5,1388.49l35.609,-18.8"/>
        </g>
      </g>
      <path id="Bar" fill="#ea7d30" d="M10425,1667.07c-0,-30.905 -25.053,-55.958 -55.958,-55.958c-0,0 -0,0 -0,0c-14.841,0 -29.075,-5.895 -39.569,-16.39c-10.494,-10.494 -16.39,-24.727 -16.39,-39.568c0,-143.347 0,-522.515 0,-665.861c0,-14.841 5.896,-29.075 16.39,-39.569c10.494,-10.494 24.728,-16.39 39.569,-16.39c-0,0 -0,0 -0,0c30.905,0 55.958,-25.053 55.958,-55.958c0,-113.627 0,-360.708 0,-360.708c0,-45.993 -37.34,-83.334 -83.333,-83.334l-58.334,0l0,3166.67l141.667,-0l0,-1832.93Z"/>
    </g>
    <g id="player-text-container">
      <path fill="#ea7d30" d="M2062.5,4166.77c0,-34.494 -28.005,-62.5 -62.5,-62.5l-687.5,0l0,229.167c0,34.495 28.005,62.5 62.5,62.5l687.5,-0l0,-229.167Z"/>
      <path fill="#e2e2e4" d="M2070.83,4166.77c0,-39.094 -31.739,-70.833 -70.833,-70.833c-0,-0 -695.833,-0 -695.833,-0l-0,237.5c-0,39.094 31.739,70.833 70.833,70.833c0,0 695.833,0 695.833,0l0,-237.5Zm-8.333,0c0,-34.494 -28.005,-62.5 -62.5,-62.5l-687.5,0l0,229.167c0,34.495 28.005,62.5 62.5,62.5l687.5,-0l0,-229.167Z"/>
      <path fill="#546893" d="M1987.62,4004.27l-1800,0l0,250l1737.5,0c34.495,0 62.5,-28.005 62.5,-62.5l0,-187.5Z"/>
      <path fill="#e2e2e4" d="M1995.96,4191.77l-0,-195.833l-1816.67,-0l0,266.667l1745.83,-0c39.094,-0 70.834,-31.74 70.834,-70.834Zm-8.334,-187.5l-1800,0l0,250l1737.5,0c34.495,0 62.5,-28.005 62.5,-62.5l0,-187.5Z"/>
    </g>
    <g id="accent-text">
      <text id="aspect-ratio-text" x="9827.4" y="140.833" fill="#737b89" font-family="'OCRAExtended', 'OCR A Extended', monospace" font-size="75">1920X1080</text>
      <g id="platform-text">
        <text x="18727.9" y="-7400.01" fill="#737b89" font-family="'OCRAExtended', 'OCR A Extended', monospace" font-size="75" transform="rotate(90 10604.15 -7676.25)">MODERN</text>
      </g>
    </g>
  </g>
  <g id="Game-info-panel">
    <g id="Panel">
      <path id="Body" fill="#ea7d30" d="M100,466.667l0,2828.4l911.896,-0l-0,-262.322l1012.2,-1012.21l0,-1322.98l-230.892,-230.892l-1693.21,-0Z"/>
      <path id="Accent" fill="#1a2336" d="M1969.39,642.845l55.444,55.444l0.32,1321.2l-940.263,940.264c0,-0 -0.028,228.369 -0.04,331.923l-50,49.994l-884.851,-0l-50,-50.003c0.001,-26.716 0.003,-54.164 0.003,-54.164l857.182,0l0,-619.124c0,-14.511 5.765,-28.427 16.025,-38.688l253.447,-253.447c10.261,-10.26 24.177,-16.025 38.688,-16.025c0,0 180.751,0 180.751,0c-0,0 386.509,-386.509 386.509,-386.509l0,-180.751c0,-14.511 5.765,-28.428 16.025,-38.688c0,-0 120.76,-120.759 120.76,-120.759l-0,-940.664Z"/>
      <path id="Trim" fill="none" stroke="#e2e2e4" stroke-linecap="butt" stroke-linejoin="miter" stroke-width="16.67" d="M1974.1,591.687l0,993.774c0,0 -122.139,122.14 -122.139,122.14c-9.377,9.377 -14.645,22.094 -14.645,35.355l-0,182.703c-0,0 -389.271,389.271 -389.271,389.271c0,-0 -186.265,-0 -186.265,-0c-13.261,-0 -25.979,5.268 -35.356,14.645l-253.446,253.446c-9.377,9.377 -14.645,22.094 -14.645,35.355l0,627.457c0,0 -684.122,0 -882.77,0"/>
      <g id="decorations" stroke="#e2e2e4" stroke-linecap="butt" stroke-linejoin="miter">
        <path fill="none" stroke-miterlimit="3" stroke-width="16.67" d="M166.667,466.667l-0,566.666l50,50l1550,0"/>
        <path fill="none" stroke-miterlimit="3" stroke-width="16.67" d="M300,1078.15l0,2167.68"/>
        <path fill="none" stroke-miterlimit="3" stroke-width="16.67" d="M100,1891.73l66.667,-0l50,-50l-0,-258.334l50,-50l1500,0"/>
        <path fill="none" stroke-miterlimit="3" stroke-width="16.67" d="M333.333,3341.67l0,-1350l50,-50l1025,-0"/>
        <path fill="#ff0303" stroke-width="8.33" d="M304.167 1082.32H379.167V1157.32H304.167z"/>
      </g>
      <g id="arrows">
        <path id="Down-left-arrow" fill="#e2e2e4" d="M866.422,3175.85l-105.21,0l0,33.654l162.661,0l-0,-162.66l-33.654,-0l-0,105.209l-101.244,-101.243l-23.797,23.797l101.244,101.243Z"/>
        <path id="Down-left-arrow1" fill="#e2e2e4" d="M736.566,3209.51l0,-162.66l-33.654,-0l0,105.209l-101.243,-101.243l-23.797,23.797l101.243,101.243l-105.209,0l-0,33.654l162.66,0Z"/>
        <path id="Down-left-arrow2" d="M549.26,3209.51l-0,-162.66l-33.654,-0l-0,105.209l-101.244,-101.243l-23.797,23.797l101.244,101.243l-105.21,0l0,33.654l162.661,0Z"/>
      </g>
    </g>
    <text x="333.333" y="1904.74" fill="#e2e2e4" font-family="'NovaSquare', 'Nova Square', sans-serif" font-size="83.333">E<tspan x="378.377" y="1904.74">s</tspan>timate</text>
    <text x="1418.6" y="1623.2" fill="#e2e2e4" font-family="'NovaSquare', 'Nova Square', sans-serif" font-size="83.333">Category</text>
    <text x="1297.92" y="1173.2" fill="#e2e2e4" font-family="'NovaSquare', 'Nova Square', sans-serif" font-size="83.333">Game Name</text>
  </g>
</svg>
