<?xml version="1.0" encoding="UTF-8" standalone="no"?><!DOCTYPE svg PUBLIC "-//W3C//DTD SVG 1.1//EN" "http://www.w3.org/Graphics/SVG/1.1/DTD/svg11.dtd"><svg width="100%" height="100%" viewBox="0 0 16000 9000" version="1.1" xmlns="http://www.w3.org/2000/svg" xmlns:xlink="http://www.w3.org/1999/xlink" xml:space="preserve" xmlns:serif="http://www.serif.com/" style="fill-rule:evenodd;clip-rule:evenodd;stroke-linecap:round;stroke-linejoin:round;stroke-miterlimit:1.5;"><g id="_3-2-Solo" serif:id="3-2 Solo"><path id="Screen" d="M15916.7,241.667c-0,-44.203 -17.56,-86.595 -48.816,-117.851c-31.256,-31.257 -73.648,-48.816 -117.851,-48.816c-1226.39,-0 -8840.34,-0 -10066.7,-0c-44.203,-0 -86.596,17.559 -117.852,48.816c-31.256,31.256 -48.815,73.648 -48.815,117.851l-0,6600.04c-0,44.202 17.559,86.595 48.815,117.851c31.256,31.256 73.649,48.815 117.852,48.815c1226.39,0 8840.34,0 10066.7,0c44.203,0 86.595,-17.559 117.851,-48.815c31.256,-31.256 48.816,-73.649 48.816,-117.851c-0,-948.033 -0,-5652.01 -0,-6600.04Z" style="fill:#f0f;"/><path d="M15950,241.667c0,-53.044 -21.071,-103.914 -58.579,-141.422c-37.507,-37.507 -88.378,-58.578 -141.421,-58.578c-1226.39,-0 -8840.34,-0 -10066.7,-0c-53.044,-0 -103.915,21.071 -141.422,58.578c-37.507,37.508 -58.578,88.378 -58.578,141.422l-0,6600.04c-0,53.043 21.071,103.914 58.578,141.421c37.507,37.507 88.378,58.579 141.422,58.579c1226.39,-0 8840.34,-0 10066.7,-0c53.043,-0 103.914,-21.072 141.421,-58.579c37.508,-37.507 58.579,-88.378 58.579,-141.422l-0,-6600.04Zm-33.333,-0c-0,-44.203 -17.56,-86.595 -48.816,-117.851c-31.256,-31.257 -73.648,-48.816 -117.851,-48.816c-1226.39,-0 -8840.34,-0 -10066.7,-0c-44.203,-0 -86.596,17.559 -117.852,48.816c-31.256,31.256 -48.815,73.648 -48.815,117.851l-0,6600.04c-0,44.202 17.559,86.595 48.815,117.851c31.256,31.256 73.649,48.815 117.852,48.815c1226.39,0 8840.34,0 10066.7,0c44.203,0 86.595,-17.559 117.851,-48.815c31.256,-31.256 48.816,-73.649 48.816,-117.851c-0,-948.033 -0,-5652.01 -0,-6600.04Z" style="fill:#f2f2f2;"/><g id="Info-Container" serif:id="Info Container"><g><path d="M166.667,8770.97c-0,49.728 19.754,97.419 54.917,132.582c35.163,35.164 82.855,54.918 132.583,54.918c793.746,-0 3872.92,-0 4666.67,-0c49.728,-0 97.42,-19.754 132.583,-54.918c35.163,-35.163 54.917,-82.854 54.917,-132.582c0,-470.369 0,-1696.3 0,-2166.67c0,-49.728 -19.754,-97.419 -54.917,-132.582c-35.163,-35.163 -82.855,-54.918 -132.583,-54.918c-793.746,0 -3872.92,0 -4666.67,0c-49.728,0 -97.42,19.755 -132.583,54.918c-35.163,35.163 -54.917,82.854 -54.917,132.582c-0,470.369 -0,1696.3 -0,2166.67Z" style="fill:#f2f2f2;"/><g><path d="M5000,6991.8c-0,35.362 14.048,69.276 39.052,94.281c25.005,25.005 58.919,39.053 94.281,39.053c21.954,-0 44.713,-0 66.667,-0c35.362,-0 69.276,-14.048 94.281,-39.053c25.005,-25.005 39.052,-58.919 39.052,-94.281c0,-47.96 0,-102.04 0,-150c0,-35.362 -14.047,-69.276 -39.052,-94.281c-25.005,-25.004 -58.919,-39.052 -94.281,-39.052c-21.954,-0 -44.713,-0 -66.667,-0c-35.362,-0 -69.276,14.048 -94.281,39.052c-25.004,25.005 -39.052,58.919 -39.052,94.281c0,47.96 0,102.04 0,150Z" style="fill:#18191b;"/><path d="M5000,7725.13c-0,35.362 14.048,69.276 39.052,94.281c25.005,25.004 58.919,39.052 94.281,39.052c21.954,-0 44.713,-0 66.667,-0c35.362,-0 69.276,-14.048 94.281,-39.052c25.005,-25.005 39.052,-58.919 39.052,-94.281c0,-83.715 0,-191.285 0,-275c0,-35.363 -14.047,-69.276 -39.052,-94.281c-25.005,-25.005 -58.919,-39.053 -94.281,-39.053c-21.954,0 -44.713,0 -66.667,0c-35.362,0 -69.276,14.048 -94.281,39.053c-25.004,25.005 -39.052,58.918 -39.052,94.281c0,83.715 0,191.285 0,275Z" style="fill:#18191b;"/><path d="M5000,8308.47c-0,35.362 14.048,69.276 39.052,94.281c25.005,25.005 58.919,39.052 94.281,39.052c21.954,0 44.713,0 66.667,0c35.362,0 69.276,-14.047 94.281,-39.052c25.005,-25.005 39.052,-58.919 39.052,-94.281c0,-83.715 0,-191.285 0,-275c0,-35.362 -14.047,-69.276 -39.052,-94.281c-25.005,-25.005 -58.919,-39.052 -94.281,-39.052c-21.954,-0 -44.713,-0 -66.667,-0c-35.362,-0 -69.276,14.047 -94.281,39.052c-25.004,25.005 -39.052,58.919 -39.052,94.281c0,83.715 0,191.285 0,275Z" style="fill:#18191b;"/></g><path d="M41.667,8858.47c-0,26.522 10.535,51.957 29.289,70.711c18.754,18.753 44.189,29.289 70.711,29.289c657.177,-0 4351.16,-0 5008.33,-0c26.522,-0 51.957,-10.536 70.711,-29.289c18.753,-18.754 29.289,-44.189 29.289,-70.711c-0,-420.863 -0,-2045.8 -0,-2466.67c-0,-55.228 -44.772,-100 -100,-100c-507.373,0 -2792.63,0 -3300,0c-55.228,0 -100,44.772 -100,100c-0,143.54 -0,406.46 0,550c-0,55.229 -44.772,100 -100,100c-302.534,0 -1205.8,0 -1508.33,0c-26.522,0 -51.957,10.536 -70.711,29.29c-18.754,18.753 -29.289,44.189 -29.289,70.71c-0,330.599 -0,1386.07 -0,1716.67Z" style="fill:#ffba4a;"/><path d="M5166.67,7158.47c-0,-8.841 -3.512,-17.319 -9.763,-23.57c-6.252,-6.252 -14.73,-9.763 -23.571,-9.763c-414.411,-0 -4560.59,-0 -4975,-0c-8.84,-0 -17.319,3.511 -23.57,9.763c-6.251,6.251 -9.763,14.729 -9.763,23.57c0,199.525 0,1233.81 0,1433.33c-0,8.841 3.512,17.319 9.763,23.571c6.251,6.251 14.73,9.763 23.57,9.763c414.411,-0 4560.59,-0 4975,-0c8.841,-0 17.319,-3.512 23.571,-9.763c6.251,-6.252 9.763,-14.73 9.763,-23.571c-0,-199.525 -0,-1233.81 -0,-1433.33Z" style="fill:#d59b3e;"/></g><g id="Category-Group" serif:id="Category Group"><path d="M5083.33,7950.13c0,-18.41 -14.923,-33.334 -33.333,-33.334c-367.522,0 -3657.48,0 -4025,0c-18.41,0 -33.333,14.924 -33.333,33.334c-0,90.911 -0,342.422 -0,433.333c-0,18.409 14.923,33.333 33.333,33.333c367.522,0 3657.48,0 4025,0c18.41,0 33.333,-14.924 33.333,-33.333c0,-90.911 0,-342.422 0,-433.333Z" style="fill:#494b50;"/><path d="M5041.67,7991.8c-0,-18.409 -14.924,-33.333 -33.334,-33.333c-363.161,-0 -3578.51,-0 -3941.67,-0c-18.41,-0 -33.334,14.924 -33.334,33.333c0,78.051 0,271.949 0,350c0,18.41 14.924,33.334 33.334,33.334c363.161,-0 3578.51,-0 3941.67,-0c18.41,-0 33.334,-14.924 33.334,-33.334c-0,-78.051 -0,-271.949 -0,-350Z" style="fill:#a9ebdd;"/><g id="Decorations"><text id="Label" x="244.767px" y="8016.8px" style="font-family:'Karnivore';font-size:100px;fill:#494b50;">CATEGORY</text><g id="Knob--L-" serif:id="Knob (L)"><g id="Knob"><circle cx="700" cy="8257.28" r="104.167" style="fill:#f2f2f2;"/><path d="M700,8128.11c-71.289,-0 -129.167,57.877 -129.167,129.166c0,71.29 57.878,129.167 129.167,129.167c71.289,0 129.167,-57.877 129.167,-129.167c-0,-71.289 -57.878,-129.166 -129.167,-129.166Zm0,25c57.491,-0 104.167,46.675 104.167,104.166c-0,57.492 -46.676,104.167 -104.167,104.167c-57.491,0 -104.167,-46.675 -104.167,-104.167c0,-57.491 46.676,-104.166 104.167,-104.166Z" style="fill:#18191b;"/><path d="M700,8153.11l0,104.166" style="fill:none;stroke:#18191b;stroke-width:33.33px;"/></g><clipPath id="_clip1"><path id="Ticks" d="M817.851,8375.13c31.256,-31.256 48.816,-73.649 48.816,-117.852c-0,-91.985 -74.681,-166.666 -166.667,-166.666c-91.986,-0 -166.667,74.681 -166.667,166.666c0,44.203 17.56,86.596 48.816,117.852l58.925,-58.926c-15.628,-15.628 -24.407,-36.824 -24.407,-58.926c-0,-45.992 37.34,-83.333 83.333,-83.333c45.993,0 83.333,37.341 83.333,83.333c0,22.102 -8.779,43.298 -24.407,58.926l58.925,58.926Z"/></clipPath><g clip-path="url(#_clip1)"><path d="M700,8098.95l0,15.833m-48.928,-8.083l4.893,15.058m-49.031,7.431l9.307,12.81m-44.335,22.218l12.809,9.307m-35.299,34.832l15.058,4.893m-22.807,44.034l15.833,0m-8.084,48.928l15.058,-4.893m7.432,49.031l12.809,-9.306m22.219,44.335l9.307,-12.81m34.831,35.299l4.893,-15.058m44.035,22.808l0,-15.834m48.928,8.084l-4.893,-15.058m49.031,-7.431l-9.307,-12.81m44.335,-22.219l-12.809,-9.306m35.299,-34.832l-15.058,-4.893m22.807,-44.035l-15.833,0m8.084,-48.927l-15.058,4.893m-7.432,-49.032l-12.809,9.307m-22.219,-44.335l-9.307,12.81m-34.831,-35.299l-4.893,15.058" style="fill:none;stroke:#18191b;stroke-width:8.33px;"/></g></g><g><path d="M466.667,8215.61c-0,-8.841 -3.512,-17.319 -9.763,-23.57c-6.252,-6.252 -14.73,-9.764 -23.571,-9.764l-83.333,0c-8.841,0 -17.319,3.512 -23.57,9.764c-6.251,6.251 -9.763,14.729 -9.763,23.57c-0,24.808 -0,58.525 -0,83.333c-0,8.841 3.512,17.319 9.763,23.57c6.251,6.252 14.729,9.764 23.57,9.763l83.333,0c8.841,0.001 17.319,-3.511 23.571,-9.763c6.251,-6.251 9.763,-14.729 9.763,-23.57l-0,-83.333Z"/><path d="M466.667,8207.28c-0,-8.841 -3.512,-17.32 -9.763,-23.571c-6.252,-6.251 -14.73,-9.763 -23.571,-9.763l-83.333,0c-8.841,0 -17.319,3.512 -23.57,9.763c-6.251,6.251 -9.763,14.73 -9.763,23.571l-0,83.333c-0,8.84 3.512,17.319 9.763,23.57c6.251,6.251 14.729,9.763 23.57,9.763c24.808,0 58.525,0 83.333,0c8.841,0 17.319,-3.512 23.571,-9.763c6.251,-6.251 9.763,-14.73 9.763,-23.57l-0,-83.333Z" style="fill:#b5000f;"/></g></g></g><g id="Game-Title-Group" serif:id="Game Title Group"><path d="M5083.33,7366.8c0,-18.409 -14.923,-33.333 -33.333,-33.333c-367.522,-0 -3657.48,-0 -4025,-0c-18.41,0 -33.333,14.924 -33.333,33.333c-0,90.911 -0,342.423 -0,433.334c-0,18.409 14.923,33.333 33.333,33.333c367.522,-0 3657.48,-0 4025,-0c18.41,-0 33.333,-14.924 33.333,-33.333c0,-90.911 0,-342.423 0,-433.334Z" style="fill:#494b50;"/><path d="M5041.67,7408.47c-0,-18.41 -14.924,-33.333 -33.334,-33.333c-363.161,-0 -3578.51,-0 -3941.67,-0c-18.41,-0 -33.334,14.923 -33.334,33.333c0,78.051 0,271.949 0,350c0,18.409 14.924,33.333 33.334,33.333c363.161,0 3578.51,0 3941.67,0c18.41,0 33.334,-14.924 33.334,-33.333c-0,-78.051 -0,-271.949 -0,-350Z" style="fill:#a9ebdd;"/><g id="Decorations1" serif:id="Decorations"><text id="Label1" serif:id="Label" x="223.867px" y="7433.47px" style="font-family:'Karnivore';font-size:100px;fill:#494b50;">GAME TITLE</text><g id="Knob--L-1" serif:id="Knob (L)"><g id="Knob1" serif:id="Knob"><circle cx="700" cy="7673.95" r="104.167" style="fill:#f2f2f2;"/><path d="M700,7544.78c-71.289,0 -129.167,57.878 -129.167,129.167c0,71.289 57.878,129.167 129.167,129.167c71.289,-0 129.167,-57.878 129.167,-129.167c-0,-71.289 -57.878,-129.167 -129.167,-129.167Zm0,25c57.491,0 104.167,46.676 104.167,104.167c-0,57.491 -46.676,104.167 -104.167,104.167c-57.491,-0 -104.167,-46.676 -104.167,-104.167c0,-57.491 46.676,-104.167 104.167,-104.167Z" style="fill:#18191b;"/><path d="M700,7569.78l0,104.167" style="fill:none;stroke:#18191b;stroke-width:33.33px;"/></g><clipPath id="_clip2"><path id="Ticks1" serif:id="Ticks" d="M817.851,7791.8c31.256,-31.256 48.816,-73.648 48.816,-117.851c-0,-91.986 -74.681,-166.667 -166.667,-166.667c-91.986,0 -166.667,74.681 -166.667,166.667c0,44.203 17.56,86.595 48.816,117.851l58.925,-58.925c-15.628,-15.628 -24.407,-36.824 -24.407,-58.926c-0,-45.993 37.34,-83.333 83.333,-83.333c45.993,-0 83.333,37.34 83.333,83.333c0,22.102 -8.779,43.298 -24.407,58.926l58.925,58.925Z"/></clipPath><g clip-path="url(#_clip2)"><path d="M700,7515.61l0,15.833m-48.928,-8.084l4.893,15.059m-49.031,7.431l9.307,12.809m-44.335,22.219l12.809,9.307m-35.299,34.831l15.058,4.893m-22.807,44.035l15.833,0m-8.084,48.928l15.058,-4.893m7.432,49.031l12.809,-9.306m22.219,44.335l9.307,-12.81m34.831,35.299l4.893,-15.058m44.035,22.807l0,-15.833m48.928,8.084l-4.893,-15.058m49.031,-7.431l-9.307,-12.81m44.335,-22.219l-12.809,-9.306m35.299,-34.832l-15.058,-4.893m22.807,-44.035l-15.833,0m8.084,-48.928l-15.058,4.893m-7.432,-49.031l-12.809,9.307m-22.219,-44.335l-9.307,12.809m-34.831,-35.299l-4.893,15.059" style="fill:none;stroke:#18191b;stroke-width:8.33px;"/></g></g><g><path d="M466.667,7632.28c-0,-8.841 -3.512,-17.32 -9.763,-23.571c-6.252,-6.251 -14.73,-9.763 -23.571,-9.763l-83.333,0c-8.841,0 -17.319,3.512 -23.57,9.763c-6.251,6.251 -9.763,14.73 -9.763,23.571l-0,83.333c-0,8.84 3.512,17.319 9.763,23.57c6.251,6.251 14.729,9.763 23.57,9.763l83.333,0c8.841,0 17.319,-3.512 23.571,-9.763c6.251,-6.251 9.763,-14.73 9.763,-23.57l-0,-83.333Z"/><path d="M466.667,7623.95c-0,-8.84 -3.512,-17.319 -9.763,-23.57c-6.252,-6.251 -14.73,-9.763 -23.571,-9.763l-83.333,-0c-8.841,-0 -17.319,3.512 -23.57,9.763c-6.251,6.251 -9.763,14.73 -9.763,23.57l-0,83.333c-0,8.841 3.512,17.319 9.763,23.571c6.251,6.251 14.729,9.763 23.57,9.763l83.333,-0c8.841,-0 17.319,-3.512 23.571,-9.763c6.251,-6.252 9.763,-14.73 9.763,-23.571l-0,-83.333Z" style="fill:#b5000f;"/></g></g></g><g id="Title-Group" serif:id="Title Group"><text id="Year-Label" serif:id="Year Label" x="4764.53px" y="7058.47px" style="font-family:'Karnivore';font-size:100px;fill:#494b50;">YEAR</text><text id="Platform-Label" serif:id="Platform Label" x="3943.02px" y="7058.47px" style="font-family:'Karnivore';font-size:100px;fill:#494b50;">PLATFORM</text><text id="Timer-Label" serif:id="Timer Label" x="1866.67px" y="7058.47px" style="font-family:'Karnivore';font-size:100px;fill:#494b50;">MAIN CLOCK</text></g><path id="LCD" d="M5166.67,6408.47c-0,-18.41 -14.924,-33.333 -33.334,-33.333c-326.02,-0 -2940.65,-0 -3266.67,-0c-18.41,-0 -33.334,14.923 -33.334,33.333c0,102.759 0,413.908 0,516.667c0,18.409 14.924,33.333 33.334,33.333c326.02,-0 2940.65,-0 3266.67,-0c18.41,-0 33.334,-14.924 33.334,-33.333c-0,-102.759 -0,-413.908 -0,-516.667Z" style="fill:#440722;"/><path id="Estimate-Container" serif:id="Estimate Container" d="M1683.33,6758.47c0,-13.261 -5.267,-25.979 -14.644,-35.355c-9.377,-9.377 -22.095,-14.645 -35.356,-14.645c-162.003,-0 -671.33,-0 -833.333,-0c-13.261,-0 -25.979,5.268 -35.355,14.645c-9.377,9.376 -14.645,22.094 -14.645,35.355c0,47.654 0,119.013 0,166.667c-0,13.26 5.268,25.978 14.645,35.355c9.376,9.377 22.094,14.645 35.355,14.645c162.003,-0 671.33,-0 833.333,-0c13.261,-0 25.979,-5.268 35.356,-14.645c9.377,-9.377 14.644,-22.095 14.644,-35.355c0,-47.654 0,-119.013 0,-166.667Z" style="fill:#d8fff7;"/><text x="783.333px" y="6683.47px" style="font-family:'Karnivore';font-size:100px;fill:#494b50;">ESTIMATE</text><text x="262.178px" y="6975.07px" style="font-family:'Karnivore';font-size:63.406px;fill:#494b50;">Main Volume</text><g id="Volume-Knob" serif:id="Volume Knob"><g id="Knob2" serif:id="Knob"><circle cx="474.462" cy="6771.02" r="104.167" style="fill:#f2f2f2;"/><path d="M474.462,6641.85c-71.289,0 -129.166,57.878 -129.166,129.167c-0,71.289 57.877,129.167 129.166,129.167c71.289,-0 129.167,-57.878 129.167,-129.167c-0,-71.289 -57.878,-129.167 -129.167,-129.167Zm0,25c57.491,0 104.167,46.676 104.167,104.167c-0,57.491 -46.676,104.167 -104.167,104.167c-57.491,-0 -104.166,-46.676 -104.166,-104.167c-0,-57.491 46.675,-104.167 104.166,-104.167Z" style="fill:#18191b;"/><path d="M474.462,6666.85l0,104.167" style="fill:none;stroke:#18191b;stroke-width:33.33px;"/></g><clipPath id="_clip3"><path id="Ticks2" serif:id="Ticks" d="M592.313,6888.87c31.256,-31.256 48.816,-73.648 48.816,-117.851c-0,-91.986 -74.681,-166.667 -166.667,-166.667c-91.986,0 -166.666,74.681 -166.666,166.667c-0,44.203 17.559,86.595 48.815,117.851l58.926,-58.925c-15.628,-15.628 -24.408,-36.825 -24.408,-58.926c-0,-45.993 37.34,-83.333 83.333,-83.333c45.993,-0 83.334,37.34 83.334,83.333c-0,22.101 -8.78,43.298 -24.408,58.926l58.925,58.925Z"/></clipPath><g clip-path="url(#_clip3)"><path d="M474.462,6612.69l0,15.833m-48.927,-8.084l4.892,15.058m-49.031,7.432l9.307,12.809m-44.335,22.219l12.809,9.307m-35.299,34.831l15.059,4.893m-22.808,44.035l15.833,-0m-8.084,48.928l15.059,-4.893m7.431,49.031l12.809,-9.307m22.219,44.335l9.307,-12.809m34.832,35.299l4.892,-15.058m44.035,22.807l0,-15.833m48.928,8.084l-4.893,-15.058m49.031,-7.432l-9.306,-12.809m44.335,-22.219l-12.81,-9.307m35.299,-34.831l-15.058,-4.893m22.808,-44.035l-15.834,-0m8.084,-48.928l-15.058,4.893m-7.431,-49.031l-12.81,9.307m-22.219,-44.335l-9.306,12.809m-34.832,-35.299l-4.893,15.058" style="fill:none;stroke:#18191b;stroke-width:8.33px;"/></g></g></g><g id="Commentator-Group" serif:id="Commentator Group"><g id="Commentator-2" serif:id="Commentator 2"><rect id="Bar-2" serif:id="Bar 2" x="2177.46" y="3650" width="1562.35" height="333.333" style="fill:#18191b;"/><path id="Panel-2" serif:id="Panel 2" d="M2992.07,3819.75c-21.25,18.964 -33.405,46.089 -33.416,74.57c-0.004,9.548 -0.008,19.998 -0.012,30.697c-0.01,26.528 10.521,51.973 29.276,70.735c18.755,18.762 44.196,29.303 70.724,29.303c377.585,0 1713.84,0 2091.36,0c55.229,0 100,-44.771 100,-100c-0,-65.603 -0,-151.063 -0,-216.666c0,-26.522 -10.536,-51.957 -29.289,-70.711c-18.754,-18.753 -44.189,-29.289 -70.711,-29.289c-369.082,-0 -1645.64,-0 -1882.97,-0c-24.56,-0 -48.26,9.038 -66.584,25.391c-50.316,44.904 -154.741,138.097 -208.384,185.97Z" style="fill:#5daeff;"/></g><g id="Commentator-1" serif:id="Commentator 1"><path id="Bar-1" serif:id="Bar 1" d="M1729.01,3650l-1462.35,-0c-55.229,-0 -100,44.771 -100,100c-0,42.172 -0,91.162 -0,133.333c-0,55.229 44.771,100 100,100c344.7,0 1462.35,0 1462.35,0l0,-333.333Z" style="fill:#18191b;"/><path id="Panel-1" serif:id="Panel 1" d="M2841.27,3813.69c21.25,-18.964 33.405,-46.089 33.416,-74.57c0.004,-9.548 0.008,-19.998 0.012,-30.696c0.01,-26.529 -10.521,-51.974 -29.275,-70.736c-18.755,-18.762 -44.196,-29.303 -70.725,-29.303c-377.584,-0 -1713.84,-0 -2091.36,-0c-55.228,-0 -100,44.771 -100,100c0,65.603 0,151.063 0,216.666c0,26.522 10.536,51.958 29.29,70.711c18.753,18.754 44.189,29.289 70.71,29.289c369.082,0 1645.64,0 1882.97,0c24.56,0 48.261,-9.037 66.584,-25.39c50.316,-44.904 154.742,-138.098 208.384,-185.971Z" style="fill:#5daeff;"/></g></g><g id="Camera-Panel" serif:id="Camera Panel"><path d="M5250,333.333c0,-44.202 -17.559,-86.595 -48.816,-117.851c-31.256,-31.256 -73.648,-48.815 -117.851,-48.815c-770.183,-0 -3979.82,-0 -4750,-0c-44.202,-0 -86.595,17.559 -117.851,48.815c-31.256,31.256 -48.815,73.649 -48.815,117.851c-0,572.204 -0,2452.8 -0,3025c-0,44.203 17.559,86.595 48.815,117.851c31.256,31.257 73.649,48.816 117.851,48.816c770.183,-0 3979.82,-0 4750,-0c44.203,0 86.595,-17.559 117.851,-48.816c31.257,-31.256 48.816,-73.648 48.816,-117.851c0,-572.203 0,-2452.8 0,-3025Z" style="fill:#92caff;"/><path d="M5375,208.333c0,-44.202 -17.559,-86.595 -48.816,-117.851c-31.256,-31.256 -73.648,-48.815 -117.851,-48.815c-795.907,-0 -4204.09,-0 -5000,-0c-44.202,-0 -86.595,17.559 -117.851,48.815c-31.256,31.256 -48.815,73.649 -48.815,117.851c-0,577.514 -0,2489.15 -0,3066.67c-0,44.203 17.559,86.595 48.815,117.851c31.256,31.256 73.649,48.816 117.851,48.816c634.92,-0 2898.41,-0 3533.33,-0c92.047,-0 166.666,-74.62 166.666,-166.667c0,-121.021 0,-291.346 0,-453.643c0,-128.188 50.923,-251.126 141.565,-341.768c90.643,-90.643 213.581,-141.565 341.769,-141.565c281.682,-0 619.265,-0 816.666,-0c92.048,-0 166.667,-74.62 166.667,-166.667c0,-423.842 0,-1539.18 0,-1963.02Z" style="fill:#5daeff;"/><path d="M5375,270.833l-916.667,0c-92.047,0 -166.666,74.62 -166.666,166.667c-0,348.63 -0,1151.37 -0,1500c-0,92.047 74.619,166.667 166.666,166.667l916.667,-0l0,-1833.33Z" style="fill:#4e91d6;"/><path id="Name-Panel" serif:id="Name Panel" d="M5208.33,3133.33c0,-39.782 -15.803,-77.935 -43.934,-106.066c-28.13,-28.13 -66.283,-43.934 -106.066,-43.934c-525.357,0 -2272.25,0 -2675,0c-22.101,0 -43.297,8.78 -58.925,24.408c-15.628,15.628 -24.408,36.824 -24.408,58.926c-0,72.494 -0,179.328 -0,266.666c-0,39.783 15.804,77.936 43.934,106.066c28.13,28.131 66.284,43.934 106.066,43.934c500.253,0 2108.08,0 2608.33,0c39.783,0 77.936,-15.803 106.066,-43.934c28.131,-28.13 43.934,-66.283 43.934,-106.066c0,-63.257 0,-136.742 0,-200Z" style="fill:#18191b;"/><path id="Pronouns-Panel" serif:id="Pronouns Panel" d="M5208.33,2616.55c0,-13.261 -5.268,-25.979 -14.644,-35.356c-9.377,-9.376 -22.095,-14.644 -35.356,-14.644c-229.333,-0 -1185.31,-0 -1558.33,-0c-39.782,-0 -77.936,15.803 -106.066,43.934c-28.13,28.13 -43.934,66.283 -43.934,106.066c0,47.949 0,97.756 0,133.333c-0,13.261 5.268,25.979 14.645,35.355c9.376,9.377 22.094,14.645 35.355,14.645l1558.33,0c39.783,0 77.936,-15.803 106.066,-43.934c28.131,-28.13 43.934,-66.283 43.934,-106.066c0,-47.949 0,-97.756 0,-133.333Z" style="fill:#ef5b5b;"/><g id="Decorations2" serif:id="Decorations"><path d="M3866.67,2257.05l-0,66.221c-0,13.116 15.857,19.68 25.129,10.407l137.232,-137.232c2.762,-2.761 4.305,-6.5 4.305,-10.406l0,-66.222c0,-13.116 -15.857,-19.679 -25.129,-10.407l-137.221,137.232c-2.762,2.762 -4.316,6.5 -4.316,10.407Zm-0,-152.928l-0,66.221c-0,13.116 15.857,19.68 25.129,10.407l137.232,-137.231c2.762,-2.762 4.305,-6.501 4.305,-10.407l0,-66.222c0,-13.116 -15.857,-19.679 -25.129,-10.406l-137.221,137.231c-2.762,2.762 -4.316,6.5 -4.316,10.407Zm-0,-152.928l-0,66.221c-0,13.117 15.857,19.68 25.129,10.407l137.232,-137.231c2.762,-2.762 4.305,-6.5 4.305,-10.407l0,-66.221c0,-13.117 -15.857,-19.68 -25.129,-10.407l-137.221,137.231c-2.762,2.762 -4.316,6.501 -4.316,10.407Zm-0,-152.929l-0,66.222c-0,13.116 15.857,19.679 25.129,10.406l137.232,-137.231c2.762,-2.762 4.305,-6.5 4.305,-10.407l0,-66.221c0,-13.116 -15.857,-19.68 -25.129,-10.407l-137.221,137.231c-2.762,2.762 -4.316,6.501 -4.316,10.407Zm-0,-152.928l-0,66.222c-0,13.116 15.857,19.679 25.129,10.407l137.232,-137.232c2.762,-2.762 4.305,-6.5 4.305,-10.407l0,-66.221c0,-13.116 -15.857,-19.679 -25.129,-10.407l-137.221,137.232c-2.762,2.762 -4.316,6.5 -4.316,10.406Zm-0,-152.928l-0,66.221c-0,13.116 15.857,19.68 25.129,10.407l137.232,-137.232c2.762,-2.761 4.305,-6.5 4.305,-10.406l0,-66.222c0,-13.116 -15.857,-19.679 -25.129,-10.407l-137.221,137.232c-2.762,2.762 -4.316,6.5 -4.316,10.407Zm-0,-152.929l-0,66.221c-0,13.116 15.857,19.68 25.129,10.407l137.232,-137.231c2.762,-2.762 4.305,-6.501 4.305,-10.407l0,-66.222c0,-13.116 -15.857,-19.679 -25.129,-10.406l-137.221,137.231c-2.762,2.762 -4.316,6.5 -4.316,10.407Z" style="fill:#305780;fill-rule:nonzero;"/><path d="M3866.67,1340.38l-0,66.221c-0,13.117 15.857,19.68 25.129,10.407l137.232,-137.231c2.762,-2.762 4.305,-6.501 4.305,-10.407l0,-66.221c0,-13.117 -15.857,-19.68 -25.129,-10.407l-137.221,137.231c-2.762,2.762 -4.316,6.5 -4.316,10.407Zm-0,-152.928l-0,66.222c-0,13.116 15.857,19.679 25.129,10.406l137.232,-137.231c2.762,-2.762 4.305,-6.5 4.305,-10.407l0,-66.221c0,-13.116 -15.857,-19.68 -25.129,-10.407l-137.221,137.231c-2.762,2.762 -4.316,6.501 -4.316,10.407Zm-0,-152.928l-0,66.222c-0,13.116 15.857,19.679 25.129,10.407l137.232,-137.232c2.762,-2.762 4.305,-6.5 4.305,-10.407l0,-66.221c0,-13.116 -15.857,-19.68 -25.129,-10.407l-137.221,137.232c-2.762,2.761 -4.316,6.5 -4.316,10.406Zm-0,-152.928l-0,66.221c-0,13.116 15.857,19.68 25.129,10.407l137.232,-137.232c2.762,-2.761 4.305,-6.5 4.305,-10.406l0,-66.222c0,-13.116 -15.857,-19.679 -25.129,-10.407l-137.221,137.232c-2.762,2.762 -4.316,6.5 -4.316,10.407Zm-0,-152.928l-0,66.221c-0,13.116 15.857,19.68 25.129,10.407l137.232,-137.231c2.762,-2.762 4.305,-6.501 4.305,-10.407l0,-66.222c0,-13.116 -15.857,-19.679 -25.129,-10.406l-137.221,137.231c-2.762,2.762 -4.316,6.5 -4.316,10.407Zm-0,-152.929l-0,66.221c-0,13.117 15.857,19.68 25.129,10.407l137.232,-137.231c2.762,-2.762 4.305,-6.501 4.305,-10.407l0,-66.221c0,-13.117 -15.857,-19.68 -25.129,-10.407l-137.221,137.231c-2.762,2.762 -4.316,6.501 -4.316,10.407Zm-0,-152.929l-0,66.222c-0,13.116 15.857,19.679 25.129,10.406l137.232,-137.231c2.762,-2.762 4.305,-6.5 4.305,-10.407l0,-66.221c0,-13.116 -15.857,-19.68 -25.129,-10.407l-137.221,137.231c-2.762,2.762 -4.316,6.501 -4.316,10.407Z" style="fill:#305780;fill-rule:nonzero;"/><text x="216.667px" y="3412.5px" style="font-family:'Fusion';font-size:82.249px;">CAM 1</text></g><path id="Camera-Frame" serif:id="Camera Frame" d="M3825,208.333c0,-46.023 -37.31,-83.333 -83.333,-83.333c-494.507,-0 -3038.83,-0 -3533.33,-0c-46.023,0 -83.333,37.31 -83.333,83.333c0,448.961 0,2576.04 0,3025c-0,22.102 8.78,43.298 24.408,58.926c15.628,15.628 36.824,24.408 58.925,24.408c340.727,-0 1625.94,-0 1966.67,-0c22.101,-0 43.298,-8.78 58.926,-24.408c15.628,-15.628 24.407,-36.824 24.407,-58.926c0,-62.035 0,-146.358 0,-208.393c0,-46.024 37.31,-83.334 83.334,-83.334c271.477,0 1128.52,0 1400,0c46.023,0 83.333,-37.309 83.333,-83.333c0,-412.994 0,-2236.95 0,-2649.94Z" style="fill:#f0f;"/><path d="M3825,208.333c0,-46.023 -37.31,-83.333 -83.333,-83.333c-494.507,-0 -3038.83,-0 -3533.33,-0c-46.023,0 -83.333,37.31 -83.333,83.333c0,448.961 0,2576.04 0,3025c-0,22.102 8.78,43.298 24.408,58.926c15.628,15.628 36.824,24.408 58.925,24.408c340.727,-0 1625.94,-0 1966.67,-0c22.101,-0 43.298,-8.78 58.926,-24.408c15.628,-15.628 24.407,-36.824 24.407,-58.926c0,-62.035 0,-146.358 0,-208.393c0,-46.024 37.31,-83.334 83.334,-83.334c271.477,0 1128.52,0 1400,0c46.023,0 83.333,-37.309 83.333,-83.333c0,-412.994 0,-2236.95 0,-2649.94Zm-16.667,0c0,412.994 0,2236.95 0,2649.94c0,36.819 -29.847,66.666 -66.666,66.667c-271.478,-0 -1128.52,-0 -1400,-0c-55.229,-0 -100,44.771 -100,100l-0,208.393c-0,17.681 -7.024,34.638 -19.527,47.141c-12.502,12.502 -29.459,19.526 -47.14,19.526c-340.726,-0 -1625.94,-0 -1966.67,-0c-17.681,0 -34.638,-7.024 -47.14,-19.526c-12.503,-12.503 -19.526,-29.46 -19.526,-47.141c-0,-448.961 -0,-2576.04 -0,-3025c-0,-36.819 29.847,-66.666 66.666,-66.666c494.508,-0 3038.83,-0 3533.33,-0c36.82,-0 66.667,29.847 66.667,66.666Z" style="fill:#23282d;"/></g></g></svg>