<svg xmlns="http://www.w3.org/2000/svg" xmlns:xlink="http://www.w3.org/1999/xlink" xml:space="preserve" fill-rule="evenodd" stroke-linecap="round" stroke-linejoin="round" stroke-miterlimit="1.5" clip-rule="evenodd" viewBox="0 0 16000 9000">
  <g id="_4-3-Solo">
    <path id="Lower-Container" fill="#5daeff" d="M14874.9 8166.67a166.666 166.666 0 0 0-166.666-166.667h-9025a166.664 166.664 0 0 0-166.666 166.667v625.131a166.666 166.666 0 0 0 166.666 166.667h9025a166.668 166.668 0 0 0 166.666-166.667V8166.67Z"/>
    <path id="Screen" fill="#f0f" d="M15925 241.667c0-92.048-74.619-166.667-166.667-166.667h-10133.3c-92.047 0-166.667 74.619-166.667 166.667v7516.67c0 92.048 74.62 166.667 166.667 166.667h10133.3c92.048 0 166.667-74.619 166.667-166.667V241.667Z"/>
    <path fill="#f2f2f2" d="M15958.3 241.667c0-110.457-89.543-200-200-200H5625c-110.457 0-200 89.543-200 200v7516.67c0 110.457 89.543 200 200 200h10133.3c110.457 0 200-89.543 200-200V241.667Zm-33.333 0c0-92.048-74.619-166.667-166.667-166.667H5625c-92.047 0-166.667 74.619-166.667 166.667v7516.67c0 92.048 74.62 166.667 166.667 166.667h10133.3c92.048 0 166.667-74.619 166.667-166.667V241.667Z"/>
    <g id="Info-Container">
      <path fill="#f2f2f2" d="M166.667 8770.97a187.499 187.499 0 0 0 187.5 187.5h4666.67a187.498 187.498 0 0 0 187.5-187.5V6604.3a187.499 187.499 0 0 0-187.5-187.5H354.167a187.502 187.502 0 0 0-187.5 187.5v2166.67Z"/>
      <path fill="#18191b" d="M5000 6991.8a133.337 133.337 0 0 0 133.333 133.334H5200a133.334 133.334 0 0 0 133.333-133.334v-150A133.333 133.333 0 0 0 5200 6708.467h-66.667a133.337 133.337 0 0 0-94.281 39.052A133.337 133.337 0 0 0 5000 6841.8v150Zm0 733.33a133.337 133.337 0 0 0 39.052 94.281 133.337 133.337 0 0 0 94.281 39.052H5200a133.333 133.333 0 0 0 133.333-133.333v-275A133.331 133.331 0 0 0 5200 7316.796h-66.667A133.334 133.334 0 0 0 5000 7450.13v275Zm0 583.34a133.333 133.333 0 0 0 133.333 133.333H5200a133.333 133.333 0 0 0 133.333-133.333v-275A133.333 133.333 0 0 0 5200 7900.137h-66.667A133.333 133.333 0 0 0 5000 8033.47v275Z"/>
      <path fill="#ffba4a" d="M41.667 8858.47a99.999 99.999 0 0 0 100 100h5008.33a100.003 100.003 0 0 0 100-100V6391.8c0-55.228-44.772-100-100-100h-3300c-55.228 0-100 44.772-100 100v550c0 55.229-44.772 100-100 100H141.667a100 100 0 0 0-100 100v1716.67Z"/>
      <path id="Info-Inset-Panel" fill="#d59b3e" d="M5166.67 7158.47a33.332 33.332 0 0 0-33.334-33.333h-4975a33.33 33.33 0 0 0-33.333 33.333V8591.8a33.337 33.337 0 0 0 33.333 33.334h4975a33.337 33.337 0 0 0 33.334-33.334V7158.47Z"/>
      <g id="Category-Group">
        <use xlink:href="#_Image1" width="4125" height="533.333" x="975" y="7910.01" transform="scale(1 .99875)"/>
        <path fill="#494b50" d="M5083.33 7950.13c0-18.41-14.923-33.334-33.333-33.334h-4025c-18.41 0-33.333 14.924-33.333 33.334v433.333c0 18.409 14.923 33.333 33.333 33.333h4025c18.41 0 33.333-14.924 33.333-33.333V7950.13Z"/>
        <path fill="#a9ebdd" d="M5041.67 7991.8c0-18.409-14.924-33.333-33.334-33.333h-3941.67c-18.41 0-33.334 14.924-33.334 33.333v350c0 18.41 14.924 33.334 33.334 33.334h3941.67c18.41 0 33.334-14.924 33.334-33.334v-350Z"/>
        <g id="Decorations">
          <text id="Label" x="244.767" y="8016.8" fill="#494b50" font-family="Karnivore" font-size="100">CATEGORY</text>
          <g id="Knob--L-">
            <g id="Knob">
              <circle cx="700" cy="8257.28" r="104.167" fill="#f2f2f2"/>
              <path fill="#18191b" d="M700 8128.11c-71.289 0-129.167 57.877-129.167 129.166 0 71.29 57.878 129.167 129.167 129.167s129.167-57.877 129.167-129.167c0-71.289-57.878-129.166-129.167-129.166Zm0 25c57.491 0 104.167 46.675 104.167 104.166 0 57.492-46.676 104.167-104.167 104.167s-104.167-46.675-104.167-104.167c0-57.491 46.676-104.166 104.167-104.166Z"/>
              <path fill="none" stroke="#18191b" stroke-width="33.33" d="M700 8153.11v104.166"/>
            </g>
            <clipPath id="_clip2">
              <path id="Ticks" d="M817.851 8375.13a166.669 166.669 0 0 0 48.816-117.852c0-91.985-74.681-166.666-166.667-166.666s-166.667 74.681-166.667 166.666c0 44.203 17.56 86.596 48.816 117.852l58.925-58.926a83.333 83.333 0 0 1-24.407-58.926c0-45.992 37.34-83.333 83.333-83.333 45.993 0 83.333 37.341 83.333 83.333a83.333 83.333 0 0 1-24.407 58.926l58.925 58.926Z"/>
            </clipPath>
            <g clip-path="url(#_clip2)">
              <path fill="none" stroke="#18191b" stroke-width="8.33" d="M700 8098.95v15.833m-48.928-8.083 4.893 15.058m-49.031 7.431 9.307 12.81m-44.335 22.218 12.809 9.307m-35.299 34.832 15.058 4.893m-22.807 44.034H557.5m-8.084 48.928 15.058-4.893m7.432 49.031 12.809-9.306m22.219 44.335 9.307-12.81m34.831 35.299 4.893-15.058M700 8415.617v-15.834m48.928 8.084-4.893-15.058m49.031-7.431-9.307-12.81m44.335-22.219-12.809-9.306m35.299-34.832-15.058-4.893m22.807-44.035H842.5m8.084-48.927-15.058 4.893m-7.432-49.032-12.809 9.307m-22.219-44.335-9.307 12.81m-34.831-35.299-4.893 15.058"/>
            </g>
          </g>
          <path d="M466.667 8215.61a33.332 33.332 0 0 0-33.334-33.334H350a33.332 33.332 0 0 0-33.333 33.334v83.333A33.332 33.332 0 0 0 350 8332.276h83.333a33.332 33.332 0 0 0 33.334-33.333v-83.333Z"/>
          <path fill="#b5000f" d="M466.667 8207.28a33.335 33.335 0 0 0-33.334-33.334H350a33.332 33.332 0 0 0-33.333 33.334v83.333A33.334 33.334 0 0 0 350 8323.946h83.333a33.337 33.337 0 0 0 33.334-33.333v-83.333Z"/>
        </g>
      </g>
      <g id="Game-Title-Group">
        <use xlink:href="#_Image1" width="4125" height="533.333" x="975" y="7325.94" transform="scale(1 .99875)"/>
        <path fill="#494b50" d="M5083.33 7366.8c0-18.409-14.923-33.333-33.333-33.333h-4025c-18.41 0-33.333 14.924-33.333 33.333v433.334c0 18.409 14.923 33.333 33.333 33.333h4025c18.41 0 33.333-14.924 33.333-33.333V7366.8Z"/>
        <path fill="#a9ebdd" d="M5041.67 7408.47c0-18.41-14.924-33.333-33.334-33.333h-3941.67c-18.41 0-33.334 14.923-33.334 33.333v350c0 18.409 14.924 33.333 33.334 33.333h3941.67c18.41 0 33.334-14.924 33.334-33.333v-350Z"/>
        <g id="Decorations1">
          <text id="Label1" x="223.867" y="7433.47" fill="#494b50" font-family="Karnivore" font-size="100">GAME TITLE</text>
          <g id="Knob--L-1">
            <g id="Knob1">
              <circle cx="700" cy="7673.95" r="104.167" fill="#f2f2f2"/>
              <path fill="#18191b" d="M700 7544.78c-71.289 0-129.167 57.878-129.167 129.167S628.711 7803.114 700 7803.114s129.167-57.878 129.167-129.167S771.289 7544.78 700 7544.78Zm0 25c57.491 0 104.167 46.676 104.167 104.167S757.491 7778.114 700 7778.114s-104.167-46.676-104.167-104.167S642.509 7569.78 700 7569.78Z"/>
              <path fill="none" stroke="#18191b" stroke-width="33.33" d="M700 7569.78v104.167"/>
            </g>
            <clipPath id="_clip3">
              <path id="Ticks1" d="M817.851 7791.8a166.667 166.667 0 0 0 48.816-117.851c0-91.986-74.681-166.667-166.667-166.667s-166.667 74.681-166.667 166.667c0 44.203 17.56 86.595 48.816 117.851l58.925-58.925a83.333 83.333 0 0 1-24.407-58.926c0-45.993 37.34-83.333 83.333-83.333 45.993 0 83.333 37.34 83.333 83.333a83.333 83.333 0 0 1-24.407 58.926l58.925 58.925Z"/>
            </clipPath>
            <g clip-path="url(#_clip3)">
              <path fill="none" stroke="#18191b" stroke-width="8.33" d="M700 7515.61v15.833m-48.928-8.084 4.893 15.059m-49.031 7.431 9.307 12.809m-44.335 22.219 12.809 9.307m-35.299 34.831 15.058 4.893m-22.807 44.035H557.5m-8.084 48.928 15.058-4.893m7.432 49.031 12.809-9.306m22.219 44.335 9.307-12.81m34.831 35.299 4.893-15.058M700 7832.276v-15.833m48.928 8.084-4.893-15.058m49.031-7.431-9.307-12.81m44.335-22.219-12.809-9.306m35.299-34.832-15.058-4.893m22.807-44.035H842.5m8.084-48.928-15.058 4.893m-7.432-49.031-12.809 9.307m-22.219-44.335-9.307 12.809m-34.831-35.299-4.893 15.059"/>
            </g>
          </g>
          <path d="M466.667 7632.28a33.335 33.335 0 0 0-33.334-33.334H350a33.332 33.332 0 0 0-33.333 33.334v83.333A33.334 33.334 0 0 0 350 7748.946h83.333a33.337 33.337 0 0 0 33.334-33.333v-83.333Z"/>
          <path fill="#b5000f" d="M466.667 7623.95a33.334 33.334 0 0 0-33.334-33.333H350a33.332 33.332 0 0 0-33.333 33.333v83.333A33.337 33.337 0 0 0 350 7740.617h83.333a33.337 33.337 0 0 0 33.334-33.334v-83.333Z"/>
        </g>
      </g>
      <g id="Title-Group" fill="#494b50" font-family="Karnivore" font-size="100">
        <text id="Year-Label" x="4764.53" y="7058.47">YEAR</text>
        <text id="Platform-Label" x="3883.02" y="7058.47">PLATFORM</text>
        <text id="Timer-Label" x="1866.67" y="7058.47">MAIN CLOCK</text>
      </g>
      <path id="LCD" fill="#440722" d="M5166.67 6408.47c0-18.41-14.924-33.333-33.334-33.333h-3266.67c-18.41 0-33.334 14.923-33.334 33.333v516.667c0 18.409 14.924 33.333 33.334 33.333h3266.67c18.41 0 33.334-14.924 33.334-33.333V6408.47Z"/>
      <path id="Estimate-Container" fill="#d8fff7" d="M1683.33 6758.47a49.996 49.996 0 0 0-50-50H799.997a49.997 49.997 0 0 0-50 50v166.667a50 50 0 0 0 50 50h833.333a50.001 50.001 0 0 0 50-50V6758.47Z"/>
      <text x="783.333" y="6683.47" fill="#494b50" font-family="Karnivore" font-size="100">ESTIMATE</text>
      <text x="262.178" y="6975.07" fill="#494b50" font-family="Karnivore" font-size="63.406">Main Volume</text>
      <g id="Volume-Knob">
        <g id="Knob2">
          <circle cx="474.462" cy="6771.02" r="104.167" fill="#f2f2f2"/>
          <path fill="#18191b" d="M474.462 6641.85c-71.289 0-129.166 57.878-129.166 129.167s57.877 129.167 129.166 129.167c71.289 0 129.167-57.878 129.167-129.167s-57.878-129.167-129.167-129.167Zm0 25c57.491 0 104.167 46.676 104.167 104.167s-46.676 104.167-104.167 104.167-104.166-46.676-104.166-104.167 46.675-104.167 104.166-104.167Z"/>
          <path fill="none" stroke="#18191b" stroke-width="33.33" d="M474.462 6666.85v104.167"/>
        </g>
        <clipPath id="_clip4">
          <path id="Ticks2" d="M592.313 6888.87a166.667 166.667 0 0 0 48.816-117.851c0-91.986-74.681-166.667-166.667-166.667s-166.666 74.681-166.666 166.667a166.666 166.666 0 0 0 48.815 117.851l58.926-58.925a83.335 83.335 0 0 1-24.408-58.926c0-45.993 37.34-83.333 83.333-83.333 45.993 0 83.334 37.34 83.334 83.333a83.335 83.335 0 0 1-24.408 58.926l58.925 58.925Z"/>
        </clipPath>
        <g clip-path="url(#_clip4)">
          <path fill="none" stroke="#18191b" stroke-width="8.33" d="M474.462 6612.69v15.833m-48.927-8.084 4.892 15.058m-49.031 7.432 9.307 12.809m-44.335 22.219 12.809 9.307m-35.299 34.831 15.059 4.893m-22.808 44.035h15.833m-8.084 48.928 15.059-4.893m7.431 49.031 12.809-9.307m22.219 44.335 9.307-12.809m34.832 35.299 4.892-15.058m44.035 22.807v-15.833m48.928 8.084-4.893-15.058m49.031-7.432-9.306-12.809m44.335-22.219-12.81-9.307m35.299-34.831-15.058-4.893m22.808-44.035h-15.834m8.084-48.928-15.058 4.893m-7.431-49.031-12.81 9.307m-22.219-44.335-9.306 12.809m-34.832-35.299-4.893 15.058"/>
        </g>
      </g>
    </g>
    <g id="Commentator-Group">
      <g id="Commentator-2">
        <path id="Bar-2" fill="#18191b" d="M2177.46 3650h1562.35v333.333H2177.46z"/>
        <path id="Panel-2" fill="#5daeff" d="M2992.07 3819.75a99.998 99.998 0 0 0-33.416 74.57l-.012 30.697a100 100 0 0 0 100 100.038h2091.36c55.229 0 100-44.771 100-100v-216.666a100.003 100.003 0 0 0-100-100h-1882.97a99.999 99.999 0 0 0-66.584 25.391l-208.384 185.97Z"/>
      </g>
      <g id="Commentator-1">
        <path id="Bar-1" fill="#18191b" d="M1729.01 3650H266.66c-55.229 0-100 44.771-100 100v133.333c0 55.229 44.771 100 100 100h1462.35V3650Z"/>
        <path id="Panel-1" fill="#5daeff" d="M2841.27 3813.69a99.998 99.998 0 0 0 33.416-74.57l.012-30.696a100 100 0 0 0-100-100.039H683.338c-55.228 0-100 44.771-100 100v216.666a99.998 99.998 0 0 0 100 100h1882.97a99.996 99.996 0 0 0 66.584-25.39l208.384-185.971Z"/>
      </g>
    </g>
    <g id="Camera-Panel">
      <path fill="#92caff" d="M5250 333.333a166.664 166.664 0 0 0-166.667-166.666h-4750a166.667 166.667 0 0 0-166.666 166.666v3025A166.666 166.666 0 0 0 333.333 3525h4750a166.662 166.662 0 0 0 117.851-48.816A166.662 166.662 0 0 0 5250 3358.333v-3025Z"/>
      <path fill="#5daeff" d="M5375 208.333a166.664 166.664 0 0 0-166.667-166.666h-5000A166.667 166.667 0 0 0 41.667 208.333v3066.67a166.666 166.666 0 0 0 166.666 166.667h3533.33c92.047 0 166.666-74.62 166.666-166.667V2821.36a483.334 483.334 0 0 1 483.334-483.333h816.666c92.048 0 166.667-74.62 166.667-166.667V208.34Z"/>
      <path id="Camera-Inset-Panel" fill="#4e91d6" d="M5375 270.833h-916.667c-92.047 0-166.666 74.62-166.666 166.667v1500c0 92.047 74.619 166.667 166.666 166.667H5375V270.837Z"/>
      <path id="Name-Panel" fill="#18191b" d="M5208.33 3133.33a150 150 0 0 0-150-150h-2675a83.333 83.333 0 0 0-83.333 83.334v266.666a150 150 0 0 0 150 150h2608.33a149.996 149.996 0 0 0 150-150v-200Z"/>
      <path id="Pronouns-Panel" fill="#ef5b5b" d="M5208.33 2616.55a50.004 50.004 0 0 0-14.644-35.356 50.004 50.004 0 0 0-35.356-14.644H3600a149.998 149.998 0 0 0-150 150v133.333a49.997 49.997 0 0 0 50 50h1558.33a149.996 149.996 0 0 0 150-150V2616.55Z"/>
      <g id="Decorations2">
        <path id="grille" fill="#305780" fill-rule="nonzero" d="M3866.67 2257.05v66.221c0 13.116 15.857 19.68 25.129 10.407l137.232-137.232a14.699 14.699 0 0 0 4.305-10.406v-66.222c0-13.116-15.857-19.679-25.129-10.407l-137.221 137.232a14.712 14.712 0 0 0-4.316 10.407Zm0-152.928v66.221c0 13.116 15.857 19.68 25.129 10.407l137.232-137.231a14.703 14.703 0 0 0 4.305-10.407v-66.222c0-13.116-15.857-19.679-25.129-10.406l-137.221 137.231a14.712 14.712 0 0 0-4.316 10.407Zm0-152.928v66.221c0 13.117 15.857 19.68 25.129 10.407l137.232-137.231a14.701 14.701 0 0 0 4.305-10.407v-66.221c0-13.117-15.857-19.68-25.129-10.407l-137.221 137.231a14.714 14.714 0 0 0-4.316 10.407Zm0-152.929v66.222c0 13.116 15.857 19.679 25.129 10.406l137.232-137.231a14.701 14.701 0 0 0 4.305-10.407v-66.221c0-13.116-15.857-19.68-25.129-10.407l-137.221 137.231a14.714 14.714 0 0 0-4.316 10.407Zm0-152.928v66.222c0 13.116 15.857 19.679 25.129 10.407l137.232-137.232a14.701 14.701 0 0 0 4.305-10.407v-66.221c0-13.116-15.857-19.679-25.129-10.407l-137.221 137.232a14.711 14.711 0 0 0-4.316 10.406Zm0-152.928v66.221c0 13.116 15.857 19.68 25.129 10.407l137.232-137.232a14.699 14.699 0 0 0 4.305-10.406v-66.222c0-13.116-15.857-19.679-25.129-10.407l-137.221 137.232a14.712 14.712 0 0 0-4.316 10.407Zm0-152.929v66.221c0 13.116 15.857 19.68 25.129 10.407l137.232-137.231a14.703 14.703 0 0 0 4.305-10.407v-66.222c0-13.116-15.857-19.679-25.129-10.406l-137.221 137.231a14.712 14.712 0 0 0-4.316 10.407Z"/>
        <path id="grille1" fill="#305780" fill-rule="nonzero" d="M3866.67 1340.38v66.221c0 13.117 15.857 19.68 25.129 10.407l137.232-137.231a14.703 14.703 0 0 0 4.305-10.407v-66.221c0-13.117-15.857-19.68-25.129-10.407l-137.221 137.231a14.712 14.712 0 0 0-4.316 10.407Zm0-152.928v66.222c0 13.116 15.857 19.679 25.129 10.406l137.232-137.231a14.701 14.701 0 0 0 4.305-10.407v-66.221c0-13.116-15.857-19.68-25.129-10.407l-137.221 137.231a14.714 14.714 0 0 0-4.316 10.407Zm0-152.928v66.222c0 13.116 15.857 19.679 25.129 10.407l137.232-137.232a14.701 14.701 0 0 0 4.305-10.407v-66.221c0-13.116-15.857-19.68-25.129-10.407l-137.221 137.232a14.71 14.71 0 0 0-4.316 10.406Zm0-152.928v66.221c0 13.116 15.857 19.68 25.129 10.407l137.232-137.232a14.699 14.699 0 0 0 4.305-10.406v-66.222c0-13.116-15.857-19.679-25.129-10.407l-137.221 137.232a14.712 14.712 0 0 0-4.316 10.407Zm0-152.928v66.221c0 13.116 15.857 19.68 25.129 10.407l137.232-137.231a14.703 14.703 0 0 0 4.305-10.407v-66.222c0-13.116-15.857-19.679-25.129-10.406l-137.221 137.231a14.712 14.712 0 0 0-4.316 10.407Zm0-152.929v66.221c0 13.117 15.857 19.68 25.129 10.407l137.232-137.231a14.703 14.703 0 0 0 4.305-10.407v-66.221c0-13.117-15.857-19.68-25.129-10.407l-137.221 137.231a14.714 14.714 0 0 0-4.316 10.407Zm0-152.929v66.222c0 13.116 15.857 19.679 25.129 10.406l137.232-137.231a14.701 14.701 0 0 0 4.305-10.407v-66.221c0-13.116-15.857-19.68-25.129-10.407l-137.221 137.231a14.714 14.714 0 0 0-4.316 10.407Z"/>
        <text x="216.667" y="3412.5" font-family="Fusion" font-size="82.249">CAM 1</text>
      </g>
      <path id="Camera-Frame" fill="#f0f" d="M3825 208.333c0-46.023-37.31-83.333-83.333-83.333H208.337c-46.023 0-83.333 37.31-83.333 83.333v3025a83.334 83.334 0 0 0 83.333 83.334h1966.67a83.335 83.335 0 0 0 83.333-83.334V3024.94c0-46.024 37.31-83.334 83.334-83.334h1400c46.023 0 83.333-37.309 83.333-83.333V208.333Z"/>
      <path fill="#23282d" d="M3825 208.333c0-46.023-37.31-83.333-83.333-83.333H208.337c-46.023 0-83.333 37.31-83.333 83.333v3025a83.334 83.334 0 0 0 83.333 83.334h1966.67a83.335 83.335 0 0 0 83.333-83.334V3024.94c0-46.024 37.31-83.334 83.334-83.334h1400c46.023 0 83.333-37.309 83.333-83.333V208.333Zm-16.667 0v2649.94c0 36.819-29.847 66.666-66.666 66.667h-1400c-55.229 0-100 44.771-100 100v208.393A66.667 66.667 0 0 1 2175 3300H208.33a66.667 66.667 0 0 1-66.666-66.667v-3025c0-36.819 29.847-66.666 66.666-66.666h3533.33c36.82 0 66.667 29.847 66.667 66.666Z"/>
    </g>
  </g>
</svg>
