<?xml version="1.0" encoding="UTF-8" standalone="no"?><!DOCTYPE svg PUBLIC "-//W3C//DTD SVG 1.1//EN" "http://www.w3.org/Graphics/SVG/1.1/DTD/svg11.dtd"><svg width="100%" height="100%" viewBox="0 0 16000 9000" version="1.1" xmlns="http://www.w3.org/2000/svg" xmlns:xlink="http://www.w3.org/1999/xlink" xml:space="preserve" xmlns:serif="http://www.serif.com/" style="fill-rule:evenodd;clip-rule:evenodd;stroke-linecap:round;stroke-linejoin:round;stroke-miterlimit:1.5;"><g id="_16-9-Solo" serif:id="16-9 Solo"><path id="Logo-Panel" serif:id="Logo Panel" d="M15958.3,7208.33c0,-44.202 -17.559,-86.595 -48.815,-117.851c-31.256,-31.256 -73.649,-48.815 -117.851,-48.815c-693.68,-0 -3347.99,-0 -4041.67,-0c-44.203,-0 -86.595,17.559 -117.851,48.815c-31.256,31.256 -48.816,73.649 -48.816,117.851c0,362.795 0,1220.54 0,1583.33c0,44.202 17.56,86.595 48.816,117.851c31.256,31.256 73.648,48.815 117.851,48.815c693.68,0 3347.99,0 4041.67,0c44.202,0 86.595,-17.559 117.851,-48.815c31.256,-31.256 48.815,-73.649 48.815,-117.851c0,-362.795 0,-1220.54 0,-1583.33Z" style="fill:#18191b;fill-opacity:0.6;"/><g id="Info-Panel" serif:id="Info Panel"><g><path d="M625,6166.8l166.667,0l-0,-42.215c-0,-44.092 17.515,-86.378 48.693,-117.556c31.178,-31.178 73.464,-48.694 117.557,-48.694l200.416,0l0,-166.666c0,-0 -92.24,-0 -200,-0c-184.095,-0 -333.333,149.238 -333.333,333.333c-0,25.627 -0,41.798 -0,41.798Z" style="fill:#494b50;"/><path d="M591.667,6166.8c-0,18.41 14.924,33.334 33.333,33.334l166.667,-0c18.409,-0 33.333,-14.924 33.333,-33.334l-0,-42.215c-0,-35.251 14.004,-69.059 38.93,-93.986c24.927,-24.927 58.735,-38.93 93.987,-38.93c96.991,-0 200.416,-0 200.416,-0c18.41,-0 33.334,-14.924 33.334,-33.334l-0,-166.666c-0,-18.41 -14.924,-33.334 -33.334,-33.334l-200,0c-202.504,0 -366.666,164.163 -366.666,366.667c-0,25.627 -0,41.798 -0,41.798Zm33.333,0l166.667,0l-0,-42.215c-0,-44.092 17.515,-86.378 48.693,-117.556c31.178,-31.178 73.464,-48.694 117.557,-48.694l200.416,0l0,-166.666c0,-0 -92.24,-0 -200,-0c-184.095,-0 -333.333,149.238 -333.333,333.333c-0,25.627 -0,41.798 -0,41.798Z" style="fill:#494b50;"/><path d="M1150,5950c-0,0 -103.129,0 -200,0c-92.047,0 -166.667,74.619 -166.667,166.667c0,24.561 0,41.798 0,41.798" style="fill:none;stroke:#5daeff;stroke-width:41.67px;"/><path d="M1158.33,5875c0,-0 -96.422,-0 -200,0c-138.071,0 -250,111.929 -250,250l0,41.798" style="fill:none;stroke:#ef5b5b;stroke-width:41.67px;"/><path d="M1166.67,5800c-0,-0 -92.24,-0 -200,0c-184.095,0 -333.334,149.238 -333.334,333.333c0,25.628 0,41.799 0,41.799" style="fill:none;stroke:#a9ebdd;stroke-width:41.67px;"/></g><g><path d="M991.667,5591.67c-0,-23.012 -18.655,-41.667 -41.667,-41.667c-0,0 -0,0 -0,0c-23.012,0 -41.667,18.655 -41.667,41.667c0,25.45 0,57.882 0,83.333c0,23.012 18.655,41.667 41.667,41.667c0,-0 0,-0 0,-0c23.012,-0 41.667,-18.655 41.667,-41.667c-0,-25.451 -0,-57.883 -0,-83.333Z" style="fill:#18191b;"/><path d="M3908.33,5541.8c0,-22.101 -8.779,-43.297 -24.407,-58.925c-15.629,-15.628 -36.825,-24.408 -58.926,-24.408c-426.849,-0 -2364.82,-0 -2791.67,-0c-22.101,-0 -43.297,8.78 -58.925,24.408c-15.628,15.628 -24.408,36.824 -24.408,58.925c0,119.617 0,338.717 0,458.334c0,22.101 8.78,43.297 24.408,58.925c15.628,15.628 36.824,24.408 58.925,24.408c426.85,-0 2364.82,-0 2791.67,-0c22.101,-0 43.297,-8.78 58.926,-24.408c15.628,-15.628 24.407,-36.824 24.407,-58.925c0,-119.617 0,-338.717 0,-458.334Z" style="fill:#f2f2f2;"/><path id="Estimate-Container" serif:id="Estimate Container" d="M3825,5676.34c-0,-27.614 -22.386,-50 -50,-50c-217.432,0 -1079.53,0 -1296.96,0c-27.614,0 -50,22.386 -50,50c0,71.77 0,203.23 0,275c0,27.615 22.386,50 50,50c217.432,0 1079.53,0 1296.96,0c27.614,0 50,-22.385 50,-50c0,-71.77 0,-203.23 0,-275Z" style="fill:#d8fff7;"/><text x="2461.37px" y="5600.13px" style="font-family:'Karnivore';font-size:100px;fill:#494b50;">ESTIMATE</text><g><g transform="matrix(1,0,0,0.9894,0,49.0249)"><text x="1071.84px" y="6010.53px" style="font-family:'Karnivore';font-size:63.17px;fill:#494b50;">Main Volume</text></g><g id="Volume-Knob" serif:id="Volume Knob"><g id="Knob"><circle cx="1283.33" cy="5791.8" r="104.167" style="fill:#f2f2f2;"/><path d="M1283.33,5662.63c-71.289,-0 -129.166,57.877 -129.166,129.166c-0,71.289 57.877,129.167 129.166,129.167c71.289,-0 129.167,-57.878 129.167,-129.167c-0,-71.289 -57.878,-129.166 -129.167,-129.166Zm0,25c57.491,-0 104.167,46.675 104.167,104.166c-0,57.491 -46.676,104.167 -104.167,104.167c-57.491,-0 -104.166,-46.676 -104.166,-104.167c-0,-57.491 46.675,-104.166 104.166,-104.166Z" style="fill:#18191b;"/><path d="M1283.33,5687.63l0,104.166" style="fill:none;stroke:#18191b;stroke-width:33.33px;"/></g><clipPath id="_clip1"><path id="Ticks" d="M1401.18,5909.65c31.257,-31.256 48.816,-73.648 48.816,-117.851c-0,-91.986 -74.681,-166.666 -166.667,-166.666c-91.986,-0 -166.666,74.68 -166.666,166.666c-0,44.203 17.559,86.595 48.815,117.851l58.926,-58.925c-15.628,-15.628 -24.408,-36.824 -24.408,-58.926c-0,-45.993 37.34,-83.333 83.333,-83.333c45.993,-0 83.334,37.34 83.334,83.333c-0,22.102 -8.78,43.298 -24.408,58.926l58.925,58.925Z"/></clipPath><g clip-path="url(#_clip1)"><path d="M1283.33,5633.47l0,15.833m-48.927,-8.084l4.892,15.059m-49.031,7.431l9.307,12.809m-44.335,22.219l12.809,9.307m-35.299,34.832l15.059,4.892m-22.808,44.035l15.833,0m-8.084,48.928l15.059,-4.893m7.431,49.031l12.809,-9.306m22.219,44.335l9.307,-12.81m34.832,35.299l4.892,-15.058m44.035,22.808l0,-15.834m48.928,8.084l-4.893,-15.058m49.031,-7.431l-9.306,-12.81m44.335,-22.219l-12.81,-9.306m35.299,-34.832l-15.058,-4.893m22.808,-44.035l-15.834,0m8.084,-48.927l-15.058,4.892m-7.431,-49.031l-12.81,9.307m-22.219,-44.335l-9.306,12.809m-34.832,-35.299l-4.893,15.059" style="fill:none;stroke:#18191b;stroke-width:8.33px;"/></g></g></g><g id="Knob--S-" serif:id="Knob (S)"><g id="Knob1" serif:id="Knob"><circle cx="1688.32" cy="5860.91" r="62.5" style="fill:#fff;"/><path d="M1688.32,5781.74c-43.693,0 -79.166,35.473 -79.166,79.167c-0,43.693 35.473,79.166 79.166,79.166c43.694,0 79.167,-35.473 79.167,-79.166c0,-43.694 -35.473,-79.167 -79.167,-79.167Zm0,16.667c34.495,-0 62.5,28.005 62.5,62.5c0,34.494 -28.005,62.5 -62.5,62.5c-34.494,-0 -62.5,-28.006 -62.5,-62.5c0,-34.495 28.006,-62.5 62.5,-62.5Z" style="fill:#18191b;"/><path d="M1688.32,5798.41l0,62.5" style="fill:none;stroke:#18191b;stroke-width:16.67px;"/></g><clipPath id="_clip2"><path id="Ticks1" serif:id="Ticks" d="M1797.22,5937.16c15.649,-22.348 24.042,-48.97 24.042,-76.252c0,-73.373 -59.569,-132.942 -132.942,-132.942c-73.372,-0 -132.942,59.569 -132.942,132.942c0,27.282 8.394,53.904 24.043,76.252l54.45,-38.126c-7.825,-11.174 -12.022,-24.485 -12.022,-38.126c0,-36.687 29.785,-66.471 66.471,-66.471c36.687,-0 66.471,29.784 66.471,66.471c0,13.641 -4.196,26.952 -12.021,38.126l54.45,38.126Z"/></clipPath><g clip-path="url(#_clip2)"><path d="M1688.32,5756.74l0,10.417m-39.862,-2.488l3.986,9.624m-37.781,12.957l7.366,7.365m-29.946,26.429l9.624,3.986m-17.553,35.877l10.416,-0m-2.487,39.863l9.624,-3.987m12.956,37.781l7.366,-7.366m26.429,29.946l3.986,-9.624m35.876,17.553l0,-10.416m39.863,2.487l-3.986,-9.624m37.78,-12.956l-7.365,-7.366m29.946,-26.428l-9.624,-3.987m17.553,-35.876l-10.417,-0m2.488,-39.863l-9.624,3.986m-12.957,-37.78l-7.365,7.365m-26.429,-29.946l-3.986,9.624" style="fill:none;stroke:#18191b;stroke-width:8.33px;"/></g></g><g id="Knob--S-1" serif:id="Knob (S)"><g id="Knob2" serif:id="Knob"><circle cx="1954.2" cy="5860.91" r="62.5" style="fill:#fff;"/><path d="M1954.2,5781.74c-43.693,0 -79.166,35.473 -79.166,79.167c-0,43.693 35.473,79.166 79.166,79.166c43.694,0 79.167,-35.473 79.167,-79.166c0,-43.694 -35.473,-79.167 -79.167,-79.167Zm0,16.667c34.495,-0 62.5,28.005 62.5,62.5c0,34.494 -28.005,62.5 -62.5,62.5c-34.494,-0 -62.5,-28.006 -62.5,-62.5c0,-34.495 28.006,-62.5 62.5,-62.5Z" style="fill:#18191b;"/><path d="M1954.2,5798.41l0,62.5" style="fill:none;stroke:#18191b;stroke-width:16.67px;"/></g><clipPath id="_clip3"><path id="Ticks2" serif:id="Ticks" d="M2063.11,5937.16c15.649,-22.348 24.042,-48.97 24.042,-76.252c0,-73.373 -59.569,-132.942 -132.942,-132.942c-73.372,-0 -132.942,59.569 -132.942,132.942c0,27.282 8.394,53.904 24.043,76.252l54.45,-38.126c-7.825,-11.174 -12.022,-24.485 -12.022,-38.126c0,-36.687 29.785,-66.471 66.471,-66.471c36.687,-0 66.471,29.784 66.471,66.471c0,13.641 -4.196,26.952 -12.021,38.126l54.45,38.126Z"/></clipPath><g clip-path="url(#_clip3)"><path d="M1954.2,5756.74l0,10.417m-39.862,-2.488l3.986,9.624m-37.781,12.957l7.366,7.365m-29.946,26.429l9.624,3.986m-17.553,35.877l10.416,-0m-2.487,39.863l9.624,-3.987m12.956,37.781l7.366,-7.366m26.429,29.946l3.986,-9.624m35.876,17.553l0,-10.416m39.863,2.487l-3.986,-9.624m37.78,-12.956l-7.365,-7.366m29.946,-26.428l-9.624,-3.987m17.553,-35.876l-10.417,-0m2.488,-39.863l-9.624,3.986m-12.957,-37.78l-7.365,7.365m-26.429,-29.946l-3.986,9.624" style="fill:none;stroke:#18191b;stroke-width:8.33px;"/></g></g><g id="Knob--S-2" serif:id="Knob (S)"><g id="Knob3" serif:id="Knob"><circle cx="2220.09" cy="5860.91" r="62.5" style="fill:#fff;"/><path d="M2220.09,5781.74c-43.693,0 -79.166,35.473 -79.166,79.167c-0,43.693 35.473,79.166 79.166,79.166c43.694,0 79.167,-35.473 79.167,-79.166c0,-43.694 -35.473,-79.167 -79.167,-79.167Zm0,16.667c34.495,-0 62.5,28.005 62.5,62.5c0,34.494 -28.005,62.5 -62.5,62.5c-34.494,-0 -62.5,-28.006 -62.5,-62.5c0,-34.495 28.006,-62.5 62.5,-62.5Z" style="fill:#18191b;"/><path d="M2220.09,5798.41l0,62.5" style="fill:none;stroke:#18191b;stroke-width:16.67px;"/></g><clipPath id="_clip4"><path id="Ticks3" serif:id="Ticks" d="M2328.99,5937.16c15.649,-22.348 24.042,-48.97 24.042,-76.252c0,-73.373 -59.569,-132.942 -132.942,-132.942c-73.372,-0 -132.942,59.569 -132.942,132.942c0,27.282 8.394,53.904 24.043,76.252l54.45,-38.126c-7.825,-11.174 -12.022,-24.485 -12.022,-38.126c0,-36.687 29.785,-66.471 66.471,-66.471c36.687,-0 66.471,29.784 66.471,66.471c0,13.641 -4.196,26.952 -12.021,38.126l54.45,38.126Z"/></clipPath><g clip-path="url(#_clip4)"><path d="M2220.09,5756.74l0,10.417m-39.862,-2.488l3.986,9.624m-37.78,12.957l7.365,7.365m-29.946,26.429l9.624,3.986m-17.553,35.877l10.416,-0m-2.487,39.863l9.624,-3.987m12.957,37.781l7.365,-7.366m26.429,29.946l3.986,-9.624m35.876,17.553l0,-10.416m39.863,2.487l-3.986,-9.624m37.78,-12.956l-7.365,-7.366m29.946,-26.428l-9.624,-3.987m17.553,-35.876l-10.417,-0m2.488,-39.863l-9.624,3.986m-12.957,-37.78l-7.365,7.365m-26.429,-29.946l-3.986,9.624" style="fill:none;stroke:#18191b;stroke-width:8.33px;"/></g></g></g><g><g><path d="M375,6991.8c0,35.362 -14.048,69.276 -39.052,94.281c-25.005,25.005 -58.919,39.053 -94.281,39.053c-21.954,-0 -44.713,-0 -66.667,-0c-35.362,-0 -69.276,-14.048 -94.281,-39.053c-25.005,-25.005 -39.052,-58.919 -39.052,-94.281c-0,-47.96 -0,-102.04 -0,-150c-0,-35.362 14.047,-69.276 39.052,-94.281c25.005,-25.004 58.919,-39.052 94.281,-39.052c21.954,-0 44.713,-0 66.667,-0c35.362,-0 69.276,14.048 94.281,39.052c25.004,25.005 39.052,58.919 39.052,94.281c0,47.96 0,102.04 0,150Z" style="fill:#18191b;"/><path d="M375,7725.13c0,35.362 -14.048,69.276 -39.052,94.281c-25.005,25.004 -58.919,39.052 -94.281,39.052c-21.954,-0 -44.713,-0 -66.667,-0c-35.362,-0 -69.276,-14.048 -94.281,-39.052c-25.005,-25.005 -39.052,-58.919 -39.052,-94.281c-0,-83.715 -0,-191.285 -0,-275c-0,-35.363 14.047,-69.276 39.052,-94.281c25.005,-25.005 58.919,-39.053 94.281,-39.053c21.954,0 44.713,0 66.667,0c35.362,0 69.276,14.048 94.281,39.053c25.004,25.005 39.052,58.918 39.052,94.281c0,83.715 0,191.285 0,275Z" style="fill:#18191b;"/><path d="M375,8308.47c0,35.362 -14.048,69.276 -39.052,94.281c-25.005,25.005 -58.919,39.052 -94.281,39.052c-21.954,0 -44.713,0 -66.667,0c-35.362,0 -69.276,-14.047 -94.281,-39.052c-25.005,-25.005 -39.052,-58.919 -39.052,-94.281c-0,-83.715 -0,-191.285 -0,-275c-0,-35.362 14.047,-69.276 39.052,-94.281c25.005,-25.005 58.919,-39.052 94.281,-39.052c21.954,-0 44.713,-0 66.667,-0c35.362,-0 69.276,14.047 94.281,39.052c25.004,25.005 39.052,58.919 39.052,94.281c0,83.715 0,191.285 0,275Z" style="fill:#18191b;"/></g><path d="M5333.33,8858.47c0,26.522 -10.535,51.957 -29.289,70.711c-18.754,18.753 -44.189,29.289 -70.711,29.289c-657.177,-0 -4351.16,-0 -5008.33,-0c-26.522,-0 -51.957,-10.536 -70.711,-29.289c-18.753,-18.754 -29.289,-44.189 -29.289,-70.711c0,-439.135 0,-2194.2 0,-2633.33c0,-55.229 44.772,-100 100,-100c549.829,-0 3200.17,-0 3750,-0c55.228,-0 100,44.771 100,100c-0,156.279 -0,460.119 -0,649.868c-0,44.203 17.559,86.595 48.816,117.851c31.256,31.256 73.648,48.816 117.851,48.816c265.393,-0 776.03,-0 991.666,-0c26.522,-0 51.957,10.535 70.711,29.289c18.754,18.754 29.289,44.189 29.289,70.711c0,330.616 0,1386.18 0,1716.8Z" style="fill:#ffba4a;"/><path d="M208.333,7158.47c0,-8.841 3.512,-17.319 9.763,-23.57c6.252,-6.252 14.73,-9.763 23.571,-9.763c414.411,-0 4560.59,-0 4975,-0c8.84,-0 17.319,3.511 23.57,9.763c6.251,6.251 9.763,14.729 9.763,23.57c0,199.525 0,1233.81 0,1433.33c0,8.841 -3.512,17.319 -9.763,23.571c-6.251,6.251 -14.73,9.763 -23.57,9.763c-414.411,-0 -4560.59,-0 -4975,-0c-8.841,-0 -17.319,-3.512 -23.571,-9.763c-6.251,-6.252 -9.763,-14.73 -9.763,-23.571c0,-199.525 0,-1233.81 0,-1433.33Z" style="fill:#d59b3e;"/></g><g id="Category-Group" serif:id="Category Group"><path d="M5166.67,7950.13c-0,-18.41 -14.924,-33.334 -33.334,-33.334c-367.522,0 -3657.48,0 -4025,0c-18.409,0 -33.333,14.924 -33.333,33.334c0,90.911 0,342.422 0,433.333c0,18.409 14.924,33.333 33.333,33.333c367.522,0 3657.48,0 4025,0c18.41,0 33.334,-14.924 33.334,-33.333c-0,-90.911 -0,-342.422 -0,-433.333Z" style="fill:#494b50;"/><path d="M5125,7991.8c-0,-18.409 -14.924,-33.333 -33.333,-33.333c-363.161,-0 -3578.51,-0 -3941.67,-0c-18.409,-0 -33.333,14.924 -33.333,33.333c-0,78.051 -0,271.949 -0,350c-0,18.41 14.924,33.334 33.333,33.334c363.161,-0 3578.51,-0 3941.67,-0c18.409,-0 33.333,-14.924 33.333,-33.334c0,-78.051 0,-271.949 0,-350Z" style="fill:#a9ebdd;"/><g id="Decorations"><text id="Label" x="328.1px" y="8016.8px" style="font-family:'Karnivore';font-size:100px;fill:#494b50;">CATEGORY</text><g id="Knob--L-" serif:id="Knob (L)"><g id="Knob4" serif:id="Knob"><circle cx="783.333" cy="8257.28" r="104.167" style="fill:#f2f2f2;"/><path d="M783.333,8128.11c-71.289,-0 -129.166,57.877 -129.166,129.166c-0,71.29 57.877,129.167 129.166,129.167c71.289,0 129.167,-57.877 129.167,-129.167c0,-71.289 -57.878,-129.166 -129.167,-129.166Zm0,25c57.491,-0 104.167,46.675 104.167,104.166c0,57.492 -46.676,104.167 -104.167,104.167c-57.491,0 -104.166,-46.675 -104.166,-104.167c-0,-57.491 46.675,-104.166 104.166,-104.166Z" style="fill:#18191b;"/><path d="M783.333,8153.11l0,104.166" style="fill:none;stroke:#18191b;stroke-width:33.33px;"/></g><clipPath id="_clip5"><path id="Ticks4" serif:id="Ticks" d="M901.184,8375.13c31.257,-31.256 48.816,-73.649 48.816,-117.852c0,-91.985 -74.681,-166.666 -166.667,-166.666c-91.986,-0 -166.666,74.681 -166.666,166.666c-0,44.203 17.559,86.596 48.815,117.852l58.926,-58.926c-15.628,-15.628 -24.408,-36.824 -24.408,-58.926c0,-45.992 37.34,-83.333 83.333,-83.333c45.993,0 83.334,37.341 83.334,83.333c-0,22.102 -8.78,43.298 -24.408,58.926l58.925,58.926Z"/></clipPath><g clip-path="url(#_clip5)"><path d="M783.333,8098.95l0,15.833m-48.927,-8.083l4.892,15.058m-49.031,7.431l9.307,12.81m-44.335,22.218l12.809,9.307m-35.299,34.832l15.059,4.893m-22.808,44.034l15.833,0m-8.084,48.928l15.059,-4.893m7.431,49.031l12.809,-9.306m22.219,44.335l9.307,-12.81m34.832,35.299l4.892,-15.058m44.035,22.808l0,-15.834m48.928,8.084l-4.893,-15.058m49.031,-7.431l-9.306,-12.81m44.335,-22.219l-12.81,-9.306m35.299,-34.832l-15.058,-4.893m22.808,-44.035l-15.834,0m8.084,-48.927l-15.058,4.893m-7.431,-49.032l-12.81,9.307m-22.219,-44.335l-9.306,12.81m-34.832,-35.299l-4.893,15.058" style="fill:none;stroke:#18191b;stroke-width:8.33px;"/></g></g><g><path d="M550,8215.61c0,-8.841 -3.512,-17.319 -9.763,-23.57c-6.251,-6.252 -14.73,-9.764 -23.57,-9.764c-24.808,0 -58.526,0 -83.334,0c-8.84,0 -17.319,3.512 -23.57,9.764c-6.251,6.251 -9.763,14.729 -9.763,23.57l0,83.333c-0,8.841 3.512,17.319 9.763,23.57c6.251,6.252 14.73,9.764 23.57,9.763c24.808,0 58.526,0 83.334,0c8.84,0.001 17.319,-3.511 23.57,-9.763c6.251,-6.251 9.763,-14.729 9.763,-23.57l0,-83.333Z"/><path d="M550,8207.28c0,-8.841 -3.512,-17.32 -9.763,-23.571c-6.251,-6.251 -14.73,-9.763 -23.57,-9.763l-83.334,0c-8.84,0 -17.319,3.512 -23.57,9.763c-6.251,6.251 -9.763,14.73 -9.763,23.571l0,83.333c-0,8.84 3.512,17.319 9.763,23.57c6.251,6.251 14.73,9.763 23.57,9.763c24.808,0 58.526,0 83.334,0c8.84,0 17.319,-3.512 23.57,-9.763c6.251,-6.251 9.763,-14.73 9.763,-23.57l0,-83.333Z" style="fill:#b5000f;"/></g></g></g><g id="Game-Title-Group" serif:id="Game Title Group"><path d="M5166.67,7366.8c-0,-18.409 -14.924,-33.333 -33.334,-33.333c-367.522,-0 -3657.48,-0 -4025,-0c-18.409,0 -33.333,14.924 -33.333,33.333c0,90.911 0,342.423 0,433.334c0,18.409 14.924,33.333 33.333,33.333c367.522,-0 3657.48,-0 4025,-0c18.41,-0 33.334,-14.924 33.334,-33.333c-0,-90.911 -0,-342.423 -0,-433.334Z" style="fill:#494b50;"/><path d="M5125,7408.47c-0,-18.41 -14.924,-33.333 -33.333,-33.333c-363.161,-0 -3578.51,-0 -3941.67,-0c-18.409,-0 -33.333,14.923 -33.333,33.333c-0,78.051 -0,271.949 -0,350c-0,18.409 14.924,33.333 33.333,33.333c363.161,0 3578.51,0 3941.67,0c18.409,0 33.333,-14.924 33.333,-33.333c0,-78.051 0,-271.949 0,-350Z" style="fill:#a9ebdd;"/><g id="Decorations1" serif:id="Decorations"><text id="Label1" serif:id="Label" x="307.2px" y="7433.47px" style="font-family:'Karnivore';font-size:100px;fill:#494b50;">GAME TITLE</text><g id="Knob--L-1" serif:id="Knob (L)"><g id="Knob5" serif:id="Knob"><circle cx="783.333" cy="7673.95" r="104.167" style="fill:#f2f2f2;"/><path d="M783.333,7544.78c-71.289,0 -129.166,57.878 -129.166,129.167c-0,71.289 57.877,129.167 129.166,129.167c71.289,-0 129.167,-57.878 129.167,-129.167c0,-71.289 -57.878,-129.167 -129.167,-129.167Zm0,25c57.491,0 104.167,46.676 104.167,104.167c0,57.491 -46.676,104.167 -104.167,104.167c-57.491,-0 -104.166,-46.676 -104.166,-104.167c-0,-57.491 46.675,-104.167 104.166,-104.167Z" style="fill:#18191b;"/><path d="M783.333,7569.78l0,104.167" style="fill:none;stroke:#18191b;stroke-width:33.33px;"/></g><clipPath id="_clip6"><path id="Ticks5" serif:id="Ticks" d="M901.184,7791.8c31.257,-31.256 48.816,-73.648 48.816,-117.851c0,-91.986 -74.681,-166.667 -166.667,-166.667c-91.986,0 -166.666,74.681 -166.666,166.667c-0,44.203 17.559,86.595 48.815,117.851l58.926,-58.925c-15.628,-15.628 -24.408,-36.824 -24.408,-58.926c0,-45.993 37.34,-83.333 83.333,-83.333c45.993,-0 83.334,37.34 83.334,83.333c-0,22.102 -8.78,43.298 -24.408,58.926l58.925,58.925Z"/></clipPath><g clip-path="url(#_clip6)"><path d="M783.333,7515.61l0,15.833m-48.927,-8.084l4.892,15.059m-49.031,7.431l9.307,12.809m-44.335,22.219l12.809,9.307m-35.299,34.831l15.059,4.893m-22.808,44.035l15.833,0m-8.084,48.928l15.059,-4.893m7.431,49.031l12.809,-9.306m22.219,44.335l9.307,-12.81m34.832,35.299l4.892,-15.058m44.035,22.807l0,-15.833m48.928,8.084l-4.893,-15.058m49.031,-7.431l-9.306,-12.81m44.335,-22.219l-12.81,-9.306m35.299,-34.832l-15.058,-4.893m22.808,-44.035l-15.834,0m8.084,-48.928l-15.058,4.893m-7.431,-49.031l-12.81,9.307m-22.219,-44.335l-9.306,12.809m-34.832,-35.299l-4.893,15.059" style="fill:none;stroke:#18191b;stroke-width:8.33px;"/></g></g><g><path d="M550,7632.28c0,-8.841 -3.512,-17.32 -9.763,-23.571c-6.251,-6.251 -14.73,-9.763 -23.57,-9.763l-83.334,0c-8.84,0 -17.319,3.512 -23.57,9.763c-6.251,6.251 -9.763,14.73 -9.763,23.571l0,83.333c-0,8.84 3.512,17.319 9.763,23.57c6.251,6.251 14.73,9.763 23.57,9.763l83.334,0c8.84,0 17.319,-3.512 23.57,-9.763c6.251,-6.251 9.763,-14.73 9.763,-23.57l0,-83.333Z"/><path d="M550,7623.95c0,-8.84 -3.512,-17.319 -9.763,-23.57c-6.251,-6.251 -14.73,-9.763 -23.57,-9.763l-83.334,-0c-8.84,-0 -17.319,3.512 -23.57,9.763c-6.251,6.251 -9.763,14.73 -9.763,23.57l0,83.333c-0,8.841 3.512,17.319 9.763,23.571c6.251,6.251 14.73,9.763 23.57,9.763l83.334,-0c8.84,-0 17.319,-3.512 23.57,-9.763c6.251,-6.252 9.763,-14.73 9.763,-23.571l0,-83.333Z" style="fill:#b5000f;"/></g></g></g><g id="Title-Group" serif:id="Title Group"><text id="Year-Label" serif:id="Year Label" x="3531.2px" y="7058.47px" style="font-family:'Karnivore';font-size:100px;fill:#494b50;">YEAR</text><text id="Platform-Label" serif:id="Platform Label" x="2543.02px" y="7058.47px" style="font-family:'Karnivore';font-size:100px;fill:#494b50;">PLATFORM</text><text id="Timer-Label" serif:id="Timer Label" x="924.633px" y="7058.47px" style="font-family:'Karnivore';font-size:100px;fill:#494b50;">MAIN CLOCK</text></g><path id="LCD" d="M3991.67,6241.8c-0,-18.409 -14.924,-33.333 -33.334,-33.333c-351.154,-0 -3365.51,-0 -3716.67,-0c-18.41,-0 -33.334,14.924 -33.334,33.333c0,124.181 0,559.153 0,683.334c0,18.409 14.924,33.333 33.334,33.333c351.154,-0 3365.51,-0 3716.67,-0c18.41,-0 33.334,-14.924 33.334,-33.333c-0,-124.181 -0,-559.153 -0,-683.334Z" style="fill:#440722;"/></g><g id="Camera-Panel" serif:id="Camera Panel"><path d="M4033.33,333.333c0,-44.202 -17.559,-86.595 -48.815,-117.851c-31.256,-31.256 -73.649,-48.815 -117.851,-48.815l-3533.33,-0c-44.202,-0 -86.595,17.559 -117.851,48.815c-31.256,31.256 -48.815,73.649 -48.815,117.851l-0,3025c-0,92.048 74.619,166.667 166.666,166.667c134.76,-0 323.574,-0 458.334,-0c92.047,0 166.666,74.619 166.666,166.667c0,40.735 0,84.324 0,125.06c0,92.048 74.62,166.667 166.667,166.667c535.203,-0 2206.46,-0 2741.67,-0c92.047,-0 166.666,-74.619 166.666,-166.667c0,-628.946 0,-2854.45 0,-3483.39Z" style="fill:#92caff;"/><path d="M4116.67,208.333c-0,-44.202 -17.56,-86.595 -48.816,-117.851c-31.256,-31.256 -73.648,-48.815 -117.851,-48.815c-659.437,-0 -3082.23,-0 -3741.67,-0c-44.202,-0 -86.595,17.559 -117.851,48.815c-31.256,31.256 -48.815,73.649 -48.815,117.851c-0,577.514 -0,2489.15 -0,3066.67c-0,44.203 17.559,86.595 48.815,117.851c31.256,31.256 73.649,48.816 117.851,48.816c634.92,-0 2898.41,-0 3533.33,-0c92.047,-0 166.666,-74.62 166.666,-166.667l0,-853.643c0,-22.101 8.78,-43.298 24.408,-58.926c15.628,-15.628 36.824,-24.407 58.926,-24.407c13.721,-0 27.945,-0 41.666,-0c22.102,-0 43.298,-8.78 58.926,-24.408c15.628,-15.628 24.408,-36.824 24.408,-58.926c-0,-335.432 -0,-1590.63 -0,-2046.36Z" style="fill:#5daeff;"/><path id="Name-Panel" serif:id="Name Panel" d="M3950,3550.06c0,-39.782 -15.804,-77.935 -43.934,-106.066c-28.13,-28.13 -66.284,-43.934 -106.066,-43.934c-525.358,0 -2272.25,0 -2675,0c-22.101,0 -43.297,8.78 -58.926,24.408c-15.628,15.628 -24.407,36.824 -24.407,58.926c-0,72.494 -0,179.329 -0,266.666c-0,39.783 15.803,77.936 43.934,106.066c28.13,28.131 66.283,43.934 106.066,43.934c500.252,0 2108.08,0 2608.33,0c39.782,0 77.936,-15.803 106.066,-43.934c28.13,-28.13 43.934,-66.283 43.934,-106.066c0,-63.257 0,-136.742 0,-200Z" style="fill:#18191b;"/><path id="Pronouns-Panel" serif:id="Pronouns Panel" d="M3975,3133.27c0,-39.783 -15.804,-77.936 -43.934,-106.066c-28.13,-28.131 -66.284,-43.934 -106.066,-43.934c-373.022,-0 -1329,-0 -1558.33,-0c-13.261,-0 -25.979,5.268 -35.356,14.645c-9.376,9.376 -14.644,22.094 -14.644,35.355l-0,133.333c-0,39.783 15.803,77.936 43.934,106.066c28.13,28.131 66.283,43.934 106.066,43.934c373.022,0 1329,0 1558.33,0c13.261,0 25.979,-5.268 35.355,-14.644c9.377,-9.377 14.645,-22.095 14.645,-35.356l0,-133.333Z" style="fill:#ef5b5b;"/><g id="Decorations2" serif:id="Decorations"><path d="M3887.5,2165.38l0,66.221c0,13.117 15.857,19.68 25.13,10.407l137.231,-137.231c2.762,-2.762 4.306,-6.501 4.306,-10.407l-0,-66.221c-0,-13.117 -15.857,-19.68 -25.13,-10.407l-137.221,137.231c-2.762,2.762 -4.316,6.5 -4.316,10.407Zm0,-152.928l0,66.222c0,13.116 15.857,19.679 25.13,10.406l137.231,-137.231c2.762,-2.762 4.306,-6.5 4.306,-10.407l-0,-66.221c-0,-13.116 -15.857,-19.68 -25.13,-10.407l-137.221,137.231c-2.762,2.762 -4.316,6.501 -4.316,10.407Zm0,-152.928l0,66.222c0,13.116 15.857,19.679 25.13,10.407l137.231,-137.232c2.762,-2.762 4.306,-6.5 4.306,-10.407l-0,-66.221c-0,-13.116 -15.857,-19.68 -25.13,-10.407l-137.221,137.232c-2.762,2.761 -4.316,6.5 -4.316,10.406Zm0,-152.928l0,66.221c0,13.116 15.857,19.68 25.13,10.407l137.231,-137.232c2.762,-2.761 4.306,-6.5 4.306,-10.406l-0,-66.222c-0,-13.116 -15.857,-19.679 -25.13,-10.407l-137.221,137.232c-2.762,2.762 -4.316,6.5 -4.316,10.407Zm0,-152.928l0,66.221c0,13.116 15.857,19.68 25.13,10.407l137.231,-137.231c2.762,-2.762 4.306,-6.501 4.306,-10.407l-0,-66.222c-0,-13.116 -15.857,-19.679 -25.13,-10.406l-137.221,137.231c-2.762,2.762 -4.316,6.5 -4.316,10.407Zm0,-152.929l0,66.221c0,13.117 15.857,19.68 25.13,10.407l137.231,-137.231c2.762,-2.762 4.306,-6.501 4.306,-10.407l-0,-66.221c-0,-13.117 -15.857,-19.68 -25.13,-10.407l-137.221,137.231c-2.762,2.762 -4.316,6.501 -4.316,10.407Zm0,-152.929l0,66.222c0,13.116 15.857,19.679 25.13,10.406l137.231,-137.231c2.762,-2.762 4.306,-6.5 4.306,-10.407l-0,-66.221c-0,-13.116 -15.857,-19.68 -25.13,-10.407l-137.221,137.231c-2.762,2.762 -4.316,6.501 -4.316,10.407Z" style="fill:#305780;fill-rule:nonzero;"/><path d="M3887.5,1248.72l0,66.222c0,13.116 15.857,19.679 25.13,10.407l137.231,-137.232c2.762,-2.762 4.306,-6.5 4.306,-10.407l-0,-66.221c-0,-13.116 -15.857,-19.68 -25.13,-10.407l-137.221,137.231c-2.762,2.762 -4.316,6.501 -4.316,10.407Zm0,-152.927l0,66.221c0,13.116 15.857,19.679 25.13,10.407l137.231,-137.232c2.762,-2.762 4.306,-6.5 4.306,-10.406l-0,-66.222c-0,-13.116 -15.857,-19.679 -25.13,-10.407l-137.221,137.232c-2.762,2.762 -4.316,6.5 -4.316,10.407Zm0,-152.928l0,66.221c0,13.116 15.857,19.68 25.13,10.407l137.231,-137.231c2.762,-2.762 4.306,-6.501 4.306,-10.407l-0,-66.222c-0,-13.116 -15.857,-19.679 -25.13,-10.407l-137.221,137.232c-2.762,2.762 -4.316,6.5 -4.316,10.407Zm0,-152.929l0,66.221c0,13.117 15.857,19.68 25.13,10.407l137.231,-137.231c2.762,-2.762 4.306,-6.501 4.306,-10.407l-0,-66.222c-0,-13.116 -15.857,-19.679 -25.13,-10.406l-137.221,137.231c-2.762,2.762 -4.316,6.5 -4.316,10.407Zm0,-152.928l0,66.222c0,13.116 15.857,19.679 25.13,10.406l137.231,-137.231c2.762,-2.762 4.306,-6.5 4.306,-10.407l-0,-66.221c-0,-13.116 -15.857,-19.68 -25.13,-10.407l-137.221,137.231c-2.762,2.762 -4.316,6.501 -4.316,10.407Zm0,-152.929l0,66.222c0,13.116 15.857,19.679 25.13,10.407l137.231,-137.232c2.762,-2.762 4.306,-6.5 4.306,-10.407l-0,-66.221c-0,-13.116 -15.857,-19.68 -25.13,-10.407l-137.221,137.232c-2.762,2.761 -4.316,6.5 -4.316,10.406Zm0,-152.928l0,66.221c0,13.116 15.857,19.679 25.13,10.407l137.231,-137.232c2.762,-2.762 4.306,-6.5 4.306,-10.407l-0,-66.221c-0,-13.116 -15.857,-19.679 -25.13,-10.407l-137.221,137.232c-2.762,2.762 -4.316,6.5 -4.316,10.407Z" style="fill:#305780;fill-rule:nonzero;"/><text x="216.667px" y="3412.5px" style="font-family:'Fusion';font-size:82.249px;">CAM 1</text></g><path id="Camera-Frame" serif:id="Camera Frame" d="M3825,208.333c0,-46.023 -37.31,-83.333 -83.333,-83.333c-494.507,-0 -3038.83,-0 -3533.33,-0c-46.023,0 -83.333,37.31 -83.333,83.333c0,448.961 0,2576.04 0,3025c-0,22.102 8.78,43.298 24.408,58.926c15.628,15.628 36.824,24.408 58.925,24.408c331.169,-0 1552.16,-0 1883.33,-0c46.023,-0 83.333,-37.31 83.333,-83.334l-0,-208.393c0,-22.102 8.78,-43.298 24.408,-58.926c15.628,-15.628 36.824,-24.408 58.925,-24.408c282.358,0 1200.98,0 1483.33,0c22.101,0 43.297,-8.78 58.925,-24.408c15.628,-15.628 24.408,-36.824 24.408,-58.925c0,-412.994 0,-2236.95 0,-2649.94Z" style="fill:#f0f;"/><path d="M3825,208.333c0,-46.023 -37.31,-83.333 -83.333,-83.333c-494.507,-0 -3038.83,-0 -3533.33,-0c-46.023,0 -83.333,37.31 -83.333,83.333c0,448.961 0,2576.04 0,3025c-0,22.102 8.78,43.298 24.408,58.926c15.628,15.628 36.824,24.408 58.925,24.408c331.169,-0 1552.16,-0 1883.33,-0c46.023,-0 83.333,-37.31 83.333,-83.334l-0,-208.393c0,-22.102 8.78,-43.298 24.408,-58.926c15.628,-15.628 36.824,-24.408 58.925,-24.408c282.358,0 1200.98,0 1483.33,0c22.101,0 43.297,-8.78 58.925,-24.408c15.628,-15.628 24.408,-36.824 24.408,-58.925c0,-412.994 0,-2236.95 0,-2649.94Zm-16.667,0c0,412.994 0,2236.95 0,2649.94c0,17.681 -7.023,34.638 -19.526,47.14c-12.502,12.503 -29.459,19.527 -47.14,19.527c-282.358,-0 -1200.98,-0 -1483.33,-0c-26.521,-0 -51.957,10.535 -70.71,29.289c-18.754,18.753 -29.29,44.189 -29.29,70.711l0,208.393c0,36.819 -29.847,66.667 -66.666,66.667l-1883.33,-0c-17.681,0 -34.638,-7.024 -47.14,-19.526c-12.503,-12.503 -19.526,-29.46 -19.526,-47.141c-0,-448.961 -0,-2576.04 -0,-3025c-0,-36.819 29.847,-66.666 66.666,-66.666c494.508,-0 3038.83,-0 3533.33,-0c36.82,-0 66.667,29.847 66.667,66.666Z" style="fill:#23282d;"/></g><g id="Commentator-Group" serif:id="Commentator Group"><g id="Commentator-2" serif:id="Commentator 2"><path id="Bar-2" serif:id="Bar 2" d="M2512.35,4583.33l-1462.35,0c-55.228,0 -100,44.772 -100,100c-0,42.172 -0,91.162 -0,133.334c0,55.228 44.772,100 100,100c344.701,-0 1462.35,-0 1462.35,-0l-0,-333.334Z" style="fill:#18191b;"/><path id="Panel-2" serif:id="Panel 2" d="M3989.11,4747.03c21.249,-18.964 33.404,-46.089 33.416,-74.57c0.003,-9.549 0.007,-19.998 0.012,-30.697c0.01,-26.528 -10.521,-51.974 -29.276,-70.736c-18.755,-18.762 -44.196,-29.303 -70.724,-29.303c-424.356,0 -2073.26,0 -2497.54,0c-26.522,0 -51.957,10.536 -70.711,29.289c-18.753,18.754 -29.289,44.19 -29.289,70.711c0,65.604 0,151.063 0,216.667c-0,26.521 10.536,51.957 29.289,70.71c18.754,18.754 44.189,29.29 70.711,29.29c418.635,-0 2021.11,-0 2289.14,-0c24.559,-0 48.26,-9.038 66.584,-25.391c50.316,-44.904 154.741,-138.097 208.384,-185.97Z" style="fill:#5daeff;"/></g><g id="Commentator-1" serif:id="Commentator 1"><path id="Bar-1" serif:id="Bar 1" d="M2512.35,4083.28l-1462.35,-0c-55.228,-0 -100,44.771 -100,100c-0,42.171 -0,91.162 -0,133.333c0,55.229 44.772,100 100,100c344.701,0 1462.35,0 1462.35,0l-0,-333.333Z" style="fill:#18191b;"/><path id="Panel-1" serif:id="Panel 1" d="M3989.11,4246.97c21.249,-18.964 33.404,-46.089 33.416,-74.57c0.003,-9.548 0.007,-19.998 0.012,-30.696c0.01,-26.529 -10.521,-51.974 -29.276,-70.736c-18.755,-18.762 -44.196,-29.303 -70.724,-29.303c-424.356,-0 -2073.26,-0 -2497.54,-0c-26.522,-0 -51.957,10.535 -70.711,29.289c-18.753,18.754 -29.289,44.189 -29.289,70.711c0,65.603 0,151.063 0,216.666c-0,26.522 10.536,51.957 29.289,70.711c18.754,18.754 44.189,29.289 70.711,29.289c418.635,0 2021.11,0 2289.14,0c24.559,0 48.26,-9.038 66.584,-25.39c50.316,-44.904 154.741,-138.098 208.384,-185.971Z" style="fill:#5daeff;"/></g></g><path id="Screen" d="M15925,491.667c-0,-44.203 -17.559,-86.595 -48.816,-117.851c-31.256,-31.257 -73.648,-48.816 -117.851,-48.816c-1320.74,-0 -10079.3,-0 -11400,-0c-44.202,-0 -86.595,17.559 -117.851,48.816c-31.256,31.256 -48.815,73.648 -48.815,117.851c-0,917.907 -0,5348.76 -0,6266.67c-0,44.203 17.559,86.595 48.815,117.851c31.256,31.257 73.649,48.816 117.851,48.816c1320.75,-0 10079.3,-0 11400,-0c44.203,0 86.595,-17.559 117.851,-48.816c31.257,-31.256 48.816,-73.648 48.816,-117.851c-0,-917.907 -0,-5348.76 -0,-6266.67Z" style="fill:#f0f;"/><path d="M15958.3,491.667c0,-53.044 -21.071,-103.914 -58.578,-141.422c-37.508,-37.507 -88.378,-58.578 -141.422,-58.578c-1320.74,-0 -10079.3,-0 -11400,-0c-53.043,-0 -103.914,21.071 -141.421,58.578c-37.507,37.508 -58.579,88.378 -58.579,141.422c0,917.907 0,5348.76 0,6266.67c0,53.044 21.072,103.914 58.579,141.422c37.507,37.507 88.378,58.578 141.421,58.578c1320.75,0 10079.3,0 11400,0c53.044,0 103.914,-21.071 141.422,-58.578c37.507,-37.508 58.578,-88.378 58.578,-141.422l0,-6266.67Zm-33.333,-0c-0,-44.203 -17.559,-86.595 -48.816,-117.851c-31.256,-31.257 -73.648,-48.816 -117.851,-48.816c-1320.74,-0 -10079.3,-0 -11400,-0c-44.202,-0 -86.595,17.559 -117.851,48.816c-31.256,31.256 -48.815,73.648 -48.815,117.851c-0,917.907 -0,5348.76 -0,6266.67c-0,44.203 17.559,86.595 48.815,117.851c31.256,31.257 73.649,48.816 117.851,48.816c1320.75,-0 10079.3,-0 11400,-0c44.203,0 86.595,-17.559 117.851,-48.816c31.257,-31.256 48.816,-73.648 48.816,-117.851c0,-917.907 0,-5348.76 0,-6266.67Z" style="fill:#f2f2f2;"/></g></svg>