<svg xmlns="http://www.w3.org/2000/svg" xml:space="preserve" fill-rule="evenodd" stroke-linecap="round" stroke-miterlimit="3" clip-rule="evenodd" viewBox="0 0 2838 1900">
  <g id="license">
    <path id="background" fill="#1a2336" d="M2825,125c-0,-62.09 -50.41,-112.5 -112.5,-112.5l-2700,0l-0,1762.5c-0,62.09 50.41,112.5 112.5,112.5l2587.5,0c62.09,0 112.5,-50.41 112.5,-112.5l-0,-1650Z"/>
    <path fill="#e2e2e4" d="M2825,125c0,-62.09 -50.41,-112.5 -112.5,-112.5l-2700,0l-0,1762.5c-0,62.09 50.41,112.5 112.5,112.5l2587.5,0c62.09,0 112.5,-50.41 112.5,-112.5l0,-1650Zm-12.5,-0l0,1650c0,55.192 -44.808,100 -100,100c0,0 -2587.5,0 -2587.5,0c-55.192,0 -100,-44.808 -100,-100l-0,-1750c-0,0 2687.5,0 2687.5,0c55.192,0 100,44.808 100,100Z"/>
    <path fill="#1a2336" d="M2837.5,125c0,-68.989 -56.011,-125 -125,-125l-2712.5,0l-0,1775c-0,68.989 56.011,125 125,125l2587.5,0c68.989,0 125,-56.011 125,-125l0,-1650Zm-12.5,-0c0,-62.09 -50.41,-112.5 -112.5,-112.5l-2700,0l-0,1762.5c-0,62.09 50.41,112.5 112.5,112.5l2587.5,0c62.09,0 112.5,-50.41 112.5,-112.5l0,-1650Z"/>
    <g id="player-portrait-group">
      <path fill="#546893" d="M993.75,1000c0,-44.843 -36.407,-81.25 -81.25,-81.25l-712.5,-0c-44.843,-0 -81.25,36.407 -81.25,81.25l0,712.5c0,44.843 36.407,81.25 81.25,81.25l712.5,-0c44.843,-0 81.25,-36.407 81.25,-81.25l0,-712.5Z"/>
      <path fill="none" stroke="#1a2336" stroke-width="12.5" d="M618.75,1793.75l0,-293.75c-0,-21.549 8.56,-42.215 23.798,-57.452c15.237,-15.238 35.903,-23.798 57.452,-23.798l293.75,-0"/>
      <path fill="none" stroke="#e2e2e4" stroke-linejoin="round" stroke-width="5.32" d="M1025,968.786l0,-0.036c-0,-44.873 -36.377,-81.25 -81.25,-81.25c-177.387,0 -597.613,0 -775,0c-44.873,0 -81.25,36.377 -81.25,81.25l0,775c0,44.873 36.377,81.25 81.25,81.25l5.804,0"/>
    </g>
    <g id="estimate-group">
      <path fill="#e2e2e4" d="M2762.5,1525c0,-41.394 -33.606,-75 -75,-75l-1100,0c-41.394,0 -75,33.606 -75,75l-0,225c-0,41.394 33.606,75 75,75l1100,0c41.394,0 75,-33.606 75,-75l0,-225Z"/>
      <path fill="#1a2336" d="M1636.54,1643.75c13.798,0 25,11.202 25,25c0,13.798 -11.202,25 -25,25c-13.797,0 -25,-11.202 -25,-25c0,-13.798 11.203,-25 25,-25Zm0,6.25c10.349,0 18.75,8.402 18.75,18.75c0,10.348 -8.401,18.75 -18.75,18.75c-10.348,0 -18.75,-8.402 -18.75,-18.75c0,-10.348 8.402,-18.75 18.75,-18.75Z"/>
      <circle cx="1636.54" cy="1606.25" r="25" fill="#546893"/>
      <circle cx="1699.04" cy="1606.25" r="25" fill="#1a2336"/>
      <text x="1603.74" y="1555.28" fill="#1a2336" font-family="'OCRAExtended', 'OCR A Extended', monospace" font-size="77.885">estimate</text>
      <g id="Loading-Full">
        <path fill="none" stroke="#1a2336" stroke-linejoin="round" stroke-miterlimit="1.5" stroke-width="17.31" d="M2597.31,1656.84l8.962,21.634"/>
        <path fill="none" stroke="#1a2336" stroke-linejoin="round" stroke-miterlimit="1.5" stroke-width="17.31" d="M2587.26,1697.48l-21.635,-8.961"/>
        <path fill="none" stroke="#1a2336" stroke-linejoin="round" stroke-miterlimit="1.5" stroke-width="17.31" d="M2587.26,1724.37l-21.635,8.961"/>
        <path fill="none" stroke="#1a2336" stroke-linejoin="round" stroke-miterlimit="1.5" stroke-width="17.31" d="M2606.27,1743.38l-8.962,21.635"/>
        <path fill="none" stroke="#1a2336" stroke-linejoin="round" stroke-miterlimit="1.5" stroke-width="17.31" d="M2633.15,1743.38l8.961,21.635"/>
        <path fill="none" stroke="#1a2336" stroke-linejoin="round" stroke-miterlimit="1.5" stroke-width="17.31" d="M2652.16,1724.37l21.635,8.961"/>
        <path fill="none" stroke="#1a2336" stroke-linejoin="round" stroke-miterlimit="1.5" stroke-width="17.31" d="M2652.16,1697.48l21.635,-8.961"/>
        <path fill="none" stroke="#1a2336" stroke-linejoin="round" stroke-miterlimit="1.5" stroke-width="17.31" d="M2633.15,1678.47l8.961,-21.634"/>
        <path id="Ring" fill="#1a2336" d="M2619.71,1620.06c50.15,-0 90.865,40.715 90.865,90.865c-0,50.15 -40.715,90.865 -90.865,90.865c-50.15,0 -90.866,-40.715 -90.866,-90.865c0,-50.15 40.716,-90.865 90.866,-90.865Zm-0,17.307c40.597,0 73.557,32.96 73.557,73.558c0,40.598 -32.96,73.558 -73.557,73.558c-40.598,-0 -73.558,-32.96 -73.558,-73.558c-0,-40.598 32.96,-73.558 73.558,-73.558Z"/>
      </g>
    </g>
    <g id="category-group">
      <path fill="#e2e2e4" d="M2762.5,1131.25c-0,-41.394 -33.606,-75 -75,-75l-1381.25,0c-41.394,0 -75,33.606 -75,75l-0,225c-0,41.394 33.606,75 75,75l1381.25,0c41.394,0 75,-33.606 75,-75l-0,-225Z"/>
      <path fill="#ea7d30" d="M2631.25,1087.5l56.25,56.25l-56.25,56.25l56.25,0l56.25,-56.25l-56.25,-56.25l-56.25,0Z"/>
      <path fill="#ea7d30" d="M2518.75,1087.5l56.25,56.25l-56.25,56.25l56.25,0l56.25,-56.25l-56.25,-56.25l-56.25,0Z"/>
      <text x="1260.81" y="1161.53" fill="#1a2336" font-family="'OCRAExtended', 'OCR A Extended', monospace" font-size="77.885">category</text>
    </g>
    <g id="player-name-group">
      <g>
        <g id="Carets" fill="#e2e2e4">
          <path d="M2468.27,756.489l37.5,37.5l37.5,0l-37.5,-37.5l37.5,-37.5l-37.5,0l-37.5,37.5Z"/>
          <path d="M2580.77,756.489l37.5,-37.5l-37.5,0l-37.5,37.5l37.5,37.5l37.5,0l-37.5,-37.5Z"/>
        </g>
        <path fill="none" stroke="#e2e2e4" stroke-linejoin="round" stroke-width="5.32" d="M1646.15,866.107l-0,18.035c-0,12.43 4.938,24.351 13.727,33.141c8.79,8.79 20.711,13.728 33.142,13.728c177.107,-0 805.684,-0 1006.98,-0c34.518,-0 62.5,-27.983 62.5,-62.5c-0,-15.646 -0,-32.431 -0,-48.077c-0,-34.518 -27.982,-62.5 -62.5,-62.5c-29.634,-0 -58.654,-0 -58.654,-0"/>
        <path fill="#e2e2e4" d="M1665.62,956.25c13.798,-0 25,11.202 25,25c-0,13.798 -11.202,25 -25,25c-13.798,-0 -25,-11.202 -25,-25c-0,-13.798 11.202,-25 25,-25Zm-0,6.25c10.348,-0 18.75,8.402 18.75,18.75c0,10.348 -8.402,18.75 -18.75,18.75c-10.348,-0 -18.75,-8.402 -18.75,-18.75c-0,-10.348 8.402,-18.75 18.75,-18.75Z"/>
        <circle cx="1728.12" cy="981.25" r="25" fill="#e2e2e4"/>
        <circle cx="1790.62" cy="981.25" r="25" fill="#546893"/>
        <path fill="#e2e2e4" d="M1790.62,956.25c13.798,-0 25,11.202 25,25c-0,13.798 -11.202,25 -25,25c-13.798,-0 -25,-11.202 -25,-25c-0,-13.798 11.202,-25 25,-25Zm-0,6.25c10.348,-0 18.75,8.402 18.75,18.75c0,10.348 -8.402,18.75 -18.75,18.75c-10.348,-0 -18.75,-8.402 -18.75,-18.75c-0,-10.348 8.402,-18.75 18.75,-18.75Z"/>
        <text x="2494.32" y="914.059" fill="#737b89" font-family="'OCRAExtended', 'OCR A Extended', monospace" font-size="56.25">runner</text>
      </g>
    </g>
    <g id="game-name-group">
      <g>
        <g id="Carets1" fill="#e2e2e4">
          <path d="M287.234,402.663l56.25,56.25l-56.25,56.25l56.25,0l56.25,-56.25l-56.25,-56.25l-56.25,0Z"/>
          <path d="M174.734,402.663l56.25,56.25l-56.25,56.25l56.25,0l56.25,-56.25l-56.25,-56.25l-56.25,0Z"/>
        </g>
        <path fill="none" stroke="#e2e2e4" stroke-linejoin="round" stroke-width="5.32" d="M1337.23,352.663l-0,0c-0,-34.518 -27.983,-62.5 -62.5,-62.5c-210.949,0 -896.856,0 -1137.5,0c-46.599,0 -84.375,37.776 -84.375,84.375l-0,0c-0,22.378 8.889,43.839 24.712,59.662c15.824,15.824 37.285,24.713 59.663,24.713c18.643,0 32.972,0 32.972,0"/>
        <text x="169.103" y="365.163" fill="#e2e2e4" font-family="'OCRAExtended', 'OCR A Extended', monospace" font-size="56.25">game name</text>
      </g>
      <g>
        <path fill="#e2e2e4" d="M1650,325.051c13.798,-0 25,11.202 25,25c0,13.798 -11.202,25 -25,25c-13.798,-0 -25,-11.202 -25,-25c0,-13.798 11.202,-25 25,-25Zm0,6.25c10.348,-0 18.75,8.401 18.75,18.75c-0,10.348 -8.402,18.75 -18.75,18.75c-10.348,-0 -18.75,-8.402 -18.75,-18.75c0,-10.349 8.402,-18.75 18.75,-18.75Z"/>
        <circle cx="1650" cy="287.551" r="25" fill="#737b89"/>
        <circle cx="1712.5" cy="287.551" r="25" fill="#e2e2e4"/>
        <path fill="none" stroke="#737b89" stroke-linejoin="round" stroke-width="5.32" d="M962.5,639.238l0,0.006c0,19.747 16.009,35.756 35.756,35.756c129.143,-0 573.536,-0 757.994,-0c44.873,-0 81.25,-36.377 81.25,-81.25c0,-72.338 0,-177.612 0,-249.949c-0,-44.873 -36.377,-81.25 -81.25,-81.25c0,-0 0,-0 0,-0"/>
      </g>
    </g>
    <g id="header-license">
      <g id="header-license-right">
        <text x="2177.05" y="198.125" fill="#737b89" font-family="'OCRAExtended', 'OCR A Extended', monospace" font-size="75">r<tspan x="2218.6 2260.15 2301.7 2343.25 2384.8 2426.35 2467.9 2509.45 2551 2592.55 2634.1 2675.65 2717.2" y="198.125 198.125 198.125 198.125 198.125 198.125 198.125 198.125 198.125 198.125 198.125 198.125 198.125">unner license</tspan></text>
        <g fill="#e2e2e4">
          <path d="M1534.38,50l37.5,37.5l-37.5,37.5l37.5,0l37.5,-37.5l-37.5,-37.5l-37.5,0Z"/>
          <path d="M1459.38,50l37.5,37.5l-37.5,37.5l37.5,0l37.5,-37.5l-37.5,-37.5l-37.5,0Z"/>
          <path d="M1684.38,50l37.5,37.5l-37.5,37.5l37.5,0l37.5,-37.5l-37.5,-37.5l-37.5,0Z"/>
          <path d="M1609.38,50l37.5,37.5l-37.5,37.5l37.5,0l37.5,-37.5l-37.5,-37.5l-37.5,0Z"/>
          <path d="M2687.5,50l37.5,37.5l-37.5,37.5l37.5,0l37.5,-37.5l-37.5,-37.5l-37.5,0Z"/>
          <path d="M1759.38,50l37.5,37.5l-37.5,37.5l37.5,0l37.5,-37.5l-37.5,-37.5l-37.5,0Z"/>
          <path d="M2462.5,50l37.5,37.5l-37.5,37.5l37.5,0l37.5,-37.5l-37.5,-37.5l-37.5,0Z"/>
          <path d="M2387.5,50l37.5,37.5l-37.5,37.5l37.5,0l37.5,-37.5l-37.5,-37.5l-37.5,0Z"/>
          <path d="M2612.5,50l37.5,37.5l-37.5,37.5l37.5,0l37.5,-37.5l-37.5,-37.5l-37.5,0Z"/>
          <path d="M2537.5,50l37.5,37.5l-37.5,37.5l37.5,0l37.5,-37.5l-37.5,-37.5l-37.5,0Z"/>
          <text x="1876.56" y="124.063" font-family="'DelaGothicOne-Regular', 'Dela Gothic One'" font-size="93.75">ライセンス</text>
        </g>
      </g>
      <g id="header-license-left">
        <path fill="#737b89" d="M1432.93,50l-1382.93,0l-0,175l1304.81,0c43.119,0 78.125,-35.007 78.125,-78.125l0,-96.875Z"/>
        <text x="113.963" y="224.887" fill="#1a2336" font-family="Fusion" font-size="215.625">UP NEXT</text>
      </g>
    </g>
  </g>
</svg>
