<svg xmlns="http://www.w3.org/2000/svg" xmlns:xlink="http://www.w3.org/1999/xlink" xml:space="preserve" fill-rule="evenodd" stroke-linecap="square" stroke-miterlimit="3" clip-rule="evenodd" viewBox="0 0 16000 9000">
  <g id="Setup-Page">
    <g id="Curves">
      <g id="Setup-background">
        <g id="curves">
          <clipPath id="_clip1">
            <path d="M0 0h16000v9000H0z"/>
          </clipPath>
          <g fill="none" clip-path="url(#_clip1)">
            <path stroke="#5daeff" stroke-width="225" d="m0 8104.23 16000-1.461"/>
            <path stroke="#305780" stroke-linejoin="round" stroke-width="583.33" d="M16000 2038.34s-1638.91 1638.92-2367.16 2367.16c-218.8 218.8-341.717 515.56-341.709 824.991l.063 2190.31c.008 309.425-122.904 606.18-341.698 824.98-218.793 218.799-515.544 341.72-824.969 341.72H.027"/>
            <path stroke="#f2f2f2" stroke-linejoin="round" stroke-miterlimit="2" stroke-width="666.67" d="m16000 1189.42-1558.52 1558.52c-667.382 667.381-667.382 1749.42 0 2416.8l681.729 681.729c667.382 667.382 667.381 1749.42 0 2416.8l-736.722 736.722"/>
            <path stroke="#ef5b5b" stroke-linejoin="round" stroke-width="583.33" d="m16000 1189.42-1558.52 1558.52c-667.382 667.381-667.382 1749.42 0 2416.8l681.729 681.729c667.382 667.382 667.381 1749.42 0 2416.8l-736.722 736.722"/>
            <path stroke="#f2f2f2" stroke-linejoin="round" stroke-miterlimit="2" stroke-width="666.67" d="m16000 2868.84-4893.68 4893.68c-667.382 667.382-667.382 1749.42 0 2416.8l1890.13 1890.13"/>
            <path stroke="#ef5b5b" stroke-miterlimit="2" stroke-width="583.33" d="m16000 2868.84-4893.68 4893.68c-667.382 667.382-667.382 1749.42 0 2416.8l1890.13 1890.13"/>
          </g>
        </g>
      </g>
    </g>
    <path fill="#494b50" d="M6250 6270.83h416.667v-208.333H6250v208.333Z"/>
    <path fill="none" stroke="#5daeff" stroke-linecap="butt" stroke-linejoin="round" stroke-miterlimit="1.5" stroke-width="83.33" d="M6583.33 6062.5v208.333"/>
    <path fill="none" stroke="#ef5b5b" stroke-linecap="butt" stroke-linejoin="round" stroke-miterlimit="1.5" stroke-width="83.33" d="M6458.33 6062.5v208.333"/>
    <path fill="none" stroke="#a9ebdd" stroke-linecap="butt" stroke-linejoin="round" stroke-miterlimit="1.5" stroke-width="83.33" d="M6333.33 6062.5v208.333"/>
    <path fill="#494b50" d="M6791.67 6270.83h416.666v-208.333H6791.67v208.333Z"/>
    <path fill="none" stroke="#5daeff" stroke-linecap="butt" stroke-linejoin="round" stroke-miterlimit="1.5" stroke-width="83.33" d="M7125 6062.5v208.333"/>
    <path fill="none" stroke="#ef5b5b" stroke-linecap="butt" stroke-linejoin="round" stroke-miterlimit="1.5" stroke-width="83.33" d="M7000 6062.5v208.333"/>
    <path fill="none" stroke="#a9ebdd" stroke-linecap="butt" stroke-linejoin="round" stroke-miterlimit="1.5" stroke-width="83.33" d="M6875 6062.5v208.333"/>
    <path fill="#494b50" d="M7333.33 6270.83h416.667v-208.333H7333.33v208.333Z"/>
    <path fill="none" stroke="#5daeff" stroke-linecap="butt" stroke-linejoin="round" stroke-miterlimit="1.5" stroke-width="83.33" d="M7666.67 6062.5v208.333"/>
    <path fill="none" stroke="#ef5b5b" stroke-linecap="butt" stroke-linejoin="round" stroke-miterlimit="1.5" stroke-width="83.33" d="M7541.67 6062.5v208.333"/>
    <path fill="none" stroke="#a9ebdd" stroke-linecap="butt" stroke-linejoin="round" stroke-miterlimit="1.5" stroke-width="83.33" d="M7416.67 6062.5v208.333"/>
    <path fill="#ef5b5b" d="M8533.33 6408.33c0-92.047-74.619-166.666-166.666-166.666H249.994c-92.047 0-166.667 74.619-166.667 166.666v1333.33c0 92.047 74.62 166.666 166.667 166.666h8116.67c92.047 0 166.666-74.619 166.666-166.666V6408.33Z"/>
    <path id="Up-Next-Panel" fill="#c74c4c" d="M8450 6658.33a83.333 83.333 0 0 0-83.333-83.333h-2158.33a83.333 83.333 0 0 1-83.333-83.333v-83.334c0-46.023-37.31-83.333-83.333-83.333h-4375c-46.024 0-83.334 37.31-83.334 83.333 0 46.024-37.309 83.334-83.333 83.334H583.337c-46.023 0-83.333-37.31-83.333-83.334a83.333 83.333 0 0 0-83.333-83.333H250.004a83.335 83.335 0 0 0-83.333 83.333v1333.33a83.332 83.332 0 0 0 83.333 83.333h8116.67a83.333 83.333 0 0 0 83.333-83.333V6658.33Z"/>
    <path fill="none" stroke="#c74c4c" stroke-linecap="round" stroke-miterlimit="2" stroke-width="33.33" d="M625 6391.67h833.333"/>
    <text x="6208.33" y="6526.5" fill="#f2f2f2" font-family="Karnivore" font-size="300">UP NEXT</text>
    <path id="Info-Container" fill="none" d="M83.333 3150h5291.67v3000H83.333z"/>
    <clipPath id="_clip2">
      <path d="M83.333 3150h5291.67v3000H83.333z"/>
    </clipPath>
    <g clip-path="url(#_clip2)">
      <path fill="#18191b" d="M5041.67 3595.83a133.331 133.331 0 0 0 133.333 133.334h66.667a133.334 133.334 0 0 0 133.333-133.334v-150a133.337 133.337 0 0 0-39.052-94.281 133.337 133.337 0 0 0-94.281-39.052h-66.667a133.333 133.333 0 0 0-133.333 133.333v150Zm0 987.5a133.333 133.333 0 0 0 133.333 133.334h66.667a133.334 133.334 0 0 0 133.333-133.334v-275a133.337 133.337 0 0 0-39.052-94.281 133.337 133.337 0 0 0-94.281-39.052h-66.667a133.333 133.333 0 0 0-133.333 133.333v275Zm0 583.34a133.333 133.333 0 0 0 133.333 133.333h66.667a133.337 133.337 0 0 0 94.281-39.052 133.337 133.337 0 0 0 39.052-94.281v-275a133.337 133.337 0 0 0-133.333-133.334h-66.667a133.334 133.334 0 0 0-133.333 133.334v275Zm0 583.33a133.333 133.333 0 0 0 133.333 133.333h66.667A133.333 133.333 0 0 0 5375.003 5750v-275a133.333 133.333 0 0 0-133.333-133.333h-66.667A133.333 133.333 0 0 0 5041.67 5475v275Z"/>
      <path fill="#ffba4a" d="M83.333 6050a100 100 0 0 0 100 100h5008.33a100 100 0 0 0 100-100V3250c0-55.228-44.772-100-100-100h-3300c-55.229 0-100 44.772-100 100v550c0 55.229-44.772 100-100 100H183.333a100 100 0 0 0-100 100v2050Z"/>
      <path id="Info-Inset-Panel" fill="#d59b3e" d="M5208.33 4016.67a33.337 33.337 0 0 0-33.333-33.334h-4975a33.332 33.332 0 0 0-33.333 33.334v2016.67a33.337 33.337 0 0 0 33.333 33.334h4975a33.332 33.332 0 0 0 33.333-33.334V4016.67Z"/>
      <g id="Category-Group">
        <use xlink:href="#_Image3" width="4125" height="533.333" x="1016.67" y="5348.34" transform="scale(1 .99875)"/>
        <path fill="#494b50" d="M5125 5391.67c0-18.41-14.924-33.334-33.333-33.334h-4025c-18.41 0-33.334 14.924-33.334 33.334v433.333c0 18.409 14.924 33.333 33.334 33.333h4025c18.409 0 33.333-14.924 33.333-33.333V5391.67Z"/>
        <path fill="#a9ebdd" d="M5083.33 5433.33c0-18.409-14.924-33.333-33.333-33.333h-3941.67c-18.409 0-33.333 14.924-33.333 33.333v350c0 18.41 14.924 33.334 33.333 33.334h3941.67c18.409 0 33.333-14.924 33.333-33.334v-350Z"/>
        <g id="Decorations">
          <text id="Label" x="286.433" y="5458.33" fill="#494b50" font-family="Karnivore" font-size="100">CATEGORY</text>
          <g id="Knob--L-">
            <g id="Knob">
              <circle cx="741.667" cy="5698.82" r="104.167" fill="#f2f2f2"/>
              <path fill="#18191b" d="M741.667 5569.65c-71.289 0-129.167 57.878-129.167 129.167s57.878 129.166 129.167 129.166 129.166-57.877 129.166-129.166c0-71.289-57.877-129.167-129.166-129.167Zm0 25c57.491 0 104.166 46.675 104.166 104.167 0 57.491-46.675 104.166-104.166 104.166S637.5 5756.308 637.5 5698.817c0-57.492 46.676-104.167 104.167-104.167Z"/>
              <path fill="none" stroke="#18191b" stroke-linecap="round" stroke-linejoin="round" stroke-miterlimit="1.5" stroke-width="33.33" d="M741.667 5594.65v104.167"/>
            </g>
            <clipPath id="_clip4">
              <path id="Ticks" d="M859.518 5816.67a166.667 166.667 0 0 0 48.815-117.851c0-91.986-74.68-166.667-166.666-166.667-91.986 0-166.667 74.681-166.667 166.667a166.664 166.664 0 0 0 48.816 117.851l58.925-58.926a83.333 83.333 0 0 1-24.408-58.925c0-45.993 37.341-83.334 83.334-83.334S825 5652.826 825 5698.819a83.333 83.333 0 0 1-24.408 58.925l58.926 58.926Z"/>
            </clipPath>
            <g clip-path="url(#_clip4)">
              <path fill="none" stroke="#18191b" stroke-linecap="round" stroke-linejoin="round" stroke-miterlimit="1.5" stroke-width="8.33" d="M741.667 5540.48v15.834m-48.928-8.084 4.893 15.058m-49.031 7.431 9.306 12.81m-44.335 22.219 12.81 9.306m-35.299 34.832 15.058 4.893m-22.808 44.035h15.834m-8.084 48.927 15.058-4.893m7.431 49.032 12.81-9.307m22.219 44.335 9.306-12.81m34.832 35.299 4.893-15.058m44.035 22.808v-15.833m48.927 8.083-4.892-15.058m49.031-7.431-9.307-12.81m44.335-22.218-12.809-9.307m35.299-34.832-15.059-4.893M900 5698.814h-15.833m8.084-48.928-15.059 4.893m-7.431-49.031-12.809 9.306m-22.219-44.335-9.307 12.81m-34.832-35.299-4.892 15.058"/>
            </g>
          </g>
          <path d="M508.333 5657.15A33.332 33.332 0 0 0 475 5623.817h-83.333a33.332 33.332 0 0 0-33.334 33.333v83.333a33.332 33.332 0 0 0 33.334 33.334H475a33.332 33.332 0 0 0 33.333-33.334v-83.333Z"/>
          <path fill="#b5000f" d="M508.333 5648.82A33.337 33.337 0 0 0 475 5615.486h-83.333a33.337 33.337 0 0 0-33.334 33.334v83.333a33.334 33.334 0 0 0 33.334 33.333H475a33.332 33.332 0 0 0 33.333-33.333v-83.333Z"/>
        </g>
      </g>
      <g id="Game-Title-Group">
        <use xlink:href="#_Image3" width="4125" height="533.333" x="1016.67" y="4764.28" transform="scale(1 .99875)"/>
        <path fill="#494b50" d="M5125 4808.33c0-18.409-14.924-33.333-33.333-33.333h-4025c-18.41 0-33.334 14.924-33.334 33.333v433.334c0 18.409 14.924 33.333 33.334 33.333h4025c18.409 0 33.333-14.924 33.333-33.333V4808.33Z"/>
        <path fill="#a9ebdd" d="M5083.33 4850c0-18.41-14.924-33.333-33.333-33.333h-3941.67c-18.409 0-33.333 14.923-33.333 33.333v350c0 18.41 14.924 33.333 33.333 33.333h3941.67c18.409 0 33.333-14.923 33.333-33.333v-350Z"/>
        <g id="Decorations1">
          <text id="Label1" x="265.533" y="4875" fill="#494b50" font-family="Karnivore" font-size="100">GAME TITLE</text>
          <g id="Knob--L-1">
            <g id="Knob1">
              <circle cx="741.667" cy="5115.48" r="104.167" fill="#f2f2f2"/>
              <path fill="#18191b" d="M741.667 4986.32c-71.289 0-129.167 57.877-129.167 129.166 0 71.289 57.878 129.167 129.167 129.167s129.166-57.878 129.166-129.167-57.877-129.166-129.166-129.166Zm0 25c57.491 0 104.166 46.675 104.166 104.166s-46.675 104.167-104.166 104.167S637.5 5172.977 637.5 5115.486s46.676-104.166 104.167-104.166Z"/>
              <path fill="none" stroke="#18191b" stroke-linecap="round" stroke-linejoin="round" stroke-miterlimit="1.5" stroke-width="33.33" d="M741.667 5011.32v104.166"/>
            </g>
            <clipPath id="_clip5">
              <path id="Ticks1" d="M859.518 5233.33a166.666 166.666 0 0 0 48.815-117.851c0-91.986-74.68-166.666-166.666-166.666-91.986 0-166.667 74.68-166.667 166.666a166.662 166.662 0 0 0 48.816 117.851l58.925-58.925a83.334 83.334 0 0 1-24.408-58.926c0-45.993 37.341-83.333 83.334-83.333S825 5069.486 825 5115.479a83.334 83.334 0 0 1-24.408 58.926l58.926 58.925Z"/>
            </clipPath>
            <g clip-path="url(#_clip5)">
              <path fill="none" stroke="#18191b" stroke-linecap="round" stroke-linejoin="round" stroke-miterlimit="1.5" stroke-width="8.33" d="M741.667 4957.15v15.833m-48.928-8.084 4.893 15.059m-49.031 7.431 9.306 12.809m-44.335 22.219 12.81 9.307m-35.299 34.832 15.058 4.892m-22.808 44.035h15.834m-8.084 48.928 15.058-4.893m7.431 49.031 12.81-9.306m22.219 44.335 9.306-12.81m34.832 35.299 4.893-15.058m44.035 22.808v-15.834m48.927 8.084-4.892-15.058m49.031-7.431-9.307-12.81m44.335-22.219-12.809-9.306m35.299-34.832-15.059-4.893M900 5115.483h-15.833m8.084-48.927-15.059 4.892m-7.431-49.031-12.809 9.307m-22.219-44.335-9.307 12.809m-34.832-35.299-4.892 15.059"/>
            </g>
          </g>
          <path d="M508.333 5073.82A33.337 33.337 0 0 0 475 5040.486h-83.333a33.337 33.337 0 0 0-33.334 33.334v83.333a33.334 33.334 0 0 0 33.334 33.333H475a33.332 33.332 0 0 0 33.333-33.333v-83.333Z"/>
          <path fill="#b5000f" d="M508.333 5065.48A33.334 33.334 0 0 0 475 5032.147h-83.333a33.337 33.337 0 0 0-33.334 33.333v83.333a33.335 33.335 0 0 0 33.334 33.334H475a33.332 33.332 0 0 0 33.333-33.334v-83.333Z"/>
        </g>
      </g>
      <g id="Category-Group1">
        <use xlink:href="#_Image3" width="4125" height="533.333" x="1016.67" y="4180.22" transform="scale(1 .99875)"/>
        <path fill="#494b50" d="M5125 4225c0-18.409-14.924-33.333-33.333-33.333h-4025c-18.41 0-33.334 14.924-33.334 33.333v433.333c0 18.41 14.924 33.334 33.334 33.334h4025c18.409 0 33.333-14.924 33.333-33.334V4225Z"/>
        <path fill="#a9ebdd" d="M5083.33 4266.67c0-18.41-14.924-33.334-33.333-33.334h-3941.67c-18.409 0-33.333 14.924-33.333 33.334v350c0 18.409 14.924 33.333 33.333 33.333h3941.67c18.409 0 33.333-14.924 33.333-33.333v-350Z"/>
        <g id="Decorations2">
          <text id="Label2" x="366.933" y="4291.67" fill="#494b50" font-family="Karnivore" font-size="100">RUNNER</text>
          <g id="Knob--L-2">
            <g id="Knob2">
              <circle cx="741.667" cy="4532.15" r="104.167" fill="#f2f2f2"/>
              <path fill="#18191b" d="M741.667 4402.98c-71.289 0-129.167 57.878-129.167 129.167s57.878 129.167 129.167 129.167 129.166-57.878 129.166-129.167-57.877-129.167-129.166-129.167Zm0 25c57.491 0 104.166 46.676 104.166 104.167s-46.675 104.167-104.166 104.167S637.5 4589.638 637.5 4532.147s46.676-104.167 104.167-104.167Z"/>
              <path fill="none" stroke="#18191b" stroke-linecap="round" stroke-linejoin="round" stroke-miterlimit="1.5" stroke-width="33.33" d="M741.667 4427.98v104.167"/>
            </g>
            <clipPath id="_clip6">
              <path id="Ticks2" d="M859.518 4650a166.666 166.666 0 0 0 48.815-117.851c0-91.986-74.68-166.667-166.666-166.667-91.986 0-166.667 74.681-166.667 166.667A166.662 166.662 0 0 0 623.816 4650l58.925-58.926a83.333 83.333 0 0 1-24.408-58.925c0-45.993 37.341-83.333 83.334-83.333S825 4486.156 825 4532.149a83.333 83.333 0 0 1-24.408 58.925L859.518 4650Z"/>
            </clipPath>
            <g clip-path="url(#_clip6)">
              <path fill="none" stroke="#18191b" stroke-linecap="round" stroke-linejoin="round" stroke-miterlimit="1.5" stroke-width="8.33" d="M741.667 4373.82v15.833m-48.928-8.084 4.893 15.058m-49.031 7.432 9.306 12.809m-44.335 22.219 12.81 9.306m-35.299 34.832 15.058 4.893m-22.808 44.035h15.834m-8.084 48.928 15.058-4.893m7.431 49.031 12.81-9.307m22.219 44.335 9.306-12.809m34.832 35.299 4.893-15.059m44.035 22.808v-15.833m48.927 8.084-4.892-15.059m49.031-7.431-9.307-12.809m44.335-22.219-12.809-9.307m35.299-34.831-15.059-4.893M900 4532.153h-15.833m8.084-48.928-15.059 4.893m-7.431-49.031-12.809 9.306m-22.219-44.334-9.307 12.809m-34.832-35.299-4.892 15.058"/>
            </g>
          </g>
          <path d="M508.333 4490.48A33.334 33.334 0 0 0 475 4457.147h-83.333a33.337 33.337 0 0 0-33.334 33.333v83.333a33.335 33.335 0 0 0 33.334 33.334H475a33.332 33.332 0 0 0 33.333-33.334v-83.333Z"/>
          <path fill="#b5000f" d="M508.333 4482.15A33.332 33.332 0 0 0 475 4448.817h-83.333a33.332 33.332 0 0 0-33.334 33.333v83.333a33.332 33.332 0 0 0 33.334 33.334H475a33.332 33.332 0 0 0 33.333-33.334v-83.333Z"/>
        </g>
      </g>
      <g id="Title-Group" fill="#494b50" font-family="Karnivore" font-size="100">
        <text id="Year-Label" x="4806.2" y="3916.67">YEAR</text>
        <text id="Platform-Label" x="3884.68" y="3916.67">PLATFORM</text>
        <text id="Timer-Label" x="1908.33" y="3916.67">ESTIMATE</text>
      </g>
      <path id="LCD" fill="#440722" d="M5208.33 3266.67c0-18.41-14.923-33.334-33.333-33.334h-3266.67c-18.409 0-33.333 14.924-33.333 33.334v516.666c0 18.41 14.924 33.334 33.333 33.334h3266.67c18.41 0 33.333-14.924 33.333-33.334V3266.67Z"/>
    </g>
    <g id="Camera-Panel">
      <path fill="#92caff" d="M5541.67 2708.27c0-92.048 74.619-166.667 166.666-166.667h3133.33c92.047 0 166.666 74.619 166.666 166.667v2816.67c0 92.047-74.619 166.666-166.666 166.666h-141.667a166.667 166.667 0 0 0-166.667 166.667V5900a166.666 166.666 0 0 1-166.666 166.667h-2658.33c-92.047 0-166.666-74.62-166.666-166.667V2708.27Z"/>
      <path fill="#5daeff" d="M5458.33 2583.27c0-92.048 74.62-166.667 166.667-166.667h3333.33c92.048 0 166.667 74.619 166.667 166.667V5441.6c0 92.048-74.619 166.667-166.667 166.667h-361.575c-81.052 0-146.758 65.706-146.758 146.758v.009c0 34.002-27.564 61.566-61.567 61.566h-2638.43c-46.024 0-83.333-37.309-83.333-83.333v-936.976a83.334 83.334 0 0 0-83.334-83.334h-41.666a83.334 83.334 0 0 1-83.334-83.333v-2046.36Z"/>
      <g id="Decorations3" fill="#305780" fill-rule="nonzero">
        <path id="Grille" d="M5708.33 4540.32v66.221c0 13.116-15.857 19.679-25.129 10.407l-137.232-137.232a14.701 14.701 0 0 1-4.305-10.407v-66.221c0-13.116 15.857-19.679 25.129-10.407l137.221 137.232a14.712 14.712 0 0 1 4.316 10.407Zm0-152.928v66.221c0 13.116-15.857 19.68-25.129 10.407l-137.232-137.231a14.703 14.703 0 0 1-4.305-10.407v-66.222c0-13.116 15.857-19.679 25.129-10.407l137.221 137.232a14.712 14.712 0 0 1 4.316 10.407Zm0-152.928v66.221c0 13.117-15.857 19.68-25.129 10.407l-137.232-137.231a14.703 14.703 0 0 1-4.305-10.407v-66.221c0-13.117 15.857-19.68 25.129-10.407l137.221 137.231a14.712 14.712 0 0 1 4.316 10.407Zm0-152.929v66.222c0 13.116-15.857 19.679-25.129 10.406l-137.232-137.231a14.701 14.701 0 0 1-4.305-10.407v-66.221c0-13.116 15.857-19.68 25.129-10.407l137.221 137.231a14.714 14.714 0 0 1 4.316 10.407Zm0-152.928v66.222c0 13.116-15.857 19.679-25.129 10.407l-137.232-137.232a14.701 14.701 0 0 1-4.305-10.407v-66.221c0-13.116 15.857-19.68 25.129-10.407l137.221 137.232a14.71 14.71 0 0 1 4.316 10.406Zm0-152.928v66.221c0 13.116-15.857 19.679-25.129 10.407l-137.232-137.232a14.7 14.7 0 0 1-4.305-10.406v-66.222c0-13.116 15.857-19.679 25.129-10.407l137.221 137.232a14.712 14.712 0 0 1 4.316 10.407Zm0-152.929v66.221c0 13.116-15.857 19.68-25.129 10.407l-137.232-137.231a14.703 14.703 0 0 1-4.305-10.407v-66.222c0-13.116 15.857-19.679 25.129-10.407l137.221 137.232a14.712 14.712 0 0 1 4.316 10.407Z"/>
        <path id="Grille1" d="M5708.33 3623.66v66.221c0 13.116-15.857 19.68-25.129 10.407l-137.232-137.231a14.703 14.703 0 0 1-4.305-10.407v-66.222c0-13.116 15.857-19.679 25.129-10.406l137.221 137.231a14.712 14.712 0 0 1 4.316 10.407Zm0-152.928v66.221c0 13.117-15.857 19.68-25.129 10.407l-137.232-137.231a14.701 14.701 0 0 1-4.305-10.407v-66.221c0-13.117 15.857-19.68 25.129-10.407l137.221 137.231a14.714 14.714 0 0 1 4.316 10.407Zm0-152.928v66.222c0 13.116-15.857 19.679-25.129 10.407l-137.232-137.232a14.701 14.701 0 0 1-4.305-10.407v-66.221c0-13.116 15.857-19.68 25.129-10.407l137.221 137.231a14.714 14.714 0 0 1 4.316 10.407Zm0-152.929v66.222c0 13.116-15.857 19.679-25.129 10.407l-137.232-137.232a14.701 14.701 0 0 1-4.305-10.407v-66.221c0-13.116 15.857-19.679 25.129-10.407l137.221 137.232a14.71 14.71 0 0 1 4.316 10.406Zm0-152.927v66.221c0 13.116-15.857 19.68-25.129 10.407l-137.232-137.231a14.703 14.703 0 0 1-4.305-10.407v-66.222c0-13.116 15.857-19.679 25.129-10.407l137.221 137.232a14.712 14.712 0 0 1 4.316 10.407Zm0-152.929v66.221c0 13.116-15.857 19.68-25.129 10.407l-137.232-137.231a14.703 14.703 0 0 1-4.305-10.407v-66.222c0-13.116 15.857-19.679 25.129-10.406l137.221 137.231a14.712 14.712 0 0 1 4.316 10.407Zm0-152.929v66.221c0 13.117-15.857 19.68-25.129 10.407l-137.232-137.231a14.701 14.701 0 0 1-4.305-10.407v-66.221c0-13.117 15.857-19.68 25.129-10.407l137.221 137.231a14.714 14.714 0 0 1 4.316 10.407Z"/>
        <path id="Grille2" d="M9041.67 4540.32v66.221c0 13.116-15.857 19.679-25.13 10.407l-137.231-137.232a14.702 14.702 0 0 1-4.306-10.407v-66.221c0-13.116 15.857-19.679 25.13-10.407l137.221 137.232a14.716 14.716 0 0 1 4.316 10.407Zm0-152.928v66.221c0 13.116-15.857 19.68-25.13 10.407l-137.231-137.231a14.704 14.704 0 0 1-4.306-10.407v-66.222c0-13.116 15.857-19.679 25.13-10.407l137.221 137.232a14.716 14.716 0 0 1 4.316 10.407Zm0-152.928v66.221c0 13.117-15.857 19.68-25.13 10.407l-137.231-137.231a14.704 14.704 0 0 1-4.306-10.407v-66.221c0-13.117 15.857-19.68 25.13-10.407l137.221 137.231a14.716 14.716 0 0 1 4.316 10.407Zm0-152.929v66.222c0 13.116-15.857 19.679-25.13 10.406l-137.231-137.231a14.702 14.702 0 0 1-4.306-10.407v-66.221c0-13.116 15.857-19.68 25.13-10.407l137.221 137.231a14.718 14.718 0 0 1 4.316 10.407Zm0-152.928v66.222c0 13.116-15.857 19.679-25.13 10.407l-137.231-137.232a14.702 14.702 0 0 1-4.306-10.407v-66.221c0-13.116 15.857-19.68 25.13-10.407l137.221 137.232a14.714 14.714 0 0 1 4.316 10.406Zm0-152.928v66.221c0 13.116-15.857 19.679-25.13 10.407l-137.231-137.232a14.702 14.702 0 0 1-4.306-10.406v-66.222c0-13.116 15.857-19.679 25.13-10.407l137.221 137.232a14.716 14.716 0 0 1 4.316 10.407Zm0-152.929v66.221c0 13.116-15.857 19.68-25.13 10.407l-137.231-137.231a14.704 14.704 0 0 1-4.306-10.407v-66.222c0-13.116 15.857-19.679 25.13-10.407l137.221 137.232a14.716 14.716 0 0 1 4.316 10.407Z"/>
        <path id="Grille3" d="M9041.67 3623.66v66.221c0 13.116-15.857 19.68-25.13 10.407l-137.231-137.231a14.704 14.704 0 0 1-4.306-10.407v-66.222c0-13.116 15.857-19.679 25.13-10.406l137.221 137.231a14.716 14.716 0 0 1 4.316 10.407Zm0-152.928v66.221c0 13.117-15.857 19.68-25.13 10.407l-137.231-137.231a14.702 14.702 0 0 1-4.306-10.407v-66.221c0-13.117 15.857-19.68 25.13-10.407l137.221 137.231a14.718 14.718 0 0 1 4.316 10.407Zm0-152.928v66.222c0 13.116-15.857 19.679-25.13 10.407l-137.231-137.232a14.702 14.702 0 0 1-4.306-10.407v-66.221c0-13.116 15.857-19.68 25.13-10.407l137.221 137.231a14.718 14.718 0 0 1 4.316 10.407Zm0-152.929v66.222c0 13.116-15.857 19.679-25.13 10.407l-137.231-137.232a14.702 14.702 0 0 1-4.306-10.407v-66.221c0-13.116 15.857-19.679 25.13-10.407l137.221 137.232a14.714 14.714 0 0 1 4.316 10.406Zm0-152.927v66.221c0 13.116-15.857 19.68-25.13 10.407l-137.231-137.231a14.704 14.704 0 0 1-4.306-10.407v-66.222c0-13.116 15.857-19.679 25.13-10.407l137.221 137.232a14.716 14.716 0 0 1 4.316 10.407Zm0-152.929v66.221c0 13.116-15.857 19.68-25.13 10.407l-137.231-137.231a14.704 14.704 0 0 1-4.306-10.407v-66.222c0-13.116 15.857-19.679 25.13-10.406l137.221 137.231a14.716 14.716 0 0 1 4.316 10.407Zm0-152.929v66.221c0 13.117-15.857 19.68-25.13 10.407l-137.231-137.231a14.702 14.702 0 0 1-4.306-10.407v-66.221c0-13.117 15.857-19.68 25.13-10.407l137.221 137.231a14.718 14.718 0 0 1 4.316 10.407Z"/>
      </g>
      <path id="Camera-Frame" fill="#23282d" d="M5791.67 2583.27a83.334 83.334 0 0 1 83.333-83.333h2833.33a83.333 83.333 0 0 1 83.334 83.333V5416.6a83.334 83.334 0 0 1-83.334 83.334h-2833.33a83.335 83.335 0 0 1-83.333-83.334V2583.27Zm16.666 0a66.667 66.667 0 0 1 66.667-66.667h2833.33a66.67 66.67 0 0 1 47.141 19.526A66.67 66.67 0 0 1 8775 2583.27V5416.6a66.67 66.67 0 0 1-19.526 47.141 66.67 66.67 0 0 1-47.141 19.526h-2833.33a66.667 66.667 0 0 1-66.667-66.667V2583.27Z"/>
    </g>
  </g>
</svg>
