<svg xmlns="http://www.w3.org/2000/svg" xml:space="preserve" fill-rule="evenodd" stroke-linecap="square" stroke-miterlimit="3" clip-rule="evenodd" viewBox="0 0 10667 6000">
  <g id="Setup-Page">
    <g id="Setup-background">
      <g id="curves" fill="none">
        <path stroke="#546893" stroke-width="150" d="M-0,5409.31l10666.7,-0.974"/>
        <path stroke="#1a2336" stroke-linejoin="round" stroke-width="300" d="M10666.7,889.447c-0,-0 -1298.5,1298.5 -1933.64,1933.64c-218.8,218.8 -341.717,515.56 -341.709,824.991c0.008,258.585 0.017,589.195 0.026,910.218c0.009,309.425 -122.903,606.18 -341.697,824.98c-218.793,218.799 -515.544,341.72 -824.969,341.72c-2305.68,0 -7224.67,0 -7224.67,0"/>
        <path stroke="#e2e2e4" stroke-linejoin="round" stroke-miterlimit="2" stroke-width="466.67" d="M10666.7,323.505c-0,-0 -664.421,664.421 -1281.22,1281.22c-570.422,570.423 -570.422,1495.26 0,2065.68c0.002,0.001 0.004,0.003 0.005,0.005c570.423,570.422 570.423,1495.26 0,2065.68c-154.855,154.856 -263.907,263.908 -263.907,263.908"/>
        <path stroke="#ea7d30" stroke-linejoin="round" stroke-width="416.67" d="M10666.7,323.505c-0,-0 -664.421,664.421 -1281.22,1281.22c-570.422,570.423 -570.422,1495.26 0,2065.68c0.002,0.001 0.004,0.003 0.005,0.005c570.423,570.422 570.423,1495.26 0,2065.68c-154.855,154.856 -263.907,263.908 -263.907,263.908"/>
        <path stroke="#e2e2e4" stroke-linejoin="round" stroke-miterlimit="2" stroke-width="466.67" d="M10666.7,1443.12c-0,-0 -1984.9,1984.9 -3329.1,3329.1c-667.382,667.381 -667.382,1749.42 -0,2416.8c451.721,451.721 857.286,857.286 857.286,857.286"/>
        <path stroke="#ea7d30" stroke-linejoin="round" stroke-width="416.67" d="M10666.7,1443.12c-0,-0 -1984.9,1984.9 -3329.1,3329.1c-667.382,667.381 -667.382,1749.42 -0,2416.8c451.721,451.721 857.286,857.286 857.286,857.286"/>
      </g>
    </g>
    <g id="license">
      <path id="background" fill="#1a2336" d="M4166.67,1525c-0,-82.787 -67.213,-150 -150,-150l-3600,0l-0,2350c-0,82.787 67.212,150 150,150l3450,0c82.787,0 150,-67.213 150,-150l-0,-2200Z"/>
      <path fill="#e2e2e4" d="M4166.67,1525c-0,-82.787 -67.213,-150 -150,-150l-3600,0l-0,2350c-0,82.787 67.212,150 150,150l3450,0c82.787,0 150,-67.213 150,-150l-0,-2200Zm-16.667,0l0,2200c0,73.589 -59.745,133.333 -133.333,133.333l-3450,0c-73.589,0 -133.334,-59.744 -133.334,-133.333l0,-2333.33c0,-0 3583.33,-0 3583.33,-0c73.588,-0 133.333,59.744 133.333,133.333Z"/>
      <path fill="#1a2336" d="M4183.33,1525c0,-91.986 -74.68,-166.667 -166.666,-166.667l-3616.67,0l-0,2366.67c-0,91.986 74.681,166.667 166.667,166.667c-0,-0 3450,-0 3450,-0c91.986,-0 166.666,-74.681 166.666,-166.667c0,0 0,-2200 0,-2200Zm-16.666,0c-0,-82.787 -67.213,-150 -150,-150l-3600,0l-0,2350c-0,82.787 67.212,150 150,150l3450,0c82.787,0 150,-67.213 150,-150l-0,-2200Z"/>
      <g id="player-portrait-group">
        <path fill="#546893" d="M1725,2691.67c0,-59.791 -48.543,-108.334 -108.333,-108.334l-950,0c-59.791,0 -108.334,48.543 -108.334,108.334l0,950c0,59.79 48.543,108.333 108.334,108.333l950,0c59.79,0 108.333,-48.543 108.333,-108.333l0,-950Z"/>
        <path fill="none" stroke="#1a2336" stroke-linecap="round" stroke-width="16.67" d="M1225,3750l0,-391.667c-0,-28.731 11.414,-56.286 31.73,-76.603c20.317,-20.316 47.872,-31.73 76.603,-31.73l391.667,0"/>
        <path fill="none" stroke="#e2e2e4" stroke-linecap="round" stroke-linejoin="round" stroke-width="7.09" d="M1766.67,2650.05c-0,0 -0,-0.016 -0,-0.048c-0,-59.831 -48.503,-108.333 -108.334,-108.333c-236.516,-0 -796.817,-0 -1033.33,-0c-59.831,-0 -108.333,48.502 -108.333,108.333l-0,1033.33c-0,59.831 48.502,108.334 108.333,108.334c4.856,-0 7.738,-0 7.738,-0"/>
      </g>
      <g id="estimate-group">
        <path fill="#e2e2e4" d="M4083.33,3391.67c0,-55.192 -44.808,-100 -100,-100l-1466.67,-0c-55.192,-0 -100,44.808 -100,100l-0,300c-0,55.191 44.808,100 100,100l1466.67,-0c55.192,-0 100,-44.809 100,-100l0,-300Z"/>
        <path fill="#1a2336" d="M2582.05,3550c18.397,0 33.334,14.936 33.334,33.333c-0,18.398 -14.937,33.334 -33.334,33.334c-18.397,-0 -33.333,-14.936 -33.333,-33.334c-0,-18.397 14.936,-33.333 33.333,-33.333Zm0,8.333c13.798,0 25,11.202 25,25c0,13.798 -11.202,25 -25,25c-13.798,0 -25,-11.202 -25,-25c0,-13.798 11.202,-25 25,-25Z"/>
        <circle cx="2582.05" cy="3500" r="33.333" fill="#546893"/>
        <circle cx="2665.39" cy="3500" r="33.333" fill="#1a2336"/>
        <text x="2538.32" y="3432.04" fill="#1a2336" font-family="'OCRAExtended', 'OCR A Extended', monospace" font-size="103.846">estimate</text>
        <g id="Loading-Full">
          <path fill="none" stroke="#1a2336" stroke-linecap="round" stroke-linejoin="round" stroke-miterlimit="1.5" stroke-width="23.08" d="M3863.08,3567.45l11.948,28.846"/>
          <path fill="none" stroke="#1a2336" stroke-linecap="round" stroke-linejoin="round" stroke-miterlimit="1.5" stroke-width="23.08" d="M3849.68,3621.64l-28.846,-11.948"/>
          <path fill="none" stroke="#1a2336" stroke-linecap="round" stroke-linejoin="round" stroke-miterlimit="1.5" stroke-width="23.08" d="M3849.68,3657.49l-28.846,11.948"/>
          <path fill="none" stroke="#1a2336" stroke-linecap="round" stroke-linejoin="round" stroke-miterlimit="1.5" stroke-width="23.08" d="M3875.03,3682.84l-11.948,28.846"/>
          <path fill="none" stroke="#1a2336" stroke-linecap="round" stroke-linejoin="round" stroke-miterlimit="1.5" stroke-width="23.08" d="M3910.87,3682.84l11.949,28.846"/>
          <path fill="none" stroke="#1a2336" stroke-linecap="round" stroke-linejoin="round" stroke-miterlimit="1.5" stroke-width="23.08" d="M3936.22,3657.49l28.846,11.948"/>
          <path fill="none" stroke="#1a2336" stroke-linecap="round" stroke-linejoin="round" stroke-miterlimit="1.5" stroke-width="23.08" d="M3936.22,3621.64l28.846,-11.948"/>
          <path fill="none" stroke="#1a2336" stroke-linecap="round" stroke-linejoin="round" stroke-miterlimit="1.5" stroke-width="23.08" d="M3910.87,3596.3l11.949,-28.846"/>
          <path id="Ring" fill="#1a2336" d="M3892.95,3518.41c66.866,0 121.154,54.287 121.154,121.154c-0,66.867 -54.288,121.154 -121.154,121.154c-66.867,-0 -121.154,-54.287 -121.154,-121.154c-0,-66.867 54.287,-121.154 121.154,-121.154Zm-0,23.077c54.13,0 98.077,43.947 98.077,98.077c-0,54.13 -43.947,98.077 -98.077,98.077c-54.13,0 -98.077,-43.947 -98.077,-98.077c-0,-54.13 43.947,-98.077 98.077,-98.077Z"/>
        </g>
      </g>
      <g id="category-group">
        <path fill="#e2e2e4" d="M4083.33,2866.67c0,-55.192 -44.808,-100 -100,-100l-1841.67,-0c-55.192,-0 -100,44.808 -100,100l-0,300c-0,55.191 44.808,100 100,100l1841.67,-0c55.192,-0 100,-44.809 100,-100l0,-300Z"/>
        <path fill="#ea7d30" d="M3908.33,2808.33l75,75l-75,75l75,0l75,-75l-75,-75l-75,0Z"/>
        <path fill="#ea7d30" d="M3758.33,2808.33l75,75l-75,75l75,0l75,-75l-75,-75l-75,0Z"/>
        <text x="2081.08" y="2907.04" fill="#1a2336" font-family="'OCRAExtended', 'OCR A Extended', monospace" font-size="103.846">category</text>
      </g>
      <g id="player-name-group">
        <g>
          <g id="Carets" fill="#e2e2e4">
            <path d="M3691.03,2366.99l50,50l50,-0l-50,-50l50,-50l-50,-0l-50,50Z"/>
            <path d="M3841.03,2366.99l50,-50l-50,-0l-50,50l50,50l50,-0l-50,-50Z"/>
          </g>
          <path fill="none" stroke="#e2e2e4" stroke-linecap="round" stroke-linejoin="round" stroke-width="7.09" d="M2594.87,2513.14c-0,0 -0,10.43 -0,24.047c-0,16.574 6.584,32.469 18.303,44.188c11.72,11.72 27.615,18.304 44.189,18.304c236.142,-0 1074.25,-0 1342.64,-0c46.024,-0 83.333,-37.31 83.333,-83.333c0,-20.862 0,-43.242 0,-64.103c0,-46.024 -37.309,-83.333 -83.333,-83.333c-39.512,-0 -78.205,-0 -78.205,-0"/>
          <path fill="#e2e2e4" d="M2620.83,2633.33c18.398,0 33.334,14.936 33.334,33.334c-0,18.397 -14.936,33.333 -33.334,33.333c-18.397,0 -33.333,-14.936 -33.333,-33.333c0,-18.398 14.936,-33.334 33.333,-33.334Zm0,8.334c13.798,-0 25,11.202 25,25c0,13.798 -11.202,25 -25,25c-13.798,-0 -25,-11.202 -25,-25c0,-13.798 11.202,-25 25,-25Z"/>
          <circle cx="2704.17" cy="2666.67" r="33.333" fill="#e2e2e4"/>
          <circle cx="2787.5" cy="2666.67" r="33.333" fill="#546893"/>
          <path fill="#e2e2e4" d="M2787.5,2633.33c18.397,0 33.333,14.936 33.333,33.334c0,18.397 -14.936,33.333 -33.333,33.333c-18.397,0 -33.333,-14.936 -33.333,-33.333c-0,-18.398 14.936,-33.334 33.333,-33.334Zm-0,8.334c13.798,-0 25,11.202 25,25c0,13.798 -11.202,25 -25,25c-13.798,-0 -25,-11.202 -25,-25c0,-13.798 11.202,-25 25,-25Z"/>
          <text x="3725.75" y="2577.08" fill="#737b89" font-family="'OCRAExtended', 'OCR A Extended', monospace" font-size="75">runner</text>
        </g>
      </g>
      <g id="game-name-group">
        <g>
          <g id="Carets1" fill="#e2e2e4">
            <path d="M782.978,1895.22l75,75l-75,75l75,0l75,-75l-75,-75l-75,0Z"/>
            <path d="M632.978,1895.22l75,75l-75,75l75,0l75,-75l-75,-75l-75,0Z"/>
          </g>
          <path fill="none" stroke="#e2e2e4" stroke-linecap="round" stroke-linejoin="round" stroke-width="7.09" d="M2182.98,1828.55l0,-0c0,-46.024 -37.31,-83.334 -83.333,-83.334c-281.266,0 -1195.81,0 -1516.67,0c-62.132,0 -112.5,50.368 -112.5,112.5l0,0.001c0,29.836 11.853,58.451 32.951,79.549c21.097,21.098 49.712,32.95 79.549,32.95c24.858,0 43.963,0 43.963,0"/>
          <text x="625.471" y="1845.22" fill="#e2e2e4" font-family="'OCRAExtended', 'OCR A Extended', monospace" font-size="75">game name</text>
        </g>
        <g>
          <path fill="#e2e2e4" d="M2600,1791.73c18.397,0 33.333,14.937 33.333,33.334c0,18.397 -14.936,33.333 -33.333,33.333c-18.397,0 -33.333,-14.936 -33.333,-33.333c-0,-18.397 14.936,-33.334 33.333,-33.334Zm0,8.334c13.798,-0 25,11.202 25,25c-0,13.798 -11.202,25 -25,25c-13.798,-0 -25,-11.202 -25,-25c0,-13.798 11.202,-25 25,-25Z"/>
          <circle cx="2600" cy="1741.73" r="33.333" fill="#737b89"/>
          <circle cx="2683.33" cy="1741.73" r="33.333" fill="#e2e2e4"/>
          <path fill="none" stroke="#737b89" stroke-linecap="round" stroke-linejoin="round" stroke-width="7.09" d="M1683.33,2210.65l0,0.007c0,26.331 21.345,47.675 47.675,47.675c172.191,0 764.715,0 1010.66,0c59.831,0 108.333,-48.502 108.333,-108.333c0,-96.45 0,-236.815 0,-333.266c-0,-59.83 -48.502,-108.333 -108.333,-108.333c-0,0 -0,0 -0,0"/>
        </g>
      </g>
      <g id="header-license">
        <g id="header-license-right">
          <text x="3302.73" y="1622.5" fill="#737b89" font-family="'OCRAExtended', 'OCR A Extended', monospace" font-size="100">r<tspan x="3358.13 3413.53 3468.93 3524.33 3579.73 3635.13 3690.53 3745.93 3801.33 3856.73 3912.13 3967.53 4022.93" y="1622.5 1622.5 1622.5 1622.5 1622.5 1622.5 1622.5 1622.5 1622.5 1622.5 1622.5 1622.5 1622.5">unner license</tspan></text>
          <g fill="#e2e2e4">
            <path d="M2445.83,1425l50,50l-50,50l50,0l50,-50l-50,-50l-50,0Z"/>
            <path d="M2345.83,1425l50,50l-50,50l50,0l50,-50l-50,-50l-50,0Z"/>
            <path d="M2645.83,1425l50,50l-50,50l50,0l50,-50l-50,-50l-50,0Z"/>
            <path d="M2545.83,1425l50,50l-50,50l50,0l50,-50l-50,-50l-50,0Z"/>
            <path d="M3983.33,1425l50,50l-50,50l50,0l50,-50l-50,-50l-50,0Z"/>
            <path d="M2745.83,1425l50,50l-50,50l50,0l50,-50l-50,-50l-50,0Z"/>
            <path d="M3683.33,1425l50,50l-50,50l50,0l50,-50l-50,-50l-50,0Z"/>
            <path d="M3583.33,1425l50,50l-50,50l50,0l50,-50l-50,-50l-50,0Z"/>
            <path d="M3883.33,1425l50,50l-50,50l50,0l50,-50l-50,-50l-50,0Z"/>
            <path d="M3783.33,1425l50,50l-50,50l50,0l50,-50l-50,-50l-50,0Z"/>
            <text x="2902.08" y="1523.75" font-family="'DelaGothicOne-Regular', 'Dela Gothic One'" font-size="125">ライセンス</text>
          </g>
        </g>
        <g id="header-license-left">
          <path fill="#737b89" d="M2310.57,1425l-1843.91,0l-0,233.333l1739.74,0c57.491,0 104.167,-46.675 104.167,-104.166l-0,-129.167Z"/>
          <text x="551.95" y="1658.18" fill="#1a2336" font-family="Fusion" font-size="287.5">UP NEXT</text>
        </g>
      </g>
    </g>
  </g>
  <g id="header-solo">
    <g id="header_left">
      <path fill="#ea7d30" d="M2791.67,50l-2691.67,-0l0,233.333l2587.5,0l104.167,-104.166l-0,-129.167Z"/>
      <g id="Carets2" fill="#e2e2e4" fill-rule="nonzero">
        <path d="M2453.92,95.033c-14.6,0 -21.913,17.654 -11.588,27.979l32.063,32.067c6.404,6.4 6.404,16.775 -0,23.175l-32.063,32.067c-10.325,10.325 -3.012,27.979 11.588,27.979c4.346,-0 8.517,-1.725 11.587,-4.8l55.246,-55.246c6.4,-6.4 6.4,-16.775 0,-23.175l-55.246,-55.246c-3.07,-3.075 -7.241,-4.8 -11.587,-4.8"/>
        <path d="M2543.9,95.033c-14.6,0 -21.913,17.654 -11.588,27.979l32.063,32.067c6.404,6.4 6.404,16.775 -0,23.175l-32.063,32.067c-10.325,10.325 -3.012,27.979 11.588,27.979c4.345,-0 8.516,-1.725 11.587,-4.8l55.246,-55.246c6.4,-6.4 6.4,-16.775 -0,-23.175l-55.246,-55.246c-3.071,-3.075 -7.242,-4.8 -11.587,-4.8"/>
      </g>
      <g id="Carets3" fill="#e2e2e4" fill-rule="nonzero">
        <path d="M166.421,95.033c-14.6,0 -21.913,17.654 -11.588,27.979l32.063,32.067c6.404,6.4 6.404,16.775 -0,23.175l-32.063,32.067c-10.325,10.325 -3.012,27.979 11.588,27.979c4.346,-0 8.517,-1.725 11.587,-4.8l55.246,-55.246c6.4,-6.4 6.4,-16.775 0,-23.175l-55.246,-55.246c-3.07,-3.075 -7.241,-4.8 -11.587,-4.8"/>
        <path d="M256.403,95.033c-14.6,0 -21.913,17.654 -11.588,27.979l32.063,32.067c6.404,6.4 6.404,16.775 -0,23.175l-32.063,32.067c-10.325,10.325 -3.012,27.979 11.588,27.979c4.345,-0 8.516,-1.725 11.587,-4.8l55.246,-55.246c6.4,-6.4 6.4,-16.775 -0,-23.175l-55.246,-55.246c-3.071,-3.075 -7.242,-4.8 -11.587,-4.8"/>
      </g>
      <g id="JP-Text">
        <text x="1577.08" y="161.25" fill="#e2e2e4" font-family="'DelaGothicOne-Regular', 'Dela Gothic One'" font-size="125">スピードラン</text>
        <path fill="none" d="M1566.67 175H2337.503V283.333H1566.67z"/>
        <clipPath id="_clip1">
          <path d="M1566.67 175H2337.503V283.333H1566.67z"/>
        </clipPath>
        <g clip-path="url(#_clip1)">
          <g id="Hatching" fill="#e2e2e4">
            <path d="M1599.02,129.659l-7.216,-4.166l-116.667,202.072l7.217,4.167l116.666,-202.073Z"/>
            <path d="M1615.68,129.659l-7.217,-4.166l-116.666,202.072l7.216,4.167l116.667,-202.073Z"/>
            <path d="M1632.35,129.659l-7.217,-4.166l-116.667,202.072l7.217,4.167l116.667,-202.073Z"/>
            <path d="M1649.02,129.659l-7.216,-4.166l-116.667,202.072l7.217,4.167l116.666,-202.073Z"/>
            <path d="M1665.68,129.659l-7.217,-4.166l-116.666,202.072l7.216,4.167l116.667,-202.073Z"/>
            <path d="M1682.35,129.659l-7.217,-4.166l-116.667,202.072l7.217,4.167l116.667,-202.073Z"/>
            <path d="M1699.02,129.659l-7.216,-4.166l-116.667,202.072l7.217,4.167l116.666,-202.073Z"/>
            <path d="M1715.68,129.659l-7.217,-4.166l-116.666,202.072l7.216,4.167l116.667,-202.073Z"/>
            <path d="M1732.35,129.659l-7.217,-4.166l-116.667,202.072l7.217,4.167l116.667,-202.073Z"/>
            <path d="M1749.02,129.659l-7.216,-4.166l-116.667,202.072l7.217,4.167l116.666,-202.073Z"/>
            <path d="M1765.68,129.659l-7.217,-4.166l-116.666,202.072l7.216,4.167l116.667,-202.073Z"/>
            <path d="M1782.35,129.659l-7.217,-4.166l-116.667,202.072l7.217,4.167l116.667,-202.073Z"/>
            <path d="M1799.02,129.659l-7.216,-4.166l-116.667,202.072l7.217,4.167l116.666,-202.073Z"/>
            <path d="M1815.68,129.659l-7.217,-4.166l-116.666,202.072l7.216,4.167l116.667,-202.073Z"/>
            <path d="M1832.35,129.659l-7.217,-4.166l-116.667,202.072l7.217,4.167l116.667,-202.073Z"/>
            <path d="M1849.02,129.659l-7.216,-4.166l-116.667,202.072l7.217,4.167l116.666,-202.073Z"/>
            <path d="M1865.68,129.659l-7.217,-4.166l-116.666,202.072l7.216,4.167l116.667,-202.073Z"/>
            <path d="M1882.35,129.659l-7.217,-4.166l-116.667,202.072l7.217,4.167l116.667,-202.073Z"/>
            <path d="M1899.02,129.659l-7.216,-4.166l-116.667,202.072l7.217,4.167l116.666,-202.073Z"/>
            <path d="M1915.68,129.659l-7.217,-4.166l-116.666,202.072l7.216,4.167l116.667,-202.073Z"/>
            <path d="M1932.35,129.659l-7.217,-4.166l-116.667,202.072l7.217,4.167l116.667,-202.073Z"/>
            <path d="M1949.02,129.659l-7.216,-4.166l-116.667,202.072l7.217,4.167l116.666,-202.073Z"/>
            <path d="M1965.68,129.659l-7.217,-4.166l-116.666,202.072l7.216,4.167l116.667,-202.073Z"/>
            <path d="M1982.35,129.659l-7.217,-4.166l-116.667,202.072l7.217,4.167l116.667,-202.073Z"/>
            <path d="M1999.02,129.659l-7.216,-4.166l-116.667,202.072l7.217,4.167l116.666,-202.073Z"/>
            <path d="M2015.68,129.659l-7.217,-4.166l-116.666,202.072l7.216,4.167l116.667,-202.073Z"/>
            <path d="M2032.35,129.659l-7.217,-4.166l-116.667,202.072l7.217,4.167l116.667,-202.073Z"/>
            <path d="M2049.01,129.659l-7.216,-4.166l-116.667,202.072l7.217,4.167l116.666,-202.073Z"/>
            <path d="M2065.68,129.659l-7.217,-4.166l-116.666,202.072l7.216,4.167l116.667,-202.073Z"/>
            <path d="M2082.35,129.659l-7.217,-4.166l-116.667,202.072l7.217,4.167l116.667,-202.073Z"/>
            <path d="M2099.01,129.659l-7.216,-4.166l-116.667,202.072l7.217,4.167l116.666,-202.073Z"/>
            <path d="M2115.68,129.659l-7.217,-4.166l-116.666,202.072l7.216,4.167l116.667,-202.073Z"/>
            <path d="M2132.35,129.659l-7.217,-4.166l-116.667,202.072l7.217,4.167l116.667,-202.073Z"/>
            <path d="M2149.01,129.659l-7.216,-4.166l-116.667,202.072l7.217,4.167l116.666,-202.073Z"/>
            <path d="M2165.68,129.659l-7.217,-4.166l-116.666,202.072l7.216,4.167l116.667,-202.073Z"/>
            <path d="M2182.35,129.659l-7.217,-4.166l-116.667,202.072l7.217,4.167l116.667,-202.073Z"/>
            <path d="M2199.01,129.659l-7.216,-4.166l-116.667,202.072l7.217,4.167l116.666,-202.073Z"/>
            <path d="M2215.68,129.659l-7.217,-4.166l-116.666,202.072l7.216,4.167l116.667,-202.073Z"/>
            <path d="M2232.35,129.659l-7.217,-4.166l-116.667,202.072l7.217,4.167l116.667,-202.073Z"/>
            <path d="M2249.01,129.659l-7.216,-4.166l-116.667,202.072l7.217,4.167l116.666,-202.073Z"/>
            <path d="M2265.68,129.659l-7.217,-4.166l-116.666,202.072l7.216,4.167l116.667,-202.073Z"/>
            <path d="M2282.35,129.659l-7.217,-4.166l-116.667,202.072l7.217,4.167l116.667,-202.073Z"/>
            <path d="M2299.01,129.659l-7.216,-4.166l-116.667,202.072l7.217,4.167l116.666,-202.073Z"/>
            <path d="M2315.68,129.659l-7.217,-4.166l-116.666,202.072l7.216,4.167l116.667,-202.073Z"/>
            <path d="M2332.35,129.659l-7.217,-4.166l-116.667,202.072l7.217,4.167l116.667,-202.073Z"/>
            <path d="M2349.01,129.659l-7.216,-4.166l-116.667,202.072l7.217,4.167l116.666,-202.073Z"/>
            <path d="M2365.68,129.659l-7.217,-4.166l-116.666,202.072l7.216,4.167l116.667,-202.073Z"/>
            <path d="M2382.35,129.659l-7.217,-4.166l-116.667,202.072l7.217,4.167l116.667,-202.073Z"/>
            <path d="M2399.01,129.659l-7.216,-4.166l-116.667,202.072l7.217,4.167l116.666,-202.073Z"/>
            <path d="M2415.68,129.659l-7.217,-4.166l-116.666,202.072l7.216,4.167l116.667,-202.073Z"/>
            <path d="M2432.35,129.659l-7.217,-4.166l-116.667,202.072l7.217,4.167l116.667,-202.073Z"/>
          </g>
        </g>
      </g>
      <text x="450.383" y="283.183" fill="#e2e2e4" font-family="Fusion" font-size="287.5">LCNS</text>
    </g>
    <g id="header_right">
      <path fill="#ea7d30" d="M2812.5 50H10266.67V179.167H2812.5z"/>
      <g id="Barcode" fill="#e2e2e4">
        <path d="M7694.58 50H7719.58V179.167H7694.58z"/>
        <path d="M7737.54 50H7762.54V179.167H7737.54z"/>
        <path d="M7829.21 50H7875.043V179.167H7829.21z"/>
        <path d="M8391.71 50H8437.543V179.167H8391.71z"/>
        <path d="M8458.37 50H8504.203V179.167H8458.37z"/>
        <path d="M8704.22 50H8750.053V179.167H8704.22z"/>
        <path d="M8791.69 50H8837.523V179.167H8791.69z"/>
        <path d="M9175.04 50.001H9220.873V179.168H9175.04z"/>
        <path d="M9241.71 50H9287.543V179.167H9241.71z"/>
        <path d="M9575.04 50.001H9620.873V179.168H9575.04z"/>
        <path d="M7941.71 50H8029.21V179.167H7941.71z"/>
        <path d="M8141.71 50H8229.21V179.167H8141.71z"/>
        <path d="M8550.04 50H8616.707V179.167H8550.04z"/>
        <path d="M8904.21 50H8970.877V179.167H8904.21z"/>
        <path d="M9083.35 50.001H9150.017V179.168H9083.35z"/>
        <path d="M9691.72 50.001H9779.22V179.168H9691.72z"/>
        <path d="M7895.87 50H7920.87V179.167H7895.87z"/>
        <path d="M8050.04 50H8075.04V179.167H8050.04z"/>
        <path d="M8095.87 50H8120.87V179.167H8095.87z"/>
        <path d="M8254.21 50H8279.21V179.167H8254.21z"/>
        <path d="M8300.04 50H8325.04V179.167H8300.04z"/>
        <path d="M8345.87 50H8370.87V179.167H8345.87z"/>
        <path d="M8637.54 50H8662.54V179.167H8637.54z"/>
        <path d="M9016.71 50H9041.71V179.167H9016.71z"/>
        <path d="M9329.19 50H9354.19V179.167H9329.19z"/>
        <path d="M9375.03 50.001H9400.03V179.168H9375.03z"/>
        <path d="M9441.71 50H9466.71V179.167H9441.71z"/>
        <path d="M9487.54 50H9512.54V179.167H9487.54z"/>
        <path d="M9641.71 50H9666.71V179.167H9641.71z"/>
      </g>
    </g>
  </g>
</svg>
