<?xml version="1.0" encoding="UTF-8" standalone="no"?><!DOCTYPE svg PUBLIC "-//W3C//DTD SVG 1.1//EN" "http://www.w3.org/Graphics/SVG/1.1/DTD/svg11.dtd"><svg width="100%" height="100%" viewBox="0 0 16000 9000" version="1.1" xmlns="http://www.w3.org/2000/svg" xmlns:xlink="http://www.w3.org/1999/xlink" xml:space="preserve" xmlns:serif="http://www.serif.com/" style="fill-rule:evenodd;clip-rule:evenodd;stroke-linecap:square;stroke-miterlimit:3;"><g id="Setup-Page" serif:id="Setup Page"><g id="Curves"><g id="Setup-background" serif:id="Setup background"><g id="curves"><clipPath id="_clip1"><rect x="0" y="0" width="16000" height="9000"/></clipPath><g clip-path="url(#_clip1)"><path d="M0,8104.23l16000,-1.461" style="fill:none;stroke:#5daeff;stroke-width:225px;"/><path d="M16000,2038.34c0,0 -1638.91,1638.92 -2367.16,2367.16c-218.8,218.8 -341.717,515.56 -341.709,824.991c0.016,546.493 0.042,1455.81 0.063,2190.31c0.008,309.425 -122.904,606.18 -341.698,824.98c-218.793,218.799 -515.544,341.72 -824.969,341.72c-3242.35,0 -12124.5,0 -12124.5,0" style="fill:none;stroke:#305780;stroke-width:583.33px;stroke-linejoin:round;"/><path d="M16000,1189.42c0,-0 -813.662,813.661 -1558.52,1558.52c-667.382,667.381 -667.382,1749.42 -0,2416.8c223.911,223.912 457.818,457.818 681.729,681.729c667.382,667.382 667.381,1749.42 -0,2416.8c-396.137,396.137 -736.722,736.722 -736.722,736.722" style="fill:none;stroke:#f2f2f2;stroke-width:666.67px;stroke-linejoin:round;stroke-miterlimit:2;"/><path d="M16000,1189.42c0,-0 -813.662,813.661 -1558.52,1558.52c-667.382,667.381 -667.382,1749.42 -0,2416.8c223.911,223.912 457.818,457.818 681.729,681.729c667.382,667.382 667.381,1749.42 -0,2416.8c-396.137,396.137 -736.722,736.722 -736.722,736.722" style="fill:none;stroke:#ef5b5b;stroke-width:583.33px;stroke-linejoin:round;"/><path d="M16000,2868.84c0,0 -3114.87,3114.87 -4893.68,4893.68c-667.382,667.382 -667.382,1749.42 -0,2416.8c869.677,869.677 1890.13,1890.13 1890.13,1890.13" style="fill:none;stroke:#f2f2f2;stroke-width:666.67px;stroke-linejoin:round;stroke-miterlimit:2;"/><path d="M16000,2868.84c0,0 -3114.87,3114.87 -4893.68,4893.68c-667.382,667.382 -667.382,1749.42 -0,2416.8c869.677,869.677 1890.13,1890.13 1890.13,1890.13" style="fill:none;stroke:#ef5b5b;stroke-width:583.33px;stroke-miterlimit:2;"/></g></g></g></g></g></svg>