<?xml version="1.0" encoding="UTF-8" standalone="no"?><!DOCTYPE svg PUBLIC "-//W3C//DTD SVG 1.1//EN" "http://www.w3.org/Graphics/SVG/1.1/DTD/svg11.dtd"><svg width="100%" height="100%" viewBox="0 0 2700 450" version="1.1" xmlns="http://www.w3.org/2000/svg" xmlns:xlink="http://www.w3.org/1999/xlink" xml:space="preserve" xmlns:serif="http://www.serif.com/" style="fill-rule:evenodd;clip-rule:evenodd;stroke-linejoin:round;stroke-miterlimit:2;"><g id="Layer-1" serif:id="Layer 1"><path d="M526.858,199.551c-2.984,-9.375 -14.488,-30.68 -23.651,-31.95c-4.466,-0.642 -10.22,-1.063 -15.337,-1.063l-4.263,0l0,119.5c0,4.704 1.705,8.533 6.396,10.65c2.554,1.075 13.204,3.425 17.259,3.838l-0,4.908l-82.663,-0l0,-4.908c3.617,-0.209 14.275,-1.684 17.042,-2.763c4.904,-1.908 6.396,-5.962 6.396,-10.65l-0,-120.575l-4.263,0c-4.9,0 -10.871,0.421 -15.342,1.063c-8.945,1.27 -20.666,22.575 -23.65,31.95l-5.533,-0l0,-39.621l133.146,-0l-0,39.621l-5.538,-0Z" style="fill:#b5111a;fill-rule:nonzero;"/><path d="M592.655,242.377c-9.15,-0 -15.758,-5.108 -15.758,-13.85c0,-3.842 1.917,-7.671 2.567,-10.229c-9.171,0.212 -15.138,7.25 -16.838,10.229l0,60.496c0,4.704 2.129,7.887 5.754,9.391c3.405,1.48 10.859,2.334 14.059,2.542l-0,4.475l-64.975,0l-0,-4.475c3.404,-0.208 6.179,-0.637 8.946,-1.704c4.045,-1.492 5.329,-4.679 5.329,-9.375l-0,-63.054c-0,-4.05 -2.354,-8.95 -5.546,-11.292c-2.342,-1.7 -7.029,-2.983 -10.65,-3.196l-0,-4.258l45.6,-2.563l1.483,1.496l0,14.275l0.429,0c8.521,-11.083 17.259,-16.621 27.48,-16.621c10.65,0 18.537,7.671 18.537,19.396c0,10.009 -6.608,18.317 -16.417,18.317" style="fill:#b5111a;fill-rule:nonzero;"/><path d="M643.176,278.378c0,12.566 4.684,16.829 10.642,16.829c7.254,-0 9.387,-3.2 12.583,-8.092l0.842,-37.071c-14.692,5.75 -24.067,10.442 -24.067,28.334m48.996,29.829c-13.633,-0 -20.242,-5.967 -24.496,-13.854l-0.641,-0c-7.034,7.462 -13.85,14.271 -30.467,14.271c-14.483,-0 -25.775,-10.209 -25.775,-24.284c-0,-18.108 10.225,-23.641 20.871,-27.479c12.791,-4.687 30.05,-9.587 35.371,-13.633l-0,-12.354c-0,-7.246 -0,-21.517 -12.142,-21.517c-5.333,-0 -8.733,2.337 -10.438,4.042c0.638,3.404 3.83,9.587 3.83,16.191c-0,4.688 -6.392,12.146 -17.471,12.146c-11.075,0 -15.334,-7.667 -15.334,-14.708c0,-13.196 22.792,-22.788 41.109,-22.788c22.8,0 41.546,3.621 41.546,31.959c-0,19.375 -1.28,42.179 -1.28,49.212c0,3.408 2.35,10.017 7.68,10.017c6.387,-0 8.095,-8.746 8.304,-18.317l5.325,0c-0.425,17.875 -6.813,31.096 -25.992,31.096" style="fill:#b5111a;fill-rule:nonzero;"/><path d="M784.208,305.432l0,-4.475c2.763,-0.208 5.75,-0.641 7.879,-1.704c2.771,-1.492 3.192,-4.679 3.192,-9.375l0,-51.333c0,-14.704 -4.896,-20.675 -12.35,-20.675c-10.871,-0 -16.408,8.096 -18.754,12.787l-0,58.163c-0,4.691 0.85,7.866 3.617,9.591c2.77,1.705 5.329,2.113 8.1,2.546l-0,4.475l-56.875,0l-0,-4.475c3.4,-0.208 6.175,-0.641 8.945,-1.704c3.838,-1.492 5.321,-4.679 5.321,-9.375l0,-63.058c0,-4.471 -2.341,-9.163 -5.537,-11.292c-2.554,-1.696 -6.817,-2.979 -10.221,-3.196l-0,-4.258l45.162,-2.558l1.488,1.491l-0,14.696l0.425,0c7.675,-8.087 14.921,-17.467 32.817,-17.467c19.383,0 29.183,13.209 29.183,33.455l-0,51.333c-0,4.7 1.062,7.662 4.9,9.387c2.979,1.263 5.321,2.113 9.162,2.546l0,4.475l-56.454,0Z" style="fill:#b5111a;fill-rule:nonzero;"/><path d="M886.882,308.622c-13.638,0 -24.925,-5.741 -29.192,-9.158l-3.829,7.25l-6.396,-0l-1.067,-36.863l4.271,0c4.254,12.788 17.25,33.246 34.717,33.246c10.866,0 15.983,-6.408 15.983,-16.416c0,-11.067 -9.8,-14.688 -24.292,-19.592c-14.27,-4.908 -27.904,-13 -27.904,-32.813c0,-16.404 14.059,-30.037 37.709,-30.037c10.433,-0 19.808,2.771 25.779,5.75l2.766,-5.967l6.175,0l1.275,33.671l-4.037,0c-4.692,-14.708 -16.837,-27.908 -28.767,-27.908c-10.225,-0 -14.27,6.387 -14.27,14.275c-0,11.066 6.812,13.412 23.433,18.962c16.829,5.534 28.542,15.113 28.542,32.592c-0,21.517 -17.888,33.008 -40.896,33.008" style="fill:#b5111a;fill-rule:nonzero;"/><path d="M967.832,236.2c0,14.913 4.475,27.9 13.205,27.9c10.233,0 13.85,-13.841 13.85,-27.266c-0,-14.267 -3.409,-27.271 -14.059,-27.271c-10.437,-0 -12.996,12.362 -12.996,26.637m2.771,72.863c-4.475,2.333 -9.591,7.866 -9.591,18.754c-0,8.079 6.391,20.221 25.137,20.221c15.767,-0 25.146,-9.371 25.146,-24.5c-0,-4.679 -1.704,-10.646 -9.379,-13.409c-3.834,-0.645 -16.617,-1.066 -31.313,-1.066m36.854,-99.917c5.325,-13.646 12.571,-22.162 21.942,-22.162c5.963,-0 11.717,4.258 11.717,11.287c-0,6.825 -4.471,11.929 -11.075,11.929c-4.263,0 -8.738,-2.125 -11.934,-7.025c-2.766,1.063 -5.325,4.9 -6.604,8.521c0.425,0.217 0.846,0.425 1.492,1.071c8.308,7.033 12.137,15.971 12.137,24.925c0,19.167 -20.237,31.321 -42.175,31.321l-14.275,-0c-2.133,1.908 -4.258,3.616 -4.258,6.375c0,8.537 8.308,7.675 19.813,8.112c6.816,0.196 19.175,0.838 24.92,1.05c13.209,0.654 29.83,10.875 29.83,31.125c-0,21.296 -17.896,38.329 -57.73,38.329c-36.22,0 -50.275,-10.437 -50.275,-26.187c0,-11.517 11.28,-19.608 33.871,-20.463l0,-0.845c-10.225,-2.992 -23.008,-8.746 -23.008,-20.671c-0,-12.142 12.783,-16.409 22.579,-18.329l0,-0.85c-18.321,-5.538 -27.692,-16.4 -27.692,-30.038c0,-22.583 24.28,-32.383 44.305,-32.383c13.637,-0 22.795,2.771 26.42,4.908" style="fill:#b5111a;fill-rule:nonzero;"/><path d="M1086.51,209.786c-9.792,0 -14.267,12.35 -14.9,33.858l27.267,-0.416c-0,-16.613 -0.213,-33.442 -12.367,-33.442m2.992,98.838c-34.946,-0 -51.129,-23.417 -51.129,-52.83c-0,-27.483 17.466,-51.558 49.637,-51.558c32.6,0 43.888,20.25 43.888,42.392l-0,2.983l-60.288,0c-0.221,0 0,2.35 0,2.563c0,25.141 7.875,43.679 28.538,43.679c13.004,-0 22.162,-4.692 29.829,-19.613l4.262,3.204c-7.887,16.192 -23.433,29.18 -44.737,29.18" style="fill:#b5111a;fill-rule:nonzero;"/><path d="M1204.96,305.432l-0,-4.475c2.771,-0.208 5.754,-0.641 7.883,-1.704c2.771,-1.492 3.196,-4.679 3.196,-9.375l0,-51.333c0,-14.704 -4.908,-20.675 -12.362,-20.675c-10.859,-0 -16.4,8.096 -18.75,12.787l-0,58.163c-0,4.691 0.854,7.866 3.629,9.591c2.762,1.705 5.329,2.113 8.087,2.546l0,4.475l-56.875,0l0,-4.475c3.409,-0.208 6.175,-0.641 8.95,-1.704c3.83,-1.492 5.321,-4.679 5.321,-9.375l0,-63.058c0,-4.471 -2.341,-9.163 -5.533,-11.292c-2.563,-1.696 -6.825,-2.979 -10.225,-3.196l-0,-4.258l45.158,-2.558l1.488,1.491l-0,14.696l0.425,0c7.675,-8.087 14.92,-17.467 32.816,-17.467c19.388,0 29.192,13.209 29.192,33.455l0,51.333c0,4.7 1.058,7.662 4.896,9.387c2.975,1.263 5.329,2.113 9.162,2.546l0,4.475l-56.458,0Z" style="fill:#b5111a;fill-rule:nonzero;"/><path d="M1334.06,226.178c-1.704,-6.375 -5.962,-15.537 -16.408,-15.537c-12.358,-0 -20.025,18.1 -20.025,46.22c0,20.25 4.688,39.409 20.45,39.409c8.096,-0 11.504,-2.979 15.983,-8.734l0,-61.358Zm1.709,80.1l-1.504,-1.475l-0,-9.817l-0.855,-0.204c-4.679,4.892 -14.262,13.638 -27.266,13.638c-24.492,-0 -42.388,-20.884 -42.388,-53.479c0,-29.821 21.721,-50.705 46.229,-50.705c11.5,0 20.242,3.413 24.075,5.117l0,-39.2c0,-4.687 -1.92,-10.012 -5.329,-12.146c-3.837,-2.55 -12.575,-4.254 -18.541,-4.687l-0,-4.254l53.045,-2.563l1.484,1.492l-0,137.621c-0,4.683 2.15,7.895 5.337,10.237c2.342,1.7 8.729,2.988 12.363,3.192l-0,4.25l-46.65,2.983Z" style="fill:#b5111a;fill-rule:nonzero;"/><path d="M1430.98,209.786c-9.808,0 -14.275,12.35 -14.921,33.858l27.28,-0.416c-0,-16.613 -0.221,-33.442 -12.359,-33.442m2.979,98.838c-34.937,-0 -51.137,-23.417 -51.137,-52.83c-0,-27.483 17.479,-51.558 49.658,-51.558c32.592,0 43.879,20.25 43.879,42.392l0,2.983l-60.3,0c-0.208,0 0,2.35 0,2.563c0,25.141 7.884,43.679 28.55,43.679c12.992,-0 22.175,-4.692 29.83,-19.613l4.258,3.204c-7.871,16.192 -23.429,29.18 -44.738,29.18" style="fill:#b5111a;fill-rule:nonzero;"/><path d="M1558.37,242.377c-9.175,-0 -15.775,-5.108 -15.775,-13.85c-0,-3.842 1.933,-7.671 2.567,-10.229c-9.15,0.212 -15.121,7.25 -16.817,10.229l-0,60.496c-0,4.704 2.108,7.887 5.75,9.391c3.392,1.48 10.854,2.334 14.058,2.542l0,4.475l-64.983,0l-0,-4.475c3.4,-0.208 6.175,-0.637 8.962,-1.704c4.034,-1.492 5.309,-4.679 5.309,-9.375l-0,-63.054c-0,-4.05 -2.334,-8.95 -5.554,-11.292c-2.334,-1.7 -7.017,-2.983 -10.646,-3.196l-0,-4.258l45.608,-2.563l1.496,1.496l-0,14.275l0.408,0c8.521,-11.083 17.267,-16.621 27.475,-16.621c10.663,0 18.546,7.671 18.546,19.396c0,10.009 -6.596,18.317 -16.404,18.317" style="fill:#b5111a;fill-rule:nonzero;"/><path d="M1735.82,305.432l-121.641,0l-0,-4.683c3.837,-0.225 12.566,-1.288 15.341,-2.338c5.092,-1.92 6.596,-5.966 6.596,-10.654l0,-108.441c0,-4.688 -1.254,-8.317 -6.596,-10.65c-3.841,-1.705 -11.504,-3.834 -15.341,-4.05l-0,-4.688l66.675,0l-0,4.688c-3.834,0.216 -11.713,1.695 -15.559,2.983c-5.32,1.7 -6.587,5.958 -6.587,10.65l-0,101.837c-0,18.109 2.333,19.588 25.35,19.588c12.362,-0 27.05,-1.054 31.312,-5.529c5.534,-5.959 16.388,-22.796 18.546,-30.046l5.1,-0l-3.196,41.333Z" style="fill:#b5111a;fill-rule:nonzero;"/><path d="M1768.2,282.215c-0,11.712 5.325,17.037 14.487,17.037c11.071,0 15.767,-4.9 20.863,-11.279l0.862,-37.283c-21.308,6.591 -36.212,12.562 -36.212,31.525m54.95,25.35c-9.996,-0 -15.325,-4.467 -18.738,-14.275l-0.637,-0c-7.663,8.95 -18.759,14.696 -31.513,14.696c-14.725,-0 -24.742,-8.942 -24.742,-22.571c0,-17.479 10.238,-23.438 20.892,-27.492c12.142,-4.683 26.838,-8.312 35.8,-13.417l0,-11.929c0,-3.837 -0.662,-21.529 -18.342,-21.529c-8.079,0 -11.07,4.908 -12.991,7.25c-0,3.192 1.921,7.879 1.921,12.575c-0,4.467 -4.696,9.158 -12.367,9.158c-7.033,0 -9.579,-5.545 -9.579,-11.083c-0,-12.779 18.108,-22.579 34.304,-22.579c21.075,-0 36.65,3.192 36.65,31.529c-0,18.75 -1.071,40.692 -1.071,47.717c0,3.204 2.983,10.875 10.008,10.875c7.03,-0 7.68,-8.3 8.317,-16.404l4.675,-0c-1.275,19.808 -9.379,27.479 -22.587,27.479" style="fill:#b5111a;fill-rule:nonzero;"/><path d="M1979.31,226.178c-9.383,23.433 -13.425,33.871 -23.012,58.158c-2.967,7.467 -5.125,13.217 -8.088,22.584l-5.987,-0c-9.367,-25.767 -17.875,-48.15 -26.179,-69.021c-6.18,13.85 -12.15,30.892 -18.325,46.437c-2.988,7.255 -5.338,13.217 -8.317,22.584l-6.392,-0c-15.125,-38.129 -21.312,-53.467 -33.646,-82.659c-2.35,-5.75 -9.6,-10.012 -15.562,-10.645l-0,-4.471l46.021,-0l-0,4.891c-4.904,0.213 -11.288,1.071 -11.288,4.475c0,0.217 0.413,1.921 1.484,4.475c4.27,10.875 14.066,35.367 23.02,57.95l0.63,0c6.595,-17.041 13.204,-33.02 19.375,-50.066c-0.421,-1.279 -2.117,-4.471 -3.825,-8.096c-2.755,-6.171 -8.088,-8.525 -14.059,-9.158l0,-4.471l44.1,-0l0,4.687c-4.887,0.204 -11.075,0.638 -11.075,4.263c0,0.204 0.409,2.337 1.479,4.891c4.067,10.875 14.084,37.063 22.159,58.167l0.658,0c8.517,-22.162 14.258,-37.508 20.217,-54.975c0.654,-1.917 1.071,-4.254 1.071,-5.537c-0,-5.113 -11.93,-7.242 -15.121,-7.242l-0,-4.254l38.35,-0l-0,4.254c-5.971,0.637 -14.929,5.542 -17.688,12.779" style="fill:#b5111a;fill-rule:nonzero;"/><path d="M2103.52,308.622c-41.979,0 -70.542,-28.975 -70.542,-74.133c0,-43.883 32.188,-77.338 75.017,-77.338c11.704,0 25.767,5.55 32.154,11.513l6.404,-10.871l8.717,0l0.867,52.633l-5.126,0c-7.662,-24.72 -22.137,-47.091 -49.629,-47.091c-21.737,-0 -42.833,21.091 -42.833,69.454c0,38.562 23.233,64.767 51.142,64.767c25.991,-0 38.12,-13.43 46.446,-31.959l5.52,2.979c-8.72,19.821 -25.77,40.046 -58.137,40.046" style="fill:#b5111a;fill-rule:nonzero;"/><path d="M2214.5,211.271c-13.425,0 -22.796,13.213 -23.433,33.238l42.812,-0.429c0,-15.342 -3.187,-32.809 -19.379,-32.809m2.567,96.713c-32.18,-0 -47.088,-23.433 -47.088,-51.546c0,-25.567 16.4,-50.071 44.733,-50.071c29.196,0 39.842,19.179 39.842,40.904l0,1.921l-63.487,0l-0,2.342c-0,27.487 8.95,47.087 31.733,47.087c16.621,0 21.962,-5.97 30.05,-18.975l3.837,2.567c-7.458,15.121 -21.737,25.771 -39.62,25.771" style="fill:#b5111a;fill-rule:nonzero;"/><path d="M2329.11,305.432l-0,-4.258c3.837,-0.217 7.037,-0.65 10.008,-1.5c4.029,-1.263 5.746,-4.892 5.746,-9.579l-0,-51.346c-0,-14.692 -8.513,-22.792 -17.683,-22.792c-15.55,0 -24.288,10.009 -26.63,14.913l0,58.154c0,4.7 1.934,7.887 5.771,9.596c3.184,1.496 6.384,2.337 9.996,2.554l0,4.258l-50.292,0l0,-4.258c3.842,-0.217 6.409,-0.65 9.388,-1.5c4.067,-1.263 5.771,-4.892 5.771,-9.579l-0,-61.146c-0.446,-4.463 -2.35,-8.946 -5.771,-11.292c-2.542,-1.7 -6.583,-3.187 -10.433,-3.408l-0,-4.046l34.091,-2.342l1.479,1.492l0,14.488l0.438,-0c8.087,-7.884 16.183,-17.471 34.504,-17.471c19.817,-0 28.967,13.433 28.967,33.662l-0,49.217c-0,4.675 1.716,7.883 5.55,9.592c2.983,1.275 5.546,2.116 9.366,2.333l0,4.258l-50.266,0Z" style="fill:#b5111a;fill-rule:nonzero;"/><path d="M2428.6,307.564c-17.462,0 -25.783,-10.433 -25.783,-29.408l-0,-59.429l-20.454,-0l-0,-9.167l20.883,0l-0,-33.012l18.542,-0l-0,33.012l29.17,0l0,9.167l-28.97,-0l-0,56.887c-0,12.142 3.416,20.021 16.408,20.021c10.867,0 11.721,-8.521 13.004,-16.616l4.675,-0c-1.7,15.333 -11.704,28.545 -27.475,28.545" style="fill:#b5111a;fill-rule:nonzero;"/><path d="M2506.33,211.271c-13.408,0 -22.787,13.213 -23.429,33.238l42.817,-0.429c-0,-15.342 -3.184,-32.809 -19.388,-32.809m2.571,96.713c-32.162,-0 -47.1,-23.433 -47.1,-51.546c0,-25.567 16.425,-50.071 44.767,-50.071c29.179,0 39.833,19.179 39.833,40.904l0,1.921l-63.5,0l0,2.342c0,27.487 8.954,47.087 31.738,47.087c16.637,0 21.95,-5.97 30.045,-18.975l3.842,2.567c-7.462,15.121 -21.733,25.771 -39.625,25.771" style="fill:#b5111a;fill-rule:nonzero;"/><path d="M2623.73,233.216c-6.821,-0 -11.508,-2.984 -11.508,-10.23c-0,-2.129 1.492,-3.833 1.492,-6.608c-10.88,0 -18.75,9.171 -21.305,13.854l0,58.792c0,4.7 1.921,8.108 5.763,9.596c3.621,1.496 9.787,2.337 13.837,2.554l0,4.258l-54.104,0l0,-4.258c3.829,-0.217 6.375,-0.65 9.384,-1.5c4.029,-1.263 5.733,-4.892 5.733,-9.579l-0,-61.146c-0.413,-4.463 -2.333,-8.946 -5.733,-11.292c-2.584,-1.7 -6.617,-3.187 -10.434,-3.408l0,-4.046l34.067,-2.342l1.487,1.492l0,14.488l0.43,-0c9.162,-11.721 19.8,-17.05 28.737,-17.05c6.613,-0 13.446,5.975 13.446,13.012c-0,7.45 -4.079,13.413 -11.292,13.413" style="fill:#b5111a;fill-rule:nonzero;"/><path d="M282.121,170.39l28.333,-19.746l9.867,17.717l-31.367,14.167l-6.833,-12.138Z" style="fill:#d9541e;fill-rule:nonzero;"/><path d="M276.203,162.39l-10.009,-10.008l21.988,-26.304l14.32,14.316l-26.3,21.996Z" style="fill:#b5111a;fill-rule:nonzero;"/><path d="M296.753,205.402l-3.738,-13.404l32.367,-11.988l5.379,19.667l-34.008,5.725Z" style="fill:#f47b20;fill-rule:nonzero;"/><path d="M298.045,229.755l0.008,-14.154l34.154,-3.042l0.013,20.242l-34.175,-3.046Z" style="fill:#f4901d;fill-rule:nonzero;"/><path d="M292.84,253.021l3.742,-13.429l33.996,6.092l-5.554,19.492l-32.184,-12.155Z" style="fill:#fbb040;fill-rule:nonzero;"/><path d="M282.086,274.85l6.829,-12.129l31.375,14.416l-10.129,17.704l-28.075,-19.991Z" style="fill:#ffde74;fill-rule:nonzero;"/><path d="M265.772,292.888l10.016,-10.025l26.296,22.004l-14.317,14.3l-21.995,-26.279Z" style="fill:#ffe49d;fill-rule:nonzero;"/><path d="M245.603,305.644l12.154,-6.85l19.717,28.325l-17.696,9.887l-14.175,-31.362Z" style="fill:#ffde74;fill-rule:nonzero;"/><path d="M228.416,347.481l-5.725,-34.004l13.416,-3.741l11.975,32.366l-19.666,5.379Z" style="fill:#fbb040;fill-rule:nonzero;"/><path d="M198.399,314.799l14.162,0l3.034,34.142l-20.225,0.008l3.029,-34.15Z" style="fill:#f4901d;fill-rule:nonzero;"/><path d="M135.235,282.439l10.021,9.991l-22.025,26.304l-14.3,-14.316l26.304,-21.979Z" style="fill:#b5111a;fill-rule:nonzero;"/><path d="M133.364,326.937l19.987,-28.079l12.138,6.829l-14.413,31.363l-17.712,-10.113Z" style="fill:#d9541e;fill-rule:nonzero;"/><path d="M162.968,341.773l12.162,-32.196l13.417,3.746l-6.092,33.979l-19.487,-5.529Z" style="fill:#f47b20;fill-rule:nonzero;"/><path d="M129.254,274.561l-28.325,19.737l-9.866,-17.708l31.375,-14.159l6.816,12.13Z" style="fill:#d9541e;fill-rule:nonzero;"/><path d="M114.618,239.535l3.746,13.4l-32.359,12l-5.375,-19.675l33.988,-5.725Z" style="fill:#f47b20;fill-rule:nonzero;"/><path d="M113.32,215.194l0.004,14.175l-34.158,3.021l-0,-20.238l34.154,3.042Z" style="fill:#f4901d;fill-rule:nonzero;"/><path d="M118.549,191.939l-3.746,13.417l-34,-6.087l5.537,-19.496l32.209,12.166Z" style="fill:#fbb040;fill-rule:nonzero;"/><path d="M129.295,170.097l-6.825,12.117l-31.375,-14.413l10.129,-17.675l28.071,19.971Z" style="fill:#ffde74;fill-rule:nonzero;"/><path d="M145.61,152.053l-10.013,10.029l-26.296,-22.012l14.317,-14.313l21.992,26.296Z" style="fill:#ffe49d;fill-rule:nonzero;"/><path d="M165.767,139.303l-12.137,6.837l-19.729,-28.333l17.7,-9.871l14.166,31.367Z" style="fill:#ffde74;fill-rule:nonzero;"/><path d="M182.967,97.467l5.713,33.988l-13.409,3.754l-11.983,-32.379l19.679,-5.363Z" style="fill:#fbb040;fill-rule:nonzero;"/><path d="M212.976,130.15l-14.154,-0l-3.046,-34.154l20.238,-0l-3.038,34.154Z" style="fill:#f4901d;fill-rule:nonzero;"/><path d="M278.011,118.004l-19.979,28.1l-12.137,-6.834l14.408,-31.383l17.708,10.117Z" style="fill:#d9541e;fill-rule:nonzero;"/><path d="M248.413,103.17l-12.154,32.204l-13.404,-3.758l6.066,-33.983l19.492,5.537Z" style="fill:#f47b20;fill-rule:nonzero;"/></g></svg>